<?xml version="1.0" standalone="no"?>
<!DOCTYPE svg PUBLIC "-//W3C//DTD SVG 1.1//EN" "http://www.w3.org/Graphics/SVG/1.1/DTD/svg11.dtd" >
<svg xmlns="http://www.w3.org/2000/svg" xmlns:xlink="http://www.w3.org/1999/xlink" version="1.1">
<metadata>
Created by FontForge 20190801 at Tue Jan  8 23:20:18 2019
 By Jimmy Wärting
Maison Neue is the thoroughly reworked version of our early Maison typeface family. While the original version was constructed on geometric principles, Maison Neue has now been meticulously redrawn and extended. Paying particular attention to harmony, rhythm and flow, the new typeface also accounts for up-to-date display and reproduction technologies to create a distinctly contemporary grotesque, with a classic touch. The whole family contains 40 styles thus far; each includes an extended Latin character set and a variety of OpenType features.
</metadata>
<defs>
<font id="MaisonNeue-ExtraThin" horiz-adv-x="650" >
  <font-face 
    font-family="Maison Neue ExtraThin"
    font-weight="201"
    font-stretch="normal"
    units-per-em="1000"
    panose-1="2 11 1 4 4 0 0 0 0 0"
    ascent="730"
    descent="-270"
    x-height="530"
    cap-height="700"
    bbox="-648 -300 2161 974"
    underline-thickness="20"
    underline-position="-120"
    unicode-range="U+000D-FEFF"
  />
<missing-glyph horiz-adv-x="686" 
d="M53 -5v423c0 171 131 292 292 292c161 2 297 -123 294 -292v-423h-28l-65 65l-68 -65l-63 65l-71 -65l-69 65l-63 -65l-67 65l-66 -65h-26zM153 300l63 63l64 -63l14 14l-64 63l64 64l-14 14l-64 -64l-63 64l-14 -14l63 -64l-63 -63zM413 300l63 63l64 -63l14 14l-64 63
l64 64l-14 14l-64 -64l-63 64l-14 -14l63 -64l-63 -63z" />
    <glyph glyph-name="W_W_W" unicode="WWW" horiz-adv-x="2181" 
d="M161 0l-141 700h33l128 -648h2l211 648h30l211 -648h2l211 648h30l211 -648h2l212 648h30l211 -648h2l211 648h30l211 -648h2l128 648h33l-141 -700h-35l-212 649h-2l-212 -649h-29l-211 649h-2l-212 -649h-29l-212 649h-2l-211 -649h-29l-212 649h-2l-212 -649h-35z" />
    <glyph glyph-name="fi" unicode="fi" horiz-adv-x="459" 
d="M141 530h250v-530h-30v503h-220v-503h-30v503h-87v27h87v65c0 61 35 96 98 96h63v-28h-61c-49 0 -70 -22 -70 -71v-62zM338 681h57v-55h-57v55z" />
    <glyph glyph-name="fl" unicode="fl" horiz-adv-x="468" 
d="M361 730h30v-730h-30v503h-220v-503h-30v503h-87v27h87v65c0 61 35 96 98 96h63v-28h-61c-49 0 -70 -22 -70 -71v-62h220v200z" />
    <glyph glyph-name="w_w_w" unicode="www" horiz-adv-x="1730" 
d="M154 0l-125 530h31l112 -481h2l156 481h32l156 -481h2l156 481h32l156 -481h2l156 481h32l157 -481h2l156 481h32l156 -481h2l112 481h30l-124 -530h-31l-160 490h-2l-160 -490h-25l-160 490h-2l-160 -490h-24l-160 490h-2l-160 -490h-24l-160 490h-2l-160 -490h-31z" />
    <glyph glyph-name=".notdef" horiz-adv-x="686" 
d="M53 -5v423c0 171 131 292 292 292c161 2 297 -123 294 -292v-423h-28l-65 65l-68 -65l-63 65l-71 -65l-69 65l-63 -65l-67 65l-66 -65h-26zM153 300l63 63l64 -63l14 14l-64 63l64 64l-14 14l-64 -64l-63 64l-14 -14l63 -64l-63 -63zM413 300l63 63l64 -63l14 14l-64 63
l64 64l-14 14l-64 -64l-63 64l-14 -14l63 -64l-63 -63z" />
    <glyph glyph-name="NULL" horiz-adv-x="0" 
 />
    <glyph glyph-name="CR" unicode="&#xd;" horiz-adv-x="375" 
 />
    <glyph glyph-name="space" unicode=" " horiz-adv-x="278" 
 />
    <glyph glyph-name="A" unicode="A" horiz-adv-x="569" 
d="M530 0l-60 161h-371l-60 -161h-34l263 700h33l263 -700h-34zM109 189h351l-174 470h-2z" />
    <glyph glyph-name="Aacute" unicode="&#xc1;" horiz-adv-x="569" 
d="M530 0l-60 161h-371l-60 -161h-34l263 700h33l263 -700h-34zM109 189h351l-174 470h-2zM260 760l62 101h60l-88 -101h-34z" />
    <glyph glyph-name="Abreve" unicode="&#x102;" horiz-adv-x="569" 
d="M530 0l-60 161h-371l-60 -161h-34l263 700h33l263 -700h-34zM109 189h351l-174 470h-2zM186 846h23c7 -39 32 -62 76 -62c43 0 69 23 76 62h22c-3 -57 -39 -96 -98 -96s-96 39 -99 96z" />
    <glyph glyph-name="uni01CD" unicode="&#x1cd;" horiz-adv-x="569" 
d="M530 0l-60 161h-371l-60 -161h-34l263 700h33l263 -700h-34zM109 189h351l-174 470h-2zM354 853l23 -18l-70 -85h-45l-69 85l23 18l69 -83z" />
    <glyph glyph-name="Acircumflex" unicode="&#xc2;" horiz-adv-x="569" 
d="M530 0l-60 161h-371l-60 -161h-34l263 700h33l263 -700h-34zM109 189h351l-174 470h-2zM377 758l-23 -18l-69 84l-69 -84l-23 18l69 85h45z" />
    <glyph glyph-name="uni1EAC" unicode="&#x1eac;" horiz-adv-x="569" 
d="M530 0l-60 161h-371l-60 -161h-34l263 700h33l263 -700h-34zM109 189h351l-174 470h-2zM377 758l-23 -18l-69 84l-69 -84l-23 18l69 85h45zM251 -116v67h68v-67h-68z" />
    <glyph glyph-name="Adieresis" unicode="&#xc4;" horiz-adv-x="569" 
d="M530 0l-60 161h-371l-60 -161h-34l263 700h33l263 -700h-34zM109 189h351l-174 470h-2zM171 750v67h68v-67h-68zM331 750v67h68v-67h-68z" />
    <glyph glyph-name="uni01DE" unicode="&#x1de;" horiz-adv-x="569" 
d="M530 0l-60 161h-371l-60 -161h-34l263 700h33l263 -700h-34zM109 189h351l-174 470h-2zM171 750v67h68v-67h-68zM331 750v67h68v-67h-68zM169 857v27h231v-27h-231z" />
    <glyph glyph-name="uni1EA0" unicode="&#x1ea0;" horiz-adv-x="569" 
d="M530 0l-60 161h-371l-60 -161h-34l263 700h33l263 -700h-34zM109 189h351l-174 470h-2zM251 -116v67h68v-67h-68z" />
    <glyph glyph-name="Agrave" unicode="&#xc0;" horiz-adv-x="569" 
d="M530 0l-60 161h-371l-60 -161h-34l263 700h33l263 -700h-34zM109 189h351l-174 470h-2zM276 760l-87 101h59l63 -101h-35z" />
    <glyph glyph-name="Amacron" unicode="&#x100;" horiz-adv-x="569" 
d="M530 0l-60 161h-371l-60 -161h-34l263 700h33l263 -700h-34zM109 189h351l-174 470h-2zM169 760v27h231v-27h-231z" />
    <glyph glyph-name="Aogonek" unicode="&#x104;" horiz-adv-x="569" 
d="M530 0l-60 161h-371l-60 -161h-34l263 700h33l263 -700h-34zM109 189h351l-174 470h-2zM445 -110c0 43 40 88 100 121l17 -11c-59 -34 -88 -70 -88 -107c0 -27 15 -40 45 -40c21 0 39 7 60 22l14 -24c-23 -17 -48 -26 -75 -26c-49 0 -73 22 -73 65z" />
    <glyph glyph-name="Aring" unicode="&#xc5;" horiz-adv-x="569" 
d="M530 0l-60 161h-371l-60 -161h-34l263 700h33l263 -700h-34zM109 189h351l-174 470h-2zM183 776c0 57 43 99 102 99c60 0 102 -42 102 -99s-42 -99 -102 -99c-59 0 -102 42 -102 99zM361 776c0 44 -32 76 -76 76s-76 -32 -76 -76s32 -76 76 -76s76 32 76 76z" />
    <glyph glyph-name="Aringacute" unicode="&#x1fa;" horiz-adv-x="569" 
d="M530 0l-60 161h-371l-60 -161h-34l263 700h33l263 -700h-34zM109 189h351l-174 470h-2zM183 776c0 57 43 99 102 99c60 0 102 -42 102 -99s-42 -99 -102 -99c-59 0 -102 42 -102 99zM361 776c0 44 -32 76 -76 76s-76 -32 -76 -76s32 -76 76 -76s76 32 76 76zM260 865
l62 101h60l-88 -101h-34z" />
    <glyph glyph-name="Atilde" unicode="&#xc3;" horiz-adv-x="569" 
d="M530 0l-60 161h-371l-60 -161h-34l263 700h33l263 -700h-34zM109 189h351l-174 470h-2zM280 779c-23 13 -38 21 -55 21c-21 0 -34 -13 -37 -40h-21c3 43 25 68 60 68c20 0 38 -8 63 -23s38 -21 55 -21c22 0 34 13 37 39h21c-3 -43 -24 -68 -59 -68c-21 0 -40 9 -64 24z
" />
    <glyph glyph-name="AE" unicode="&#xc6;" horiz-adv-x="832" 
d="M772 670h-310v-294h282v-30h-282v-316h310v-30h-342v162h-316l-73 -162h-36l317 700h450v-30zM127 191h303v479h-88z" />
    <glyph glyph-name="AEacute" unicode="&#x1fc;" horiz-adv-x="832" 
d="M772 670h-310v-294h282v-30h-282v-316h310v-30h-342v162h-316l-73 -162h-36l317 700h450v-30zM127 191h303v479h-88zM403 760l62 101h60l-88 -101h-34z" />
    <glyph glyph-name="B" unicode="B" horiz-adv-x="627" 
d="M98 0v700h232c135 0 208 -61 208 -170c0 -80 -45 -136 -118 -156v-2c88 -15 144 -78 144 -174c0 -131 -80 -198 -237 -198h-229zM129 385h191c120 0 186 52 186 145c0 91 -61 140 -177 140h-200v-285zM129 30h197c137 0 206 56 206 168c0 107 -64 158 -197 158h-206v-326
z" />
    <glyph glyph-name="uni1E04" unicode="&#x1e04;" horiz-adv-x="627" 
d="M98 0v700h232c135 0 208 -61 208 -170c0 -80 -45 -136 -118 -156v-2c88 -15 144 -78 144 -174c0 -131 -80 -198 -237 -198h-229zM129 385h191c120 0 186 52 186 145c0 91 -61 140 -177 140h-200v-285zM129 30h197c137 0 206 56 206 168c0 107 -64 158 -197 158h-206v-326
zM277 -116v67h68v-67h-68z" />
    <glyph glyph-name="C" unicode="C" horiz-adv-x="649" 
d="M49 351c0 217 117 364 294 364c141 0 240 -88 265 -235l-31 -6c-23 135 -108 211 -235 211c-156 0 -261 -133 -261 -334c0 -203 105 -336 261 -336c129 0 213 79 236 222l32 -5c-23 -155 -123 -247 -268 -247c-175 0 -293 147 -293 366z" />
    <glyph glyph-name="Cacute" unicode="&#x106;" horiz-adv-x="649" 
d="M49 351c0 217 117 364 294 364c141 0 240 -88 265 -235l-31 -6c-23 135 -108 211 -235 211c-156 0 -261 -133 -261 -334c0 -203 105 -336 261 -336c129 0 213 79 236 222l32 -5c-23 -155 -123 -247 -268 -247c-175 0 -293 147 -293 366zM318 775l62 101h60l-88 -101h-34z
" />
    <glyph glyph-name="Ccaron" unicode="&#x10c;" horiz-adv-x="649" 
d="M49 351c0 217 117 364 294 364c141 0 240 -88 265 -235l-31 -6c-23 135 -108 211 -235 211c-156 0 -261 -133 -261 -334c0 -203 105 -336 261 -336c129 0 213 79 236 222l32 -5c-23 -155 -123 -247 -268 -247c-175 0 -293 147 -293 366zM412 868l23 -18l-70 -85h-45
l-69 85l23 18l69 -83z" />
    <glyph glyph-name="Ccedilla" unicode="&#xc7;" horiz-adv-x="649" 
d="M49 351c0 217 117 364 294 364c141 0 240 -88 265 -235l-31 -6c-23 135 -108 211 -235 211c-156 0 -261 -133 -261 -334c0 -203 105 -336 261 -336c129 0 213 79 236 222l32 -5c-23 -155 -123 -247 -268 -247c-175 0 -293 147 -293 366zM452 -134c0 -47 -38 -81 -89 -81
c-37 0 -67 14 -90 41l20 18c21 -25 41 -35 70 -35c35 0 63 25 63 57c0 33 -24 54 -59 54c-25 0 -49 -11 -66 -31l-21 10l55 101l21 -12l-35 -59c14 9 30 13 48 13c48 0 83 -31 83 -76z" />
    <glyph glyph-name="Ccircumflex" unicode="&#x108;" horiz-adv-x="649" 
d="M49 351c0 217 117 364 294 364c141 0 240 -88 265 -235l-31 -6c-23 135 -108 211 -235 211c-156 0 -261 -133 -261 -334c0 -203 105 -336 261 -336c129 0 213 79 236 222l32 -5c-23 -155 -123 -247 -268 -247c-175 0 -293 147 -293 366zM435 773l-23 -18l-69 84l-69 -84
l-23 18l69 85h45z" />
    <glyph glyph-name="Cdotaccent" unicode="&#x10a;" horiz-adv-x="649" 
d="M49 351c0 217 117 364 294 364c141 0 240 -88 265 -235l-31 -6c-23 135 -108 211 -235 211c-156 0 -261 -133 -261 -334c0 -203 105 -336 261 -336c129 0 213 79 236 222l32 -5c-23 -155 -123 -247 -268 -247c-175 0 -293 147 -293 366zM309 775v67h68v-67h-68z" />
    <glyph glyph-name="D" unicode="D" horiz-adv-x="651" 
d="M98 0v700h201c183 0 303 -143 303 -349c0 -223 -117 -351 -303 -351h-201zM129 30h166c175 0 275 120 275 321c0 190 -102 319 -274 319h-167v-640z" />
    <glyph glyph-name="Eth" unicode="&#xd0;" horiz-adv-x="651" 
d="M98 0v700h201c183 0 303 -143 303 -349c0 -223 -117 -351 -303 -351h-201zM129 30h166c175 0 275 120 275 321c0 190 -102 319 -274 319h-167v-640zM4 338v27h331v-27h-331z" />
    <glyph glyph-name="Dcaron" unicode="&#x10e;" horiz-adv-x="651" 
d="M98 0v700h201c183 0 303 -143 303 -349c0 -223 -117 -351 -303 -351h-201zM129 30h166c175 0 275 120 275 321c0 190 -102 319 -274 319h-167v-640zM361 853l23 -18l-70 -85h-45l-69 85l23 18l69 -83z" />
    <glyph glyph-name="Dcroat" unicode="&#x110;" horiz-adv-x="651" 
d="M98 0v700h201c183 0 303 -143 303 -349c0 -223 -117 -351 -303 -351h-201zM129 30h166c175 0 275 120 275 321c0 190 -102 319 -274 319h-167v-640zM4 338v27h331v-27h-331z" />
    <glyph glyph-name="uni1E0C" unicode="&#x1e0c;" horiz-adv-x="651" 
d="M98 0v700h201c183 0 303 -143 303 -349c0 -223 -117 -351 -303 -351h-201zM129 30h166c175 0 275 120 275 321c0 190 -102 319 -274 319h-167v-640zM293 -116v67h68v-67h-68z" />
    <glyph glyph-name="E" unicode="E" horiz-adv-x="559" 
d="M98 0v700h402v-30h-371v-294h343v-29h-343v-317h371v-30h-402z" />
    <glyph glyph-name="Eacute" unicode="&#xc9;" horiz-adv-x="559" 
d="M98 0v700h402v-30h-371v-294h343v-29h-343v-317h371v-30h-402zM282 760l62 101h60l-88 -101h-34z" />
    <glyph glyph-name="Ebreve" unicode="&#x114;" horiz-adv-x="559" 
d="M98 0v700h402v-30h-371v-294h343v-29h-343v-317h371v-30h-402zM208 846h23c7 -39 32 -62 76 -62c43 0 69 23 76 62h22c-3 -57 -39 -96 -98 -96s-96 39 -99 96z" />
    <glyph glyph-name="Ecaron" unicode="&#x11a;" horiz-adv-x="559" 
d="M98 0v700h402v-30h-371v-294h343v-29h-343v-317h371v-30h-402zM376 853l23 -18l-70 -85h-45l-69 85l23 18l69 -83z" />
    <glyph glyph-name="uni0228" unicode="&#x228;" horiz-adv-x="559" 
d="M98 0v700h402v-30h-371v-294h343v-29h-343v-317h371v-30h-402zM409 -120c0 -47 -38 -81 -89 -81c-37 0 -67 14 -90 41l20 18c21 -25 41 -35 70 -35c35 0 63 25 63 57c0 33 -24 54 -59 54c-25 0 -49 -11 -66 -31l-21 10l55 101l21 -12l-35 -59c14 9 30 13 48 13
c48 0 83 -31 83 -76z" />
    <glyph glyph-name="Ecircumflex" unicode="&#xca;" horiz-adv-x="559" 
d="M98 0v700h402v-30h-371v-294h343v-29h-343v-317h371v-30h-402zM399 758l-23 -18l-69 84l-69 -84l-23 18l69 85h45z" />
    <glyph glyph-name="uni1EC6" unicode="&#x1ec6;" horiz-adv-x="559" 
d="M98 0v700h402v-30h-371v-294h343v-29h-343v-317h371v-30h-402zM399 758l-23 -18l-69 84l-69 -84l-23 18l69 85h45zM265 -116v67h68v-67h-68z" />
    <glyph glyph-name="Edieresis" unicode="&#xcb;" horiz-adv-x="559" 
d="M98 0v700h402v-30h-371v-294h343v-29h-343v-317h371v-30h-402zM193 750v67h68v-67h-68zM353 750v67h68v-67h-68z" />
    <glyph glyph-name="Edotaccent" unicode="&#x116;" horiz-adv-x="559" 
d="M98 0v700h402v-30h-371v-294h343v-29h-343v-317h371v-30h-402zM273 760v67h68v-67h-68z" />
    <glyph glyph-name="uni1EB8" unicode="&#x1eb8;" horiz-adv-x="559" 
d="M98 0v700h402v-30h-371v-294h343v-29h-343v-317h371v-30h-402zM265 -116v67h68v-67h-68z" />
    <glyph glyph-name="Egrave" unicode="&#xc8;" horiz-adv-x="559" 
d="M98 0v700h402v-30h-371v-294h343v-29h-343v-317h371v-30h-402zM298 760l-87 101h59l63 -101h-35z" />
    <glyph glyph-name="Emacron" unicode="&#x112;" horiz-adv-x="559" 
d="M98 0v700h402v-30h-371v-294h343v-29h-343v-317h371v-30h-402zM191 760v27h231v-27h-231z" />
    <glyph glyph-name="Eogonek" unicode="&#x118;" horiz-adv-x="559" 
d="M98 0v700h402v-30h-371v-294h343v-29h-343v-317h371v-30h-402zM333 -110c0 43 40 88 100 121l17 -11c-59 -34 -88 -70 -88 -107c0 -27 15 -40 45 -40c21 0 39 7 60 22l14 -24c-23 -17 -48 -26 -75 -26c-49 0 -73 22 -73 65z" />
    <glyph glyph-name="uni018E" unicode="&#x18e;" horiz-adv-x="559" 
d="M461 0h-402v30h371v317h-343v29h343v294h-371v30h402v-700z" />
    <glyph glyph-name="uni1EBC" unicode="&#x1ebc;" horiz-adv-x="559" 
d="M98 0v700h402v-30h-371v-294h343v-29h-343v-317h371v-30h-402zM302 779c-23 13 -38 21 -55 21c-21 0 -34 -13 -37 -40h-21c3 43 25 68 60 68c20 0 38 -8 63 -23s38 -21 55 -21c22 0 34 13 37 39h21c-3 -43 -24 -68 -59 -68c-21 0 -40 9 -64 24z" />
    <glyph glyph-name="F" unicode="F" horiz-adv-x="550" 
d="M98 0v700h402v-30h-371v-315h343v-29h-343v-326h-31z" />
    <glyph glyph-name="G" unicode="G" horiz-adv-x="661" 
d="M49 351c0 217 117 364 294 364c136 0 235 -83 263 -219l-31 -5c-27 124 -112 194 -233 194c-156 0 -261 -133 -261 -334c0 -203 105 -336 261 -336s239 96 238 275h-229v29h260v-36c0 -191 -97 -298 -269 -298c-175 0 -293 147 -293 366z" />
    <glyph glyph-name="Gbreve" unicode="&#x11e;" horiz-adv-x="661" 
d="M49 351c0 217 117 364 294 364c136 0 235 -83 263 -219l-31 -5c-27 124 -112 194 -233 194c-156 0 -261 -133 -261 -334c0 -203 105 -336 261 -336s239 96 238 275h-229v29h260v-36c0 -191 -97 -298 -269 -298c-175 0 -293 147 -293 366zM244 861h23c7 -39 32 -62 76 -62
c43 0 69 23 76 62h22c-3 -57 -39 -96 -98 -96s-96 39 -99 96z" />
    <glyph glyph-name="Gcircumflex" unicode="&#x11c;" horiz-adv-x="661" 
d="M49 351c0 217 117 364 294 364c136 0 235 -83 263 -219l-31 -5c-27 124 -112 194 -233 194c-156 0 -261 -133 -261 -334c0 -203 105 -336 261 -336s239 96 238 275h-229v29h260v-36c0 -191 -97 -298 -269 -298c-175 0 -293 147 -293 366zM435 773l-23 -18l-69 84l-69 -84
l-23 18l69 85h45z" />
    <glyph glyph-name="uni0122" unicode="&#x122;" horiz-adv-x="661" 
d="M49 351c0 217 117 364 294 364c136 0 235 -83 263 -219l-31 -5c-27 124 -112 194 -233 194c-156 0 -261 -133 -261 -334c0 -203 105 -336 261 -336s239 96 238 275h-229v29h260v-36c0 -191 -97 -298 -269 -298c-175 0 -293 147 -293 366zM311 -182v24c19 4 25 13 25 34
h-26v59h65v-51c0 -41 -21 -63 -64 -66z" />
    <glyph glyph-name="Gdotaccent" unicode="&#x120;" horiz-adv-x="661" 
d="M49 351c0 217 117 364 294 364c136 0 235 -83 263 -219l-31 -5c-27 124 -112 194 -233 194c-156 0 -261 -133 -261 -334c0 -203 105 -336 261 -336s239 96 238 275h-229v29h260v-36c0 -191 -97 -298 -269 -298c-175 0 -293 147 -293 366zM309 775v67h68v-67h-68z" />
    <glyph glyph-name="H" unicode="H" 
d="M98 0v700h31v-323h391v323h32v-700h-32v350h-391v-350h-31z" />
    <glyph glyph-name="Hbar" unicode="&#x126;" horiz-adv-x="648" 
d="M648 555v-27h-97v-528h-31v349h-392v-349h-31v528h-97v27h97v145h31v-145h392v145h31v-145h97zM520 377v151h-392v-151h392z" />
    <glyph glyph-name="Hcircumflex" unicode="&#x124;" 
d="M98 0v700h31v-323h391v323h32v-700h-32v350h-391v-350h-31zM417 758l-23 -18l-69 84l-69 -84l-23 18l69 85h45z" />
    <glyph glyph-name="uni1E24" unicode="&#x1e24;" 
d="M98 0v700h31v-323h391v323h32v-700h-32v350h-391v-350h-31zM291 -116v67h68v-67h-68z" />
    <glyph glyph-name="I" unicode="I" horiz-adv-x="227" 
d="M98 0v700h31v-700h-31z" />
    <glyph glyph-name="Iacute" unicode="&#xcd;" horiz-adv-x="227" 
d="M98 0v700h31v-700h-31zM89 760l62 101h60l-88 -101h-34z" />
    <glyph glyph-name="Ibreve" unicode="&#x12c;" horiz-adv-x="227" 
d="M98 0v700h31v-700h-31zM15 846h23c7 -39 32 -62 76 -62c43 0 69 23 76 62h22c-3 -57 -39 -96 -98 -96s-96 39 -99 96z" />
    <glyph glyph-name="uni01CF" unicode="&#x1cf;" horiz-adv-x="227" 
d="M98 0v700h31v-700h-31zM183 853l23 -18l-70 -85h-45l-69 85l23 18l69 -83z" />
    <glyph glyph-name="Icircumflex" unicode="&#xce;" horiz-adv-x="227" 
d="M98 0v700h31v-700h-31zM206 758l-23 -18l-69 84l-69 -84l-23 18l69 85h45z" />
    <glyph glyph-name="Idieresis" unicode="&#xcf;" horiz-adv-x="227" 
d="M98 0v700h31v-700h-31zM0 750v67h68v-67h-68zM160 750v67h68v-67h-68z" />
    <glyph glyph-name="Idotaccent" unicode="&#x130;" horiz-adv-x="227" 
d="M98 0v700h31v-700h-31zM80 760v67h68v-67h-68z" />
    <glyph glyph-name="uni1ECA" unicode="&#x1eca;" horiz-adv-x="227" 
d="M98 0v700h31v-700h-31zM80 -116v67h68v-67h-68z" />
    <glyph glyph-name="Igrave" unicode="&#xcc;" horiz-adv-x="227" 
d="M98 0v700h31v-700h-31zM105 760l-87 101h59l63 -101h-35z" />
    <glyph glyph-name="Imacron" unicode="&#x12a;" horiz-adv-x="227" 
d="M98 0v700h31v-700h-31zM-2 760v27h231v-27h-231z" />
    <glyph glyph-name="Iogonek" unicode="&#x12e;" horiz-adv-x="227" 
d="M98 0v700h31v-700h-31zM11 -110c0 43 40 88 100 121l17 -11c-59 -34 -88 -70 -88 -107c0 -27 15 -40 45 -40c21 0 39 7 60 22l14 -24c-23 -17 -48 -26 -75 -26c-49 0 -73 22 -73 65z" />
    <glyph glyph-name="Itilde" unicode="&#x128;" horiz-adv-x="227" 
d="M98 0v700h31v-700h-31zM109 779c-23 13 -38 21 -55 21c-21 0 -34 -13 -37 -40h-21c3 43 25 68 60 68c20 0 38 -8 63 -23s38 -21 55 -21c22 0 34 13 37 39h21c-3 -43 -24 -68 -59 -68c-21 0 -40 9 -64 24z" />
    <glyph glyph-name="J" unicode="J" horiz-adv-x="486" 
d="M30 184l30 3c7 -117 55 -172 152 -172c103 0 150 65 150 198v487h32v-488c0 -149 -62 -227 -182 -227c-115 0 -174 66 -182 199z" />
    <glyph glyph-name="Jcircumflex" unicode="&#x134;" horiz-adv-x="486" 
d="M30 184l30 3c7 -117 55 -172 152 -172c103 0 150 65 150 198v487h32v-488c0 -149 -62 -227 -182 -227c-115 0 -174 66 -182 199zM471 758l-23 -18l-69 84l-69 -84l-23 18l69 85h45z" />
    <glyph glyph-name="K" unicode="K" horiz-adv-x="556" 
d="M98 0v700h31v-414h2l360 414h41l-274 -312l289 -388h-39l-269 365h-2l-108 -123v-242h-31z" />
    <glyph glyph-name="uni0136" unicode="&#x136;" horiz-adv-x="556" 
d="M98 0v700h31v-414h2l360 414h41l-274 -312l289 -388h-39l-269 365h-2l-108 -123v-242h-31zM282 -167v24c19 4 25 13 25 34h-26v59h65v-51c0 -41 -21 -63 -64 -66z" />
    <glyph glyph-name="L" unicode="L" horiz-adv-x="507" 
d="M98 0v700h31v-670h343v-30h-374z" />
    <glyph glyph-name="Lacute" unicode="&#x139;" horiz-adv-x="507" 
d="M98 0v700h31v-670h343v-30h-374zM89 760l62 101h60l-88 -101h-34z" />
    <glyph glyph-name="Lcaron" unicode="&#x13d;" horiz-adv-x="478" 
d="M98 0v700h31v-670h343v-30h-374zM385 582v24c19 4 25 13 25 34h-26v59h65v-51c0 -41 -21 -63 -64 -66z" />
    <glyph glyph-name="uni013B" unicode="&#x13b;" horiz-adv-x="507" 
d="M98 0v700h31v-670h343v-30h-374zM254 -167v24c19 4 25 13 25 34h-26v59h65v-51c0 -41 -21 -63 -64 -66z" />
    <glyph glyph-name="Ldot" unicode="&#x13f;" horiz-adv-x="507" 
d="M98 0v700h31v-670h343v-30h-374zM310 355v73h75v-73h-75z" />
    <glyph glyph-name="uni1E36" unicode="&#x1e36;" horiz-adv-x="507" 
d="M98 0v700h31v-670h343v-30h-374zM251 -116v67h68v-67h-68z" />
    <glyph glyph-name="Lslash" unicode="&#x141;" horiz-adv-x="533" 
d="M152 0v700h31v-670h343v-30h-374zM166 295l198 184l-16 16l-172 -159v4l-176 -170l16 -16l150 146v-5z" />
    <glyph glyph-name="M" unicode="M" horiz-adv-x="833" 
d="M98 0v700h45l273 -648h2l272 648h46v-700h-32v653h-2l-276 -653h-19l-276 653h-2v-653h-31z" />
    <glyph glyph-name="N" unicode="N" horiz-adv-x="660" 
d="M98 0v700h40l390 -653h2v653h32v-700h-40l-391 653h-2v-653h-31z" />
    <glyph glyph-name="Nacute" unicode="&#x143;" horiz-adv-x="660" 
d="M98 0v700h40l390 -653h2v653h32v-700h-40l-391 653h-2v-653h-31zM305 760l62 101h60l-88 -101h-34z" />
    <glyph glyph-name="Ncaron" unicode="&#x147;" horiz-adv-x="660" 
d="M98 0v700h40l390 -653h2v653h32v-700h-40l-391 653h-2v-653h-31zM399 853l23 -18l-70 -85h-45l-69 85l23 18l69 -83z" />
    <glyph glyph-name="uni0145" unicode="&#x145;" horiz-adv-x="660" 
d="M98 0v700h40l390 -653h2v653h32v-700h-40l-391 653h-2v-653h-31zM306 -167v24c19 4 25 13 25 34h-26v59h65v-51c0 -41 -21 -63 -64 -66z" />
    <glyph glyph-name="uni1E44" unicode="&#x1e44;" horiz-adv-x="660" 
d="M98 0v700h40l390 -653h2v653h32v-700h-40l-391 653h-2v-653h-31zM296 760v67h68v-67h-68z" />
    <glyph glyph-name="uni1E46" unicode="&#x1e46;" horiz-adv-x="660" 
d="M98 0v700h40l390 -653h2v653h32v-700h-40l-391 653h-2v-653h-31zM303 -116v67h68v-67h-68z" />
    <glyph glyph-name="Eng" unicode="&#x14a;" horiz-adv-x="659" 
d="M530 700h31v-758c0 -64 -27 -90 -90 -90h-30v29h30c43 0 60 17 60 60v59l-400 646h-2v-646h-31v700h35l395 -639h2v639z" />
    <glyph glyph-name="Ntilde" unicode="&#xd1;" horiz-adv-x="660" 
d="M98 0v700h40l390 -653h2v653h32v-700h-40l-391 653h-2v-653h-31zM325 779c-23 13 -38 21 -55 21c-21 0 -34 -13 -37 -40h-21c3 43 25 68 60 68c20 0 38 -8 63 -23s38 -21 55 -21c22 0 34 13 37 39h21c-3 -43 -24 -68 -59 -68c-21 0 -40 9 -64 24z" />
    <glyph glyph-name="O" unicode="O" horiz-adv-x="685" 
d="M49 350c0 218 117 365 294 365c175 0 293 -147 293 -365s-118 -365 -293 -365c-177 0 -294 147 -294 365zM604 350c0 202 -105 335 -261 335c-158 0 -262 -133 -262 -335s104 -335 262 -335c156 0 261 133 261 335z" />
    <glyph glyph-name="Oacute" unicode="&#xd3;" horiz-adv-x="685" 
d="M49 350c0 218 117 365 294 365c175 0 293 -147 293 -365s-118 -365 -293 -365c-177 0 -294 147 -294 365zM604 350c0 202 -105 335 -261 335c-158 0 -262 -133 -262 -335s104 -335 262 -335c156 0 261 133 261 335zM318 775l62 101h60l-88 -101h-34z" />
    <glyph glyph-name="Obreve" unicode="&#x14e;" horiz-adv-x="685" 
d="M49 350c0 218 117 365 294 365c175 0 293 -147 293 -365s-118 -365 -293 -365c-177 0 -294 147 -294 365zM604 350c0 202 -105 335 -261 335c-158 0 -262 -133 -262 -335s104 -335 262 -335c156 0 261 133 261 335zM244 861h23c7 -39 32 -62 76 -62c43 0 69 23 76 62h22
c-3 -57 -39 -96 -98 -96s-96 39 -99 96z" />
    <glyph glyph-name="uni01D1" unicode="&#x1d1;" horiz-adv-x="685" 
d="M49 350c0 218 117 365 294 365c175 0 293 -147 293 -365s-118 -365 -293 -365c-177 0 -294 147 -294 365zM604 350c0 202 -105 335 -261 335c-158 0 -262 -133 -262 -335s104 -335 262 -335c156 0 261 133 261 335zM412 868l23 -18l-70 -85h-45l-69 85l23 18l69 -83z" />
    <glyph glyph-name="Ocircumflex" unicode="&#xd4;" horiz-adv-x="685" 
d="M49 350c0 218 117 365 294 365c175 0 293 -147 293 -365s-118 -365 -293 -365c-177 0 -294 147 -294 365zM604 350c0 202 -105 335 -261 335c-158 0 -262 -133 -262 -335s104 -335 262 -335c156 0 261 133 261 335zM435 773l-23 -18l-69 84l-69 -84l-23 18l69 85h45z" />
    <glyph glyph-name="uni1ED8" unicode="&#x1ed8;" horiz-adv-x="685" 
d="M49 350c0 218 117 365 294 365c175 0 293 -147 293 -365s-118 -365 -293 -365c-177 0 -294 147 -294 365zM604 350c0 202 -105 335 -261 335c-158 0 -262 -133 -262 -335s104 -335 262 -335c156 0 261 133 261 335zM435 773l-23 -18l-69 84l-69 -84l-23 18l69 85h45z
M309 -131v67h68v-67h-68z" />
    <glyph glyph-name="Odieresis" unicode="&#xd6;" horiz-adv-x="685" 
d="M49 350c0 218 117 365 294 365c175 0 293 -147 293 -365s-118 -365 -293 -365c-177 0 -294 147 -294 365zM604 350c0 202 -105 335 -261 335c-158 0 -262 -133 -262 -335s104 -335 262 -335c156 0 261 133 261 335zM229 765v67h68v-67h-68zM389 765v67h68v-67h-68z" />
    <glyph glyph-name="uni1ECC" unicode="&#x1ecc;" horiz-adv-x="685" 
d="M49 350c0 218 117 365 294 365c175 0 293 -147 293 -365s-118 -365 -293 -365c-177 0 -294 147 -294 365zM604 350c0 202 -105 335 -261 335c-158 0 -262 -133 -262 -335s104 -335 262 -335c156 0 261 133 261 335zM309 -131v67h68v-67h-68z" />
    <glyph glyph-name="Ograve" unicode="&#xd2;" horiz-adv-x="685" 
d="M49 350c0 218 117 365 294 365c175 0 293 -147 293 -365s-118 -365 -293 -365c-177 0 -294 147 -294 365zM604 350c0 202 -105 335 -261 335c-158 0 -262 -133 -262 -335s104 -335 262 -335c156 0 261 133 261 335zM334 775l-87 101h59l63 -101h-35z" />
    <glyph glyph-name="Ohungarumlaut" unicode="&#x150;" horiz-adv-x="685" 
d="M49 350c0 218 117 365 294 365c175 0 293 -147 293 -365s-118 -365 -293 -365c-177 0 -294 147 -294 365zM604 350c0 202 -105 335 -261 335c-158 0 -262 -133 -262 -335s104 -335 262 -335c156 0 261 133 261 335zM257 775l62 101h60l-88 -101h-34zM367 775l63 101h59
l-88 -101h-34z" />
    <glyph glyph-name="Omacron" unicode="&#x14c;" horiz-adv-x="685" 
d="M49 350c0 218 117 365 294 365c175 0 293 -147 293 -365s-118 -365 -293 -365c-177 0 -294 147 -294 365zM604 350c0 202 -105 335 -261 335c-158 0 -262 -133 -262 -335s104 -335 262 -335c156 0 261 133 261 335zM227 775v27h231v-27h-231z" />
    <glyph glyph-name="Oslash" unicode="&#xd8;" horiz-adv-x="693" 
d="M640 350c0 -218 -118 -365 -293 -365c-61 0 -116 18 -164 53l-30 -54l-22 12l33 58c-71 64 -111 168 -111 296c0 218 118 365 294 365c62 0 116 -18 163 -53l31 54l21 -12l-33 -57c71 -65 111 -169 111 -297zM179 81l316 555c-41 33 -90 49 -148 49
c-158 0 -262 -133 -262 -335c0 -116 34 -210 94 -269zM608 350c0 116 -34 210 -94 269l-316 -555c42 -33 92 -49 149 -49c156 0 261 133 261 335z" />
    <glyph glyph-name="Oslashacute" unicode="&#x1fe;" horiz-adv-x="693" 
d="M640 350c0 -218 -118 -365 -293 -365c-61 0 -116 18 -164 53l-30 -54l-22 12l33 58c-71 64 -111 168 -111 296c0 218 118 365 294 365c62 0 116 -18 163 -53l31 54l21 -12l-33 -57c71 -65 111 -169 111 -297zM179 81l316 555c-41 33 -90 49 -148 49
c-158 0 -262 -133 -262 -335c0 -116 34 -210 94 -269zM608 350c0 116 -34 210 -94 269l-316 -555c42 -33 92 -49 149 -49c156 0 261 133 261 335zM322 775l62 101h60l-88 -101h-34z" />
    <glyph glyph-name="Otilde" unicode="&#xd5;" horiz-adv-x="685" 
d="M49 350c0 218 117 365 294 365c175 0 293 -147 293 -365s-118 -365 -293 -365c-177 0 -294 147 -294 365zM604 350c0 202 -105 335 -261 335c-158 0 -262 -133 -262 -335s104 -335 262 -335c156 0 261 133 261 335zM338 794c-23 13 -38 21 -55 21c-21 0 -34 -13 -37 -40
h-21c3 43 25 68 60 68c20 0 38 -8 63 -23s38 -21 55 -21c22 0 34 13 37 39h21c-3 -43 -24 -68 -59 -68c-21 0 -40 9 -64 24z" />
    <glyph glyph-name="uni1E4C" unicode="&#x1e4c;" horiz-adv-x="685" 
d="M49 350c0 218 117 365 294 365c175 0 293 -147 293 -365s-118 -365 -293 -365c-177 0 -294 147 -294 365zM604 350c0 202 -105 335 -261 335c-158 0 -262 -133 -262 -335s104 -335 262 -335c156 0 261 133 261 335zM338 794c-23 13 -38 21 -55 21c-21 0 -34 -13 -37 -40
h-21c3 43 25 68 60 68c20 0 38 -8 63 -23s38 -21 55 -21c22 0 34 13 37 39h21c-3 -43 -24 -68 -59 -68c-21 0 -40 9 -64 24zM318 873l62 101h60l-88 -101h-34z" />
    <glyph glyph-name="OE" unicode="&#x152;" horiz-adv-x="960" 
d="M49 350c0 218 117 365 294 365c71 0 133 -25 181 -69h2v54h375v-30h-343v-294h315v-30h-315v-316h343v-30h-375v55h-2c-50 -47 -110 -70 -181 -70c-177 0 -294 147 -294 365zM526 96v508c-45 52 -108 81 -183 81c-158 0 -262 -133 -262 -335s104 -335 262 -335
c75 0 138 29 183 81z" />
    <glyph glyph-name="P" unicode="P" horiz-adv-x="594" 
d="M98 0v700h237c144 0 230 -76 230 -207c0 -132 -82 -206 -230 -206h-206v-287h-31zM129 317h206c128 0 199 63 199 176c0 115 -70 177 -199 177h-206v-353z" />
    <glyph glyph-name="Thorn" unicode="&#xde;" horiz-adv-x="594" 
d="M565 355c0 -133 -83 -207 -230 -207h-206v-148h-31v700h31v-139h206c144 0 230 -75 230 -206zM534 355c0 115 -70 176 -199 176h-206v-353h206c128 0 199 62 199 177z" />
    <glyph glyph-name="Q" unicode="Q" horiz-adv-x="685" 
d="M547 75l69 -71l-20 -19l-69 70c-50 -47 -111 -70 -184 -70c-177 0 -294 147 -294 365s117 365 294 365c175 0 293 -147 293 -365c0 -115 -32 -210 -89 -275zM506 77l-178 181l20 19l177 -180c51 59 79 148 79 253c0 202 -105 335 -261 335c-158 0 -262 -133 -262 -335
s104 -335 262 -335c64 0 118 21 163 62z" />
    <glyph glyph-name="R" unicode="R" horiz-adv-x="593" 
d="M366 311v-1l162 -310h-36l-160 310h-203v-310h-31v700h237c140 0 219 -70 219 -193c0 -113 -69 -185 -188 -196zM523 507c0 107 -68 163 -192 163h-202v-330h202c123 0 192 59 192 167z" />
    <glyph glyph-name="Racute" unicode="&#x154;" horiz-adv-x="593" 
d="M366 311v-1l162 -310h-36l-160 310h-203v-310h-31v700h237c140 0 219 -70 219 -193c0 -113 -69 -185 -188 -196zM523 507c0 107 -68 163 -192 163h-202v-330h202c123 0 192 59 192 167zM272 760l62 101h60l-88 -101h-34z" />
    <glyph glyph-name="Rcaron" unicode="&#x158;" horiz-adv-x="593" 
d="M366 311v-1l162 -310h-36l-160 310h-203v-310h-31v700h237c140 0 219 -70 219 -193c0 -113 -69 -185 -188 -196zM523 507c0 107 -68 163 -192 163h-202v-330h202c123 0 192 59 192 167zM366 853l23 -18l-70 -85h-45l-69 85l23 18l69 -83z" />
    <glyph glyph-name="uni0156" unicode="&#x156;" horiz-adv-x="593" 
d="M366 311v-1l162 -310h-36l-160 310h-203v-310h-31v700h237c140 0 219 -70 219 -193c0 -113 -69 -185 -188 -196zM523 507c0 107 -68 163 -192 163h-202v-330h202c123 0 192 59 192 167zM276 -167v24c19 4 25 13 25 34h-26v59h65v-51c0 -41 -21 -63 -64 -66z" />
    <glyph glyph-name="S" unicode="S" horiz-adv-x="577" 
d="M39 222l32 3c7 -135 90 -210 234 -210c124 0 202 57 202 149c0 93 -54 141 -222 190c-163 50 -216 93 -216 183c0 105 86 178 209 178c125 0 221 -79 237 -196l-32 -4c-7 51 -30 92 -68 123c-37 31 -83 47 -137 47c-53 0 -95 -14 -128 -42c-33 -27 -49 -63 -49 -106
c0 -74 48 -112 196 -156c181 -54 241 -107 241 -216c0 -55 -21 -98 -63 -131s-99 -49 -170 -49c-160 0 -259 88 -266 237z" />
    <glyph glyph-name="Sacute" unicode="&#x15a;" horiz-adv-x="577" 
d="M39 222l32 3c7 -135 90 -210 234 -210c124 0 202 57 202 149c0 93 -54 141 -222 190c-163 50 -216 93 -216 183c0 105 86 178 209 178c125 0 221 -79 237 -196l-32 -4c-7 51 -30 92 -68 123c-37 31 -83 47 -137 47c-53 0 -95 -14 -128 -42c-33 -27 -49 -63 -49 -106
c0 -74 48 -112 196 -156c181 -54 241 -107 241 -216c0 -55 -21 -98 -63 -131s-99 -49 -170 -49c-160 0 -259 88 -266 237zM253 775l62 101h60l-88 -101h-34z" />
    <glyph glyph-name="Scaron" unicode="&#x160;" horiz-adv-x="577" 
d="M39 222l32 3c7 -135 90 -210 234 -210c124 0 202 57 202 149c0 93 -54 141 -222 190c-163 50 -216 93 -216 183c0 105 86 178 209 178c125 0 221 -79 237 -196l-32 -4c-7 51 -30 92 -68 123c-37 31 -83 47 -137 47c-53 0 -95 -14 -128 -42c-33 -27 -49 -63 -49 -106
c0 -74 48 -112 196 -156c181 -54 241 -107 241 -216c0 -55 -21 -98 -63 -131s-99 -49 -170 -49c-160 0 -259 88 -266 237zM347 868l23 -18l-70 -85h-45l-69 85l23 18l69 -83z" />
    <glyph glyph-name="Scedilla" unicode="&#x15e;" horiz-adv-x="577" 
d="M39 222l32 3c7 -135 90 -210 234 -210c124 0 202 57 202 149c0 93 -54 141 -222 190c-163 50 -216 93 -216 183c0 105 86 178 209 178c125 0 221 -79 237 -196l-32 -4c-7 51 -30 92 -68 123c-37 31 -83 47 -137 47c-53 0 -95 -14 -128 -42c-33 -27 -49 -63 -49 -106
c0 -74 48 -112 196 -156c181 -54 241 -107 241 -216c0 -55 -21 -98 -63 -131s-99 -49 -170 -49c-160 0 -259 88 -266 237zM415 -134c0 -47 -38 -81 -89 -81c-37 0 -67 14 -90 41l20 18c21 -25 41 -35 70 -35c35 0 63 25 63 57c0 33 -24 54 -59 54c-25 0 -49 -11 -66 -31
l-21 10l55 101l21 -12l-35 -59c14 9 30 13 48 13c48 0 83 -31 83 -76z" />
    <glyph glyph-name="Scircumflex" unicode="&#x15c;" horiz-adv-x="577" 
d="M39 222l32 3c7 -135 90 -210 234 -210c124 0 202 57 202 149c0 93 -54 141 -222 190c-163 50 -216 93 -216 183c0 105 86 178 209 178c125 0 221 -79 237 -196l-32 -4c-7 51 -30 92 -68 123c-37 31 -83 47 -137 47c-53 0 -95 -14 -128 -42c-33 -27 -49 -63 -49 -106
c0 -74 48 -112 196 -156c181 -54 241 -107 241 -216c0 -55 -21 -98 -63 -131s-99 -49 -170 -49c-160 0 -259 88 -266 237zM370 773l-23 -18l-69 84l-69 -84l-23 18l69 85h45z" />
    <glyph glyph-name="uni0218" unicode="&#x218;" horiz-adv-x="577" 
d="M39 222l32 3c7 -135 90 -210 234 -210c124 0 202 57 202 149c0 93 -54 141 -222 190c-163 50 -216 93 -216 183c0 105 86 178 209 178c125 0 221 -79 237 -196l-32 -4c-7 51 -30 92 -68 123c-37 31 -83 47 -137 47c-53 0 -95 -14 -128 -42c-33 -27 -49 -63 -49 -106
c0 -74 48 -112 196 -156c181 -54 241 -107 241 -216c0 -55 -21 -98 -63 -131s-99 -49 -170 -49c-160 0 -259 88 -266 237zM274 -182v24c19 4 25 13 25 34h-26v59h65v-51c0 -41 -21 -63 -64 -66z" />
    <glyph glyph-name="uni1E62" unicode="&#x1e62;" horiz-adv-x="577" 
d="M39 222l32 3c7 -135 90 -210 234 -210c124 0 202 57 202 149c0 93 -54 141 -222 190c-163 50 -216 93 -216 183c0 105 86 178 209 178c125 0 221 -79 237 -196l-32 -4c-7 51 -30 92 -68 123c-37 31 -83 47 -137 47c-53 0 -95 -14 -128 -42c-33 -27 -49 -63 -49 -106
c0 -74 48 -112 196 -156c181 -54 241 -107 241 -216c0 -55 -21 -98 -63 -131s-99 -49 -170 -49c-160 0 -259 88 -266 237zM271 -131v67h68v-67h-68z" />
    <glyph glyph-name="uni018F" unicode="&#x18f;" horiz-adv-x="675" 
d="M49 346v12h545c0 201 -101 327 -257 327c-116 0 -203 -70 -243 -195l-30 9c43 136 144 216 273 216c176 0 289 -142 289 -365s-114 -365 -289 -365c-174 0 -288 140 -288 361zM594 329h-513c0 -189 102 -314 256 -314c151 0 251 119 257 314z" />
    <glyph glyph-name="T" unicode="T" horiz-adv-x="557" 
d="M262 0v670h-227v30h487v-30h-228v-670h-32z" />
    <glyph glyph-name="_123" horiz-adv-x="557" 
d="M262 0v670h-227v30h487v-30h-228v-670h-32z" />
    <glyph glyph-name="Tbar" unicode="&#x166;" horiz-adv-x="557" 
d="M262 0v670h-227v30h487v-30h-228v-670h-32zM113 338v27h331v-27h-331z" />
    <glyph glyph-name="_125" horiz-adv-x="557" 
d="M262 0v670h-227v30h487v-30h-228v-670h-32zM113 338v27h331v-27h-331z" />
    <glyph glyph-name="Tcaron" unicode="&#x164;" horiz-adv-x="557" 
d="M262 0v670h-227v30h487v-30h-228v-670h-32zM347 853l23 -18l-70 -85h-45l-69 85l23 18l69 -83z" />
    <glyph glyph-name="_127" horiz-adv-x="557" 
d="M262 0v670h-227v30h487v-30h-228v-670h-32zM347 853l23 -18l-70 -85h-45l-69 85l23 18l69 -83z" />
    <glyph glyph-name="uni0162" unicode="&#x162;" horiz-adv-x="557" 
d="M262 0v670h-227v30h487v-30h-228v-670h-32zM388 -120c0 -47 -38 -81 -89 -81c-37 0 -67 14 -90 41l20 18c21 -25 41 -35 70 -35c35 0 63 25 63 57c0 33 -24 54 -59 54c-25 0 -49 -11 -66 -31l-21 10l55 101l21 -12l-35 -59c14 9 30 13 48 13c48 0 83 -31 83 -76z" />
    <glyph glyph-name="_129" horiz-adv-x="557" 
d="M262 0v670h-227v30h487v-30h-228v-670h-32zM388 -120c0 -47 -38 -81 -89 -81c-37 0 -67 14 -90 41l20 18c21 -25 41 -35 70 -35c35 0 63 25 63 57c0 33 -24 54 -59 54c-25 0 -49 -11 -66 -31l-21 10l55 101l21 -12l-35 -59c14 9 30 13 48 13c48 0 83 -31 83 -76z" />
    <glyph glyph-name="uni021A" unicode="&#x21a;" horiz-adv-x="557" 
d="M262 0v670h-227v30h487v-30h-228v-670h-32zM247 -167v24c19 4 25 13 25 34h-26v59h65v-51c0 -41 -21 -63 -64 -66z" />
    <glyph glyph-name="_131" horiz-adv-x="557" 
d="M262 0v670h-227v30h487v-30h-228v-670h-32zM247 -167v24c19 4 25 13 25 34h-26v59h65v-51c0 -41 -21 -63 -64 -66z" />
    <glyph glyph-name="uni1E6C" unicode="&#x1e6c;" horiz-adv-x="557" 
d="M262 0v670h-227v30h487v-30h-228v-670h-32zM244 -116v67h68v-67h-68z" />
    <glyph glyph-name="_133" horiz-adv-x="557" 
d="M262 0v670h-227v30h487v-30h-228v-670h-32zM244 -116v67h68v-67h-68z" />
    <glyph glyph-name="U" unicode="U" horiz-adv-x="662" 
d="M93 230v470h31v-469c0 -147 66 -216 207 -216c140 0 207 71 207 215v470h32v-470c0 -163 -80 -245 -239 -245s-238 82 -238 245z" />
    <glyph glyph-name="Uacute" unicode="&#xda;" horiz-adv-x="662" 
d="M93 230v470h31v-469c0 -147 66 -216 207 -216c140 0 207 71 207 215v470h32v-470c0 -163 -80 -245 -239 -245s-238 82 -238 245zM306 760l62 101h60l-88 -101h-34z" />
    <glyph glyph-name="Ubreve" unicode="&#x16c;" horiz-adv-x="662" 
d="M93 230v470h31v-469c0 -147 66 -216 207 -216c140 0 207 71 207 215v470h32v-470c0 -163 -80 -245 -239 -245s-238 82 -238 245zM232 846h23c7 -39 32 -62 76 -62c43 0 69 23 76 62h22c-3 -57 -39 -96 -98 -96s-96 39 -99 96z" />
    <glyph glyph-name="uni01D3" unicode="&#x1d3;" horiz-adv-x="662" 
d="M93 230v470h31v-469c0 -147 66 -216 207 -216c140 0 207 71 207 215v470h32v-470c0 -163 -80 -245 -239 -245s-238 82 -238 245zM400 853l23 -18l-70 -85h-45l-69 85l23 18l69 -83z" />
    <glyph glyph-name="Ucircumflex" unicode="&#xdb;" horiz-adv-x="662" 
d="M93 230v470h31v-469c0 -147 66 -216 207 -216c140 0 207 71 207 215v470h32v-470c0 -163 -80 -245 -239 -245s-238 82 -238 245zM423 758l-23 -18l-69 84l-69 -84l-23 18l69 85h45z" />
    <glyph glyph-name="Udieresis" unicode="&#xdc;" horiz-adv-x="662" 
d="M93 230v470h31v-469c0 -147 66 -216 207 -216c140 0 207 71 207 215v470h32v-470c0 -163 -80 -245 -239 -245s-238 82 -238 245zM217 750v67h68v-67h-68zM377 750v67h68v-67h-68z" />
    <glyph glyph-name="uni01D7" unicode="&#x1d7;" horiz-adv-x="662" 
d="M93 230v470h31v-469c0 -147 66 -216 207 -216c140 0 207 71 207 215v470h32v-470c0 -163 -80 -245 -239 -245s-238 82 -238 245zM217 750v67h68v-67h-68zM377 750v67h68v-67h-68zM306 857l62 101h60l-88 -101h-34z" />
    <glyph glyph-name="uni01D9" unicode="&#x1d9;" horiz-adv-x="662" 
d="M93 230v470h31v-469c0 -147 66 -216 207 -216c140 0 207 71 207 215v470h32v-470c0 -163 -80 -245 -239 -245s-238 82 -238 245zM217 750v67h68v-67h-68zM377 750v67h68v-67h-68zM400 950l23 -18l-70 -85h-45l-69 85l23 18l69 -83z" />
    <glyph glyph-name="uni01DB" unicode="&#x1db;" horiz-adv-x="662" 
d="M93 230v470h31v-469c0 -147 66 -216 207 -216c140 0 207 71 207 215v470h32v-470c0 -163 -80 -245 -239 -245s-238 82 -238 245zM217 750v67h68v-67h-68zM377 750v67h68v-67h-68zM322 857l-87 101h59l63 -101h-35z" />
    <glyph glyph-name="uni01D5" unicode="&#x1d5;" horiz-adv-x="662" 
d="M93 230v470h31v-469c0 -147 66 -216 207 -216c140 0 207 71 207 215v470h32v-470c0 -163 -80 -245 -239 -245s-238 82 -238 245zM217 750v67h68v-67h-68zM377 750v67h68v-67h-68zM215 857v27h231v-27h-231z" />
    <glyph glyph-name="uni1EE4" unicode="&#x1ee4;" horiz-adv-x="662" 
d="M93 230v470h31v-469c0 -147 66 -216 207 -216c140 0 207 71 207 215v470h32v-470c0 -163 -80 -245 -239 -245s-238 82 -238 245zM297 -131v67h68v-67h-68z" />
    <glyph glyph-name="Ugrave" unicode="&#xd9;" horiz-adv-x="662" 
d="M93 230v470h31v-469c0 -147 66 -216 207 -216c140 0 207 71 207 215v470h32v-470c0 -163 -80 -245 -239 -245s-238 82 -238 245zM322 760l-87 101h59l63 -101h-35z" />
    <glyph glyph-name="Uhungarumlaut" unicode="&#x170;" horiz-adv-x="662" 
d="M93 230v470h31v-469c0 -147 66 -216 207 -216c140 0 207 71 207 215v470h32v-470c0 -163 -80 -245 -239 -245s-238 82 -238 245zM245 760l62 101h60l-88 -101h-34zM355 760l63 101h59l-88 -101h-34z" />
    <glyph glyph-name="Umacron" unicode="&#x16a;" horiz-adv-x="662" 
d="M93 230v470h31v-469c0 -147 66 -216 207 -216c140 0 207 71 207 215v470h32v-470c0 -163 -80 -245 -239 -245s-238 82 -238 245zM215 760v27h231v-27h-231z" />
    <glyph glyph-name="Uogonek" unicode="&#x172;" horiz-adv-x="662" 
d="M93 230v470h31v-469c0 -147 66 -216 207 -216c140 0 207 71 207 215v470h32v-470c0 -163 -80 -245 -239 -245s-238 82 -238 245zM317 -110c0 43 40 88 100 121l17 -11c-59 -34 -88 -70 -88 -107c0 -27 15 -40 45 -40c21 0 39 7 60 22l14 -24c-23 -17 -48 -26 -75 -26
c-49 0 -73 22 -73 65z" />
    <glyph glyph-name="Uring" unicode="&#x16e;" horiz-adv-x="662" 
d="M93 230v470h31v-469c0 -147 66 -216 207 -216c140 0 207 71 207 215v470h32v-470c0 -163 -80 -245 -239 -245s-238 82 -238 245zM229 776c0 57 43 99 102 99c60 0 102 -42 102 -99s-42 -99 -102 -99c-59 0 -102 42 -102 99zM407 776c0 44 -32 76 -76 76s-76 -32 -76 -76
s32 -76 76 -76s76 32 76 76z" />
    <glyph glyph-name="Utilde" unicode="&#x168;" horiz-adv-x="662" 
d="M93 230v470h31v-469c0 -147 66 -216 207 -216c140 0 207 71 207 215v470h32v-470c0 -163 -80 -245 -239 -245s-238 82 -238 245zM326 779c-23 13 -38 21 -55 21c-21 0 -34 -13 -37 -40h-21c3 43 25 68 60 68c20 0 38 -8 63 -23s38 -21 55 -21c22 0 34 13 37 39h21
c-3 -43 -24 -68 -59 -68c-21 0 -40 9 -64 24z" />
    <glyph glyph-name="V" unicode="V" horiz-adv-x="562" 
d="M264 0l-259 700h34l241 -659h2l241 659h34l-258 -700h-35z" />
    <glyph glyph-name="W" unicode="W" horiz-adv-x="818" 
d="M161 0l-141 700h33l128 -648h2l211 648h30l211 -648h2l128 648h33l-141 -700h-35l-212 649h-2l-212 -649h-35z" />
    <glyph glyph-name="Wacute" unicode="&#x1e82;" horiz-adv-x="818" 
d="M161 0l-141 700h33l128 -648h2l211 648h30l211 -648h2l128 648h33l-141 -700h-35l-212 649h-2l-212 -649h-35zM384 760l62 101h60l-88 -101h-34z" />
    <glyph glyph-name="Wcircumflex" unicode="&#x174;" horiz-adv-x="818" 
d="M161 0l-141 700h33l128 -648h2l211 648h30l211 -648h2l128 648h33l-141 -700h-35l-212 649h-2l-212 -649h-35zM501 758l-23 -18l-69 84l-69 -84l-23 18l69 85h45z" />
    <glyph glyph-name="Wdieresis" unicode="&#x1e84;" horiz-adv-x="818" 
d="M161 0l-141 700h33l128 -648h2l211 648h30l211 -648h2l128 648h33l-141 -700h-35l-212 649h-2l-212 -649h-35zM295 750v67h68v-67h-68zM455 750v67h68v-67h-68z" />
    <glyph glyph-name="Wgrave" unicode="&#x1e80;" horiz-adv-x="818" 
d="M161 0l-141 700h33l128 -648h2l211 648h30l211 -648h2l128 648h33l-141 -700h-35l-212 649h-2l-212 -649h-35zM400 760l-87 101h59l63 -101h-35z" />
    <glyph glyph-name="X" unicode="X" horiz-adv-x="515" 
d="M10 0l228 355l-222 345h37l204 -321h2l203 321h38l-222 -345l227 -355h-37l-209 331h-2l-209 -331h-38z" />
    <glyph glyph-name="Y" unicode="Y" horiz-adv-x="540" 
d="M254 0v286l-254 414h36l233 -382h2l233 382h36l-254 -414v-286h-32z" />
    <glyph glyph-name="Yacute" unicode="&#xdd;" horiz-adv-x="540" 
d="M254 0v286l-254 414h36l233 -382h2l233 382h36l-254 -414v-286h-32zM245 760l62 101h60l-88 -101h-34z" />
    <glyph glyph-name="Ycircumflex" unicode="&#x176;" horiz-adv-x="540" 
d="M254 0v286l-254 414h36l233 -382h2l233 382h36l-254 -414v-286h-32zM362 758l-23 -18l-69 84l-69 -84l-23 18l69 85h45z" />
    <glyph glyph-name="Ydieresis" unicode="&#x178;" horiz-adv-x="540" 
d="M254 0v286l-254 414h36l233 -382h2l233 382h36l-254 -414v-286h-32zM156 750v67h68v-67h-68zM316 750v67h68v-67h-68z" />
    <glyph glyph-name="uni1EF4" unicode="&#x1ef4;" horiz-adv-x="540" 
d="M254 0v286l-254 414h36l233 -382h2l233 382h36l-254 -414v-286h-32zM236 -116v67h68v-67h-68z" />
    <glyph glyph-name="Ygrave" unicode="&#x1ef2;" horiz-adv-x="540" 
d="M254 0v286l-254 414h36l233 -382h2l233 382h36l-254 -414v-286h-32zM261 760l-87 101h59l63 -101h-35z" />
    <glyph glyph-name="uni1EF8" unicode="&#x1ef8;" horiz-adv-x="540" 
d="M254 0v286l-254 414h36l233 -382h2l233 382h36l-254 -414v-286h-32zM265 779c-23 13 -38 21 -55 21c-21 0 -34 -13 -37 -40h-21c3 43 25 68 60 68c20 0 38 -8 63 -23s38 -21 55 -21c22 0 34 13 37 39h21c-3 -43 -24 -68 -59 -68c-21 0 -40 9 -64 24z" />
    <glyph glyph-name="Z" unicode="Z" horiz-adv-x="628" 
d="M49 0v26l488 642v2h-458v30h500v-26l-488 -642v-2h467v-30h-509z" />
    <glyph glyph-name="Zacute" unicode="&#x179;" horiz-adv-x="628" 
d="M49 0v26l488 642v2h-458v30h500v-26l-488 -642v-2h467v-30h-509zM304 760l62 101h60l-88 -101h-34z" />
    <glyph glyph-name="Zcaron" unicode="&#x17d;" horiz-adv-x="628" 
d="M49 0v26l488 642v2h-458v30h500v-26l-488 -642v-2h467v-30h-509zM398 853l23 -18l-70 -85h-45l-69 85l23 18l69 -83z" />
    <glyph glyph-name="Zdotaccent" unicode="&#x17b;" horiz-adv-x="628" 
d="M49 0v26l488 642v2h-458v30h500v-26l-488 -642v-2h467v-30h-509zM295 760v67h68v-67h-68z" />
    <glyph glyph-name="uni1E92" unicode="&#x1e92;" horiz-adv-x="628" 
d="M49 0v26l488 642v2h-458v30h500v-26l-488 -642v-2h467v-30h-509zM289 -116v67h68v-67h-68z" />
    <glyph glyph-name="a" unicode="a" horiz-adv-x="508" 
d="M58 128c0 87 53 133 196 169c112 29 150 56 150 108c0 71 -51 112 -140 112c-95 0 -160 -55 -171 -144l-30 5c13 101 91 167 202 167c107 0 171 -54 171 -145v-400h-29v87h-2c-13 -29 -36 -54 -71 -73s-72 -29 -112 -29c-103 0 -164 54 -164 143zM406 166v180h-2
c-16 -33 -53 -51 -142 -74c-127 -33 -174 -72 -174 -144s50 -115 135 -115c101 0 183 69 183 153z" />
    <glyph glyph-name="aacute" unicode="&#xe1;" horiz-adv-x="508" 
d="M58 128c0 87 53 133 196 169c112 29 150 56 150 108c0 71 -51 112 -140 112c-95 0 -160 -55 -171 -144l-30 5c13 101 91 167 202 167c107 0 171 -54 171 -145v-400h-29v87h-2c-13 -29 -36 -54 -71 -73s-72 -29 -112 -29c-103 0 -164 54 -164 143zM406 166v180h-2
c-16 -33 -53 -51 -142 -74c-127 -33 -174 -72 -174 -144s50 -115 135 -115c101 0 183 69 183 153zM240 605l62 101h60l-88 -101h-34z" />
    <glyph glyph-name="abreve" unicode="&#x103;" horiz-adv-x="508" 
d="M58 128c0 87 53 133 196 169c112 29 150 56 150 108c0 71 -51 112 -140 112c-95 0 -160 -55 -171 -144l-30 5c13 101 91 167 202 167c107 0 171 -54 171 -145v-400h-29v87h-2c-13 -29 -36 -54 -71 -73s-72 -29 -112 -29c-103 0 -164 54 -164 143zM406 166v180h-2
c-16 -33 -53 -51 -142 -74c-127 -33 -174 -72 -174 -144s50 -115 135 -115c101 0 183 69 183 153zM166 691h23c7 -39 32 -62 76 -62c43 0 69 23 76 62h22c-3 -57 -39 -96 -98 -96s-96 39 -99 96z" />
    <glyph glyph-name="uni01CE" unicode="&#x1ce;" horiz-adv-x="508" 
d="M58 128c0 87 53 133 196 169c112 29 150 56 150 108c0 71 -51 112 -140 112c-95 0 -160 -55 -171 -144l-30 5c13 101 91 167 202 167c107 0 171 -54 171 -145v-400h-29v87h-2c-13 -29 -36 -54 -71 -73s-72 -29 -112 -29c-103 0 -164 54 -164 143zM406 166v180h-2
c-16 -33 -53 -51 -142 -74c-127 -33 -174 -72 -174 -144s50 -115 135 -115c101 0 183 69 183 153zM334 698l23 -18l-70 -85h-45l-69 85l23 18l69 -83z" />
    <glyph glyph-name="acircumflex" unicode="&#xe2;" horiz-adv-x="508" 
d="M58 128c0 87 53 133 196 169c112 29 150 56 150 108c0 71 -51 112 -140 112c-95 0 -160 -55 -171 -144l-30 5c13 101 91 167 202 167c107 0 171 -54 171 -145v-400h-29v87h-2c-13 -29 -36 -54 -71 -73s-72 -29 -112 -29c-103 0 -164 54 -164 143zM406 166v180h-2
c-16 -33 -53 -51 -142 -74c-127 -33 -174 -72 -174 -144s50 -115 135 -115c101 0 183 69 183 153zM357 603l-23 -18l-69 84l-69 -84l-23 18l69 85h45z" />
    <glyph glyph-name="uni1EAD" unicode="&#x1ead;" horiz-adv-x="508" 
d="M58 128c0 87 53 133 196 169c112 29 150 56 150 108c0 71 -51 112 -140 112c-95 0 -160 -55 -171 -144l-30 5c13 101 91 167 202 167c107 0 171 -54 171 -145v-400h-29v87h-2c-13 -29 -36 -54 -71 -73s-72 -29 -112 -29c-103 0 -164 54 -164 143zM406 166v180h-2
c-16 -33 -53 -51 -142 -74c-127 -33 -174 -72 -174 -144s50 -115 135 -115c101 0 183 69 183 153zM357 603l-23 -18l-69 84l-69 -84l-23 18l69 85h45zM220 -131v67h68v-67h-68z" />
    <glyph glyph-name="adieresis" unicode="&#xe4;" horiz-adv-x="508" 
d="M58 128c0 87 53 133 196 169c112 29 150 56 150 108c0 71 -51 112 -140 112c-95 0 -160 -55 -171 -144l-30 5c13 101 91 167 202 167c107 0 171 -54 171 -145v-400h-29v87h-2c-13 -29 -36 -54 -71 -73s-72 -29 -112 -29c-103 0 -164 54 -164 143zM406 166v180h-2
c-16 -33 -53 -51 -142 -74c-127 -33 -174 -72 -174 -144s50 -115 135 -115c101 0 183 69 183 153zM151 595v67h68v-67h-68zM311 595v67h68v-67h-68z" />
    <glyph glyph-name="uni01DF" unicode="&#x1df;" horiz-adv-x="508" 
d="M58 128c0 87 53 133 196 169c112 29 150 56 150 108c0 71 -51 112 -140 112c-95 0 -160 -55 -171 -144l-30 5c13 101 91 167 202 167c107 0 171 -54 171 -145v-400h-29v87h-2c-13 -29 -36 -54 -71 -73s-72 -29 -112 -29c-103 0 -164 54 -164 143zM406 166v180h-2
c-16 -33 -53 -51 -142 -74c-127 -33 -174 -72 -174 -144s50 -115 135 -115c101 0 183 69 183 153zM151 595v67h68v-67h-68zM311 595v67h68v-67h-68zM149 702v27h231v-27h-231z" />
    <glyph glyph-name="uni1EA1" unicode="&#x1ea1;" horiz-adv-x="508" 
d="M58 128c0 87 53 133 196 169c112 29 150 56 150 108c0 71 -51 112 -140 112c-95 0 -160 -55 -171 -144l-30 5c13 101 91 167 202 167c107 0 171 -54 171 -145v-400h-29v87h-2c-13 -29 -36 -54 -71 -73s-72 -29 -112 -29c-103 0 -164 54 -164 143zM406 166v180h-2
c-16 -33 -53 -51 -142 -74c-127 -33 -174 -72 -174 -144s50 -115 135 -115c101 0 183 69 183 153zM220 -131v67h68v-67h-68z" />
    <glyph glyph-name="agrave" unicode="&#xe0;" horiz-adv-x="508" 
d="M58 128c0 87 53 133 196 169c112 29 150 56 150 108c0 71 -51 112 -140 112c-95 0 -160 -55 -171 -144l-30 5c13 101 91 167 202 167c107 0 171 -54 171 -145v-400h-29v87h-2c-13 -29 -36 -54 -71 -73s-72 -29 -112 -29c-103 0 -164 54 -164 143zM406 166v180h-2
c-16 -33 -53 -51 -142 -74c-127 -33 -174 -72 -174 -144s50 -115 135 -115c101 0 183 69 183 153zM256 605l-87 101h59l63 -101h-35z" />
    <glyph glyph-name="amacron" unicode="&#x101;" horiz-adv-x="508" 
d="M58 128c0 87 53 133 196 169c112 29 150 56 150 108c0 71 -51 112 -140 112c-95 0 -160 -55 -171 -144l-30 5c13 101 91 167 202 167c107 0 171 -54 171 -145v-400h-29v87h-2c-13 -29 -36 -54 -71 -73s-72 -29 -112 -29c-103 0 -164 54 -164 143zM406 166v180h-2
c-16 -33 -53 -51 -142 -74c-127 -33 -174 -72 -174 -144s50 -115 135 -115c101 0 183 69 183 153zM149 605v27h231v-27h-231z" />
    <glyph glyph-name="aogonek" unicode="&#x105;" horiz-adv-x="508" 
d="M58 128c0 87 53 133 196 169c112 29 150 56 150 108c0 71 -51 112 -140 112c-95 0 -160 -55 -171 -144l-30 5c13 101 91 167 202 167c107 0 171 -54 171 -145v-400h-29v87h-2c-13 -29 -36 -54 -71 -73s-72 -29 -112 -29c-103 0 -164 54 -164 143zM406 166v180h-2
c-16 -33 -53 -51 -142 -74c-127 -33 -174 -72 -174 -144s50 -115 135 -115c101 0 183 69 183 153zM318 -110c0 43 40 88 100 121l17 -11c-59 -34 -88 -70 -88 -107c0 -27 15 -40 45 -40c21 0 39 7 60 22l14 -24c-23 -17 -48 -26 -75 -26c-49 0 -73 22 -73 65z" />
    <glyph glyph-name="aring" unicode="&#xe5;" horiz-adv-x="508" 
d="M166 673c0 53 40 93 96 93s96 -40 96 -93c0 -55 -40 -94 -96 -94s-96 39 -96 94zM334 673c0 41 -31 71 -72 71s-72 -30 -72 -71s31 -72 72 -72s72 31 72 72zM58 128c0 87 53 133 196 169c112 29 150 56 150 108c0 71 -51 112 -140 112c-95 0 -160 -55 -171 -144l-30 5
c13 101 91 167 202 167c107 0 171 -54 171 -145v-400h-29v87h-2c-13 -29 -36 -54 -71 -73s-72 -29 -112 -29c-103 0 -164 54 -164 143zM406 166v180h-2c-16 -33 -53 -51 -142 -74c-127 -33 -174 -72 -174 -144s50 -115 135 -115c101 0 183 69 183 153z" />
    <glyph glyph-name="aringacute" unicode="&#x1fb;" horiz-adv-x="517" 
d="M166 674c0 45 29 80 73 91l54 88h60l-76 -87c48 -5 81 -44 81 -92c0 -55 -40 -94 -96 -94s-96 39 -96 94zM190 674c0 -41 31 -72 72 -72s72 31 72 72s-31 71 -72 71s-72 -30 -72 -71zM436 400v-400h-29v87h-2c-13 -29 -36 -54 -71 -73s-72 -29 -112 -29
c-103 0 -164 54 -164 143c0 87 53 133 196 169c112 29 150 56 150 108c0 71 -51 112 -140 112c-95 0 -160 -55 -171 -144l-30 5c13 101 91 167 202 167c107 0 171 -54 171 -145zM406 166v180h-2c-16 -33 -53 -51 -142 -74c-127 -33 -174 -72 -174 -144s50 -115 135 -115
c101 0 183 69 183 153z" />
    <glyph glyph-name="atilde" unicode="&#xe3;" horiz-adv-x="508" 
d="M58 128c0 87 53 133 196 169c112 29 150 56 150 108c0 71 -51 112 -140 112c-95 0 -160 -55 -171 -144l-30 5c13 101 91 167 202 167c107 0 171 -54 171 -145v-400h-29v87h-2c-13 -29 -36 -54 -71 -73s-72 -29 -112 -29c-103 0 -164 54 -164 143zM406 166v180h-2
c-16 -33 -53 -51 -142 -74c-127 -33 -174 -72 -174 -144s50 -115 135 -115c101 0 183 69 183 153zM260 624c-23 13 -38 21 -55 21c-21 0 -34 -13 -37 -40h-21c3 43 25 68 60 68c20 0 38 -8 63 -23s38 -21 55 -21c22 0 34 13 37 39h21c-3 -43 -24 -68 -59 -68
c-21 0 -40 9 -64 24z" />
    <glyph glyph-name="ae" unicode="&#xe6;" horiz-adv-x="918" 
d="M860 271v-10h-423c1 -153 77 -249 200 -249c89 0 150 43 185 130l25 -13c-37 -93 -110 -144 -209 -144c-100 0 -177 55 -210 152c-16 -85 -96 -152 -206 -152c-103 0 -164 54 -164 143c0 36 9 65 28 86c37 44 85 60 170 84c34 9 61 18 80 25c40 16 70 42 70 83
c0 69 -51 112 -142 112c-95 0 -161 -55 -173 -144l-28 4c13 101 93 167 202 167c101 0 166 -50 169 -135l-4 -19c29 96 107 154 204 154c132 0 226 -109 226 -274zM437 287h394c-2 137 -84 231 -197 231c-57 0 -104 -21 -140 -63c-35 -41 -54 -97 -57 -168zM407 166v181h-2
c-19 -36 -62 -54 -142 -75c-39 -11 -70 -21 -93 -31c-45 -19 -83 -54 -83 -113c0 -75 49 -116 136 -116c102 0 184 69 184 154z" />
    <glyph glyph-name="aeacute" unicode="&#x1fd;" horiz-adv-x="918" 
d="M860 271v-10h-423c1 -153 77 -249 200 -249c89 0 150 43 185 130l25 -13c-37 -93 -110 -144 -209 -144c-100 0 -177 55 -210 152c-16 -85 -96 -152 -206 -152c-103 0 -164 54 -164 143c0 36 9 65 28 86c37 44 85 60 170 84c34 9 61 18 80 25c40 16 70 42 70 83
c0 69 -51 112 -142 112c-95 0 -161 -55 -173 -144l-28 4c13 101 93 167 202 167c101 0 166 -50 169 -135l-4 -19c29 96 107 154 204 154c132 0 226 -109 226 -274zM437 287h394c-2 137 -84 231 -197 231c-57 0 -104 -21 -140 -63c-35 -41 -54 -97 -57 -168zM407 166v181h-2
c-19 -36 -62 -54 -142 -75c-39 -11 -70 -21 -93 -31c-45 -19 -83 -54 -83 -113c0 -75 49 -116 136 -116c102 0 184 69 184 154zM434 590l62 101h60l-88 -101h-34z" />
    <glyph glyph-name="b" unicode="b" horiz-adv-x="579" 
d="M109 83h-2v-83h-29v730h30v-282h2c33 61 101 97 180 97c134 0 232 -117 232 -279c0 -165 -96 -281 -233 -281c-77 0 -145 37 -180 98zM492 265c0 146 -83 252 -202 252c-100 0 -182 -74 -182 -162v-178c0 -90 81 -164 180 -164c121 0 204 102 204 252z" />
    <glyph glyph-name="uni1E05" unicode="&#x1e05;" horiz-adv-x="579" 
d="M109 83h-2v-83h-29v730h30v-282h2c33 61 101 97 180 97c134 0 232 -117 232 -279c0 -165 -96 -281 -233 -281c-77 0 -145 37 -180 98zM492 265c0 146 -83 252 -202 252c-100 0 -182 -74 -182 -162v-178c0 -90 81 -164 180 -164c121 0 204 102 204 252zM259 -131v67h68
v-67h-68z" />
    <glyph glyph-name="c" unicode="c" horiz-adv-x="562" 
d="M58 265c0 161 98 280 236 280c55 0 103 -17 142 -50s64 -78 74 -135l-29 -6c-19 103 -91 163 -187 163c-120 0 -206 -107 -206 -252s86 -252 206 -252c96 0 168 60 187 163l29 -5c-20 -113 -104 -186 -216 -186c-138 0 -236 119 -236 280z" />
    <glyph glyph-name="cacute" unicode="&#x107;" horiz-adv-x="562" 
d="M58 265c0 161 98 280 236 280c55 0 103 -17 142 -50s64 -78 74 -135l-29 -6c-19 103 -91 163 -187 163c-120 0 -206 -107 -206 -252s86 -252 206 -252c96 0 168 60 187 163l29 -5c-20 -113 -104 -186 -216 -186c-138 0 -236 119 -236 280zM269 605l62 101h60l-88 -101
h-34z" />
    <glyph glyph-name="ccaron" unicode="&#x10d;" horiz-adv-x="562" 
d="M58 265c0 161 98 280 236 280c55 0 103 -17 142 -50s64 -78 74 -135l-29 -6c-19 103 -91 163 -187 163c-120 0 -206 -107 -206 -252s86 -252 206 -252c96 0 168 60 187 163l29 -5c-20 -113 -104 -186 -216 -186c-138 0 -236 119 -236 280zM363 698l23 -18l-70 -85h-45
l-69 85l23 18l69 -83z" />
    <glyph glyph-name="ccedilla" unicode="&#xe7;" horiz-adv-x="562" 
d="M58 265c0 161 98 280 236 280c55 0 103 -17 142 -50s64 -78 74 -135l-29 -6c-19 103 -91 163 -187 163c-120 0 -206 -107 -206 -252s86 -252 206 -252c96 0 168 60 187 163l29 -5c-20 -113 -104 -186 -216 -186c-138 0 -236 119 -236 280zM404 -134
c0 -47 -38 -81 -89 -81c-37 0 -67 14 -90 41l20 18c21 -25 41 -35 70 -35c35 0 63 25 63 57c0 33 -24 54 -59 54c-25 0 -49 -11 -66 -31l-21 10l55 101l21 -12l-35 -59c14 9 30 13 48 13c48 0 83 -31 83 -76z" />
    <glyph glyph-name="ccircumflex" unicode="&#x109;" horiz-adv-x="562" 
d="M58 265c0 161 98 280 236 280c55 0 103 -17 142 -50s64 -78 74 -135l-29 -6c-19 103 -91 163 -187 163c-120 0 -206 -107 -206 -252s86 -252 206 -252c96 0 168 60 187 163l29 -5c-20 -113 -104 -186 -216 -186c-138 0 -236 119 -236 280zM386 603l-23 -18l-69 84
l-69 -84l-23 18l69 85h45z" />
    <glyph glyph-name="cdotaccent" unicode="&#x10b;" horiz-adv-x="562" 
d="M58 265c0 161 98 280 236 280c55 0 103 -17 142 -50s64 -78 74 -135l-29 -6c-19 103 -91 163 -187 163c-120 0 -206 -107 -206 -252s86 -252 206 -252c96 0 168 60 187 163l29 -5c-20 -113 -104 -186 -216 -186c-138 0 -236 119 -236 280zM260 605v67h68v-67h-68z" />
    <glyph glyph-name="d" unicode="d" horiz-adv-x="579" 
d="M57 266c0 162 98 279 232 279c79 0 147 -36 180 -97h2v282h30v-730h-29v83h-2c-35 -61 -103 -98 -180 -98c-137 0 -233 116 -233 281zM471 177v178c0 88 -82 162 -182 162c-119 0 -202 -106 -202 -252c0 -150 83 -252 204 -252c99 0 180 74 180 164z" />
    <glyph glyph-name="eth" unicode="&#xf0;" horiz-adv-x="597" 
d="M539 265c0 -165 -99 -280 -240 -280s-241 116 -241 280c0 165 99 280 240 280c80 0 151 -42 188 -111h2c-23 77 -62 154 -118 229l-150 -53l-8 20l144 51c-23 29 -51 59 -82 92v2h33c27 -28 52 -56 74 -85l144 50l8 -20l-138 -49c96 -128 144 -263 144 -406zM509 265
c0 148 -87 252 -210 252c-125 0 -211 -104 -211 -252s86 -252 211 -252c123 0 210 104 210 252z" />
    <glyph glyph-name="dcaron" unicode="&#x10f;" horiz-adv-x="597" 
d="M57 266c0 162 98 279 232 279c79 0 147 -36 180 -97h2v282h30v-730h-29v83h-2c-35 -61 -103 -98 -180 -98c-137 0 -233 116 -233 281zM471 177v178c0 88 -82 162 -182 162c-119 0 -202 -106 -202 -252c0 -150 83 -252 204 -252c99 0 180 74 180 164zM552 612v24
c19 4 25 13 25 34h-26v59h65v-51c0 -41 -21 -63 -64 -66z" />
    <glyph glyph-name="dcroat" unicode="&#x111;" horiz-adv-x="579" 
d="M57 266c0 162 98 279 232 279c79 0 147 -36 180 -97h2v282h30v-730h-29v83h-2c-35 -61 -103 -98 -180 -98c-137 0 -233 116 -233 281zM471 177v178c0 88 -82 162 -182 162c-119 0 -202 -106 -202 -252c0 -150 83 -252 204 -252c99 0 180 74 180 164zM340 636v25h234v-25
h-234z" />
    <glyph glyph-name="uni1E0D" unicode="&#x1e0d;" horiz-adv-x="579" 
d="M57 266c0 162 98 279 232 279c79 0 147 -36 180 -97h2v282h30v-730h-29v83h-2c-35 -61 -103 -98 -180 -98c-137 0 -233 116 -233 281zM471 177v178c0 88 -82 162 -182 162c-119 0 -202 -106 -202 -252c0 -150 83 -252 204 -252c99 0 180 74 180 164zM252 -128v67h68v-67
h-68z" />
    <glyph glyph-name="e" unicode="e" horiz-adv-x="579" 
d="M58 265c0 160 92 280 231 280c141 0 232 -106 232 -274v-10h-433c1 -152 78 -248 205 -248c91 0 154 43 189 129l26 -12c-37 -95 -111 -145 -214 -145c-145 0 -236 108 -236 280zM88 287h402c-2 138 -82 230 -201 230c-117 0 -195 -101 -201 -230z" />
    <glyph glyph-name="eacute" unicode="&#xe9;" horiz-adv-x="579" 
d="M58 265c0 160 92 280 231 280c141 0 232 -106 232 -274v-10h-433c1 -152 78 -248 205 -248c91 0 154 43 189 129l26 -12c-37 -95 -111 -145 -214 -145c-145 0 -236 108 -236 280zM88 287h402c-2 138 -82 230 -201 230c-117 0 -195 -101 -201 -230zM264 605l62 101h60
l-88 -101h-34z" />
    <glyph glyph-name="ebreve" unicode="&#x115;" horiz-adv-x="579" 
d="M58 265c0 160 92 280 231 280c141 0 232 -106 232 -274v-10h-433c1 -152 78 -248 205 -248c91 0 154 43 189 129l26 -12c-37 -95 -111 -145 -214 -145c-145 0 -236 108 -236 280zM88 287h402c-2 138 -82 230 -201 230c-117 0 -195 -101 -201 -230zM190 691h23
c7 -39 32 -62 76 -62c43 0 69 23 76 62h22c-3 -57 -39 -96 -98 -96s-96 39 -99 96z" />
    <glyph glyph-name="ecaron" unicode="&#x11b;" horiz-adv-x="579" 
d="M58 265c0 160 92 280 231 280c141 0 232 -106 232 -274v-10h-433c1 -152 78 -248 205 -248c91 0 154 43 189 129l26 -12c-37 -95 -111 -145 -214 -145c-145 0 -236 108 -236 280zM88 287h402c-2 138 -82 230 -201 230c-117 0 -195 -101 -201 -230zM358 698l23 -18
l-70 -85h-45l-69 85l23 18l69 -83z" />
    <glyph glyph-name="uni0229" unicode="&#x229;" horiz-adv-x="579" 
d="M58 265c0 160 92 280 231 280c141 0 232 -106 232 -274v-10h-433c1 -152 78 -248 205 -248c91 0 154 43 189 129l26 -12c-37 -95 -111 -145 -214 -145c-145 0 -236 108 -236 280zM88 287h402c-2 138 -82 230 -201 230c-117 0 -195 -101 -201 -230zM404 -134
c0 -47 -38 -81 -89 -81c-37 0 -67 14 -90 41l20 18c21 -25 41 -35 70 -35c35 0 63 25 63 57c0 33 -24 54 -59 54c-25 0 -49 -11 -66 -31l-21 10l55 101l21 -12l-35 -59c14 9 30 13 48 13c48 0 83 -31 83 -76z" />
    <glyph glyph-name="ecircumflex" unicode="&#xea;" horiz-adv-x="579" 
d="M58 265c0 160 92 280 231 280c141 0 232 -106 232 -274v-10h-433c1 -152 78 -248 205 -248c91 0 154 43 189 129l26 -12c-37 -95 -111 -145 -214 -145c-145 0 -236 108 -236 280zM88 287h402c-2 138 -82 230 -201 230c-117 0 -195 -101 -201 -230zM381 603l-23 -18
l-69 84l-69 -84l-23 18l69 85h45z" />
    <glyph glyph-name="uni1EC7" unicode="&#x1ec7;" horiz-adv-x="579" 
d="M58 265c0 160 92 280 231 280c141 0 232 -106 232 -274v-10h-433c1 -152 78 -248 205 -248c91 0 154 43 189 129l26 -12c-37 -95 -111 -145 -214 -145c-145 0 -236 108 -236 280zM88 287h402c-2 138 -82 230 -201 230c-117 0 -195 -101 -201 -230zM381 603l-23 -18
l-69 84l-69 -84l-23 18l69 85h45zM260 -131v67h68v-67h-68z" />
    <glyph glyph-name="edieresis" unicode="&#xeb;" horiz-adv-x="579" 
d="M58 265c0 160 92 280 231 280c141 0 232 -106 232 -274v-10h-433c1 -152 78 -248 205 -248c91 0 154 43 189 129l26 -12c-37 -95 -111 -145 -214 -145c-145 0 -236 108 -236 280zM88 287h402c-2 138 -82 230 -201 230c-117 0 -195 -101 -201 -230zM175 595v67h68v-67h-68
zM335 595v67h68v-67h-68z" />
    <glyph glyph-name="edotaccent" unicode="&#x117;" horiz-adv-x="579" 
d="M58 265c0 160 92 280 231 280c141 0 232 -106 232 -274v-10h-433c1 -152 78 -248 205 -248c91 0 154 43 189 129l26 -12c-37 -95 -111 -145 -214 -145c-145 0 -236 108 -236 280zM88 287h402c-2 138 -82 230 -201 230c-117 0 -195 -101 -201 -230zM255 605v67h68v-67h-68
z" />
    <glyph glyph-name="uni1EB9" unicode="&#x1eb9;" horiz-adv-x="579" 
d="M58 265c0 160 92 280 231 280c141 0 232 -106 232 -274v-10h-433c1 -152 78 -248 205 -248c91 0 154 43 189 129l26 -12c-37 -95 -111 -145 -214 -145c-145 0 -236 108 -236 280zM88 287h402c-2 138 -82 230 -201 230c-117 0 -195 -101 -201 -230zM260 -131v67h68v-67
h-68z" />
    <glyph glyph-name="egrave" unicode="&#xe8;" horiz-adv-x="579" 
d="M58 265c0 160 92 280 231 280c141 0 232 -106 232 -274v-10h-433c1 -152 78 -248 205 -248c91 0 154 43 189 129l26 -12c-37 -95 -111 -145 -214 -145c-145 0 -236 108 -236 280zM88 287h402c-2 138 -82 230 -201 230c-117 0 -195 -101 -201 -230zM280 605l-87 101h59
l63 -101h-35z" />
    <glyph glyph-name="emacron" unicode="&#x113;" horiz-adv-x="579" 
d="M58 265c0 160 92 280 231 280c141 0 232 -106 232 -274v-10h-433c1 -152 78 -248 205 -248c91 0 154 43 189 129l26 -12c-37 -95 -111 -145 -214 -145c-145 0 -236 108 -236 280zM88 287h402c-2 138 -82 230 -201 230c-117 0 -195 -101 -201 -230zM173 605v27h231v-27
h-231z" />
    <glyph glyph-name="eogonek" unicode="&#x119;" horiz-adv-x="579" 
d="M58 265c0 160 92 280 231 280c141 0 232 -106 232 -274v-10h-433c1 -152 78 -248 205 -248c91 0 154 43 189 129l26 -12c-37 -95 -111 -145 -214 -145c-145 0 -236 108 -236 280zM88 287h402c-2 138 -82 230 -201 230c-117 0 -195 -101 -201 -230zM265 -110
c0 43 40 88 100 121l17 -11c-59 -34 -88 -70 -88 -107c0 -27 15 -40 45 -40c21 0 39 7 60 22l14 -24c-23 -17 -48 -26 -75 -26c-49 0 -73 22 -73 65z" />
    <glyph glyph-name="uni0258" unicode="&#x258;" horiz-adv-x="579" 
d="M71 130l26 12c35 -86 98 -129 189 -129c127 0 204 96 205 248h-433v10c0 168 91 274 232 274c139 0 231 -120 231 -280c0 -172 -91 -280 -236 -280c-103 0 -177 50 -214 145zM290 517c-119 0 -199 -92 -201 -230h402c-6 129 -84 230 -201 230z" />
    <glyph glyph-name="uni1EBD" unicode="&#x1ebd;" horiz-adv-x="579" 
d="M58 265c0 160 92 280 231 280c141 0 232 -106 232 -274v-10h-433c1 -152 78 -248 205 -248c91 0 154 43 189 129l26 -12c-37 -95 -111 -145 -214 -145c-145 0 -236 108 -236 280zM88 287h402c-2 138 -82 230 -201 230c-117 0 -195 -101 -201 -230zM284 624
c-23 13 -38 21 -55 21c-21 0 -34 -13 -37 -40h-21c3 43 25 68 60 68c20 0 38 -8 63 -23s38 -21 55 -21c22 0 34 13 37 39h21c-3 -43 -24 -68 -59 -68c-21 0 -40 9 -64 24z" />
    <glyph glyph-name="uni0259" unicode="&#x259;" horiz-adv-x="579" 
d="M58 259v10h433c-1 153 -78 248 -205 248c-87 0 -150 -46 -187 -137l-26 12c37 97 112 153 212 153c145 0 236 -108 236 -280c0 -159 -92 -280 -231 -280c-141 0 -232 106 -232 274zM491 243h-402c2 -138 82 -230 201 -230c117 0 195 101 201 230z" />
    <glyph glyph-name="f" unicode="f" horiz-adv-x="291" 
d="M111 0v503h-87v27h87v65c0 61 35 96 98 96h63v-28h-61c-49 0 -70 -22 -70 -71v-62h139v-27h-139v-503h-30z" />
    <glyph glyph-name="g" unicode="g" horiz-adv-x="574" 
d="M100 -97l28 11c25 -83 85 -126 172 -126c107 0 173 74 173 193v104h-2c-37 -64 -103 -99 -187 -99c-131 0 -226 119 -226 280c0 163 96 279 231 279c79 0 146 -36 181 -97h2v82h30v-550c0 -135 -78 -220 -202 -220c-99 0 -175 54 -200 143zM472 177v178
c0 88 -82 162 -183 162c-117 0 -201 -106 -201 -252s82 -251 197 -251c104 0 187 72 187 163z" />
    <glyph glyph-name="gbreve" unicode="&#x11f;" horiz-adv-x="574" 
d="M100 -97l28 11c25 -83 85 -126 172 -126c107 0 173 74 173 193v104h-2c-37 -64 -103 -99 -187 -99c-131 0 -226 119 -226 280c0 163 96 279 231 279c79 0 146 -36 181 -97h2v82h30v-550c0 -135 -78 -220 -202 -220c-99 0 -175 54 -200 143zM472 177v178
c0 88 -82 162 -183 162c-117 0 -201 -106 -201 -252s82 -251 197 -251c104 0 187 72 187 163zM190 691h23c7 -39 32 -62 76 -62c43 0 69 23 76 62h22c-3 -57 -39 -96 -98 -96s-96 39 -99 96z" />
    <glyph glyph-name="gcircumflex" unicode="&#x11d;" horiz-adv-x="574" 
d="M100 -97l28 11c25 -83 85 -126 172 -126c107 0 173 74 173 193v104h-2c-37 -64 -103 -99 -187 -99c-131 0 -226 119 -226 280c0 163 96 279 231 279c79 0 146 -36 181 -97h2v82h30v-550c0 -135 -78 -220 -202 -220c-99 0 -175 54 -200 143zM472 177v178
c0 88 -82 162 -183 162c-117 0 -201 -106 -201 -252s82 -251 197 -251c104 0 187 72 187 163zM381 603l-23 -18l-69 84l-69 -84l-23 18l69 85h45z" />
    <glyph glyph-name="uni0123" unicode="&#x123;" horiz-adv-x="574" 
d="M100 -97l28 11c25 -83 85 -126 172 -126c107 0 173 74 173 193v104h-2c-37 -64 -103 -99 -187 -99c-131 0 -226 119 -226 280c0 163 96 279 231 279c79 0 146 -36 181 -97h2v82h30v-550c0 -135 -78 -220 -202 -220c-99 0 -175 54 -200 143zM472 177v178
c0 88 -82 162 -183 162c-117 0 -201 -106 -201 -252s82 -251 197 -251c104 0 187 72 187 163zM323 723v-24c-20 -4 -27 -13 -27 -34h28v-59h-69v51c0 41 23 63 68 66z" />
    <glyph glyph-name="gdotaccent" unicode="&#x121;" horiz-adv-x="574" 
d="M100 -97l28 11c25 -83 85 -126 172 -126c107 0 173 74 173 193v104h-2c-37 -64 -103 -99 -187 -99c-131 0 -226 119 -226 280c0 163 96 279 231 279c79 0 146 -36 181 -97h2v82h30v-550c0 -135 -78 -220 -202 -220c-99 0 -175 54 -200 143zM472 177v178
c0 88 -82 162 -183 162c-117 0 -201 -106 -201 -252s82 -251 197 -251c104 0 187 72 187 163zM255 605v67h68v-67h-68z" />
    <glyph glyph-name="h" unicode="h" horiz-adv-x="553" 
d="M78 0v730h30v-287h2c32 64 99 102 178 102c57 0 104 -17 139 -52c36 -35 54 -80 54 -137v-356h-30v346c0 105 -63 171 -164 171c-103 0 -179 -72 -179 -171v-346h-30z" />
    <glyph glyph-name="hbar" unicode="&#x127;" horiz-adv-x="553" 
d="M78 0v730h30v-287h2c32 64 99 102 178 102c57 0 104 -17 139 -52c36 -35 54 -80 54 -137v-356h-30v346c0 105 -63 171 -164 171c-103 0 -179 -72 -179 -171v-346h-30zM6 636v25h234v-25h-234z" />
    <glyph glyph-name="hcircumflex" unicode="&#x125;" horiz-adv-x="553" 
d="M78 0v730h30v-287h2c32 64 99 102 178 102c57 0 104 -17 139 -52c36 -35 54 -80 54 -137v-356h-30v346c0 105 -63 171 -164 171c-103 0 -179 -72 -179 -171v-346h-30zM379 758l-23 -18l-69 84l-69 -84l-23 18l69 85h45z" />
    <glyph glyph-name="uni1E25" unicode="&#x1e25;" horiz-adv-x="553" 
d="M78 0v730h30v-287h2c32 64 99 102 178 102c57 0 104 -17 139 -52c36 -35 54 -80 54 -137v-356h-30v346c0 105 -63 171 -164 171c-103 0 -179 -72 -179 -171v-346h-30zM245 -116v67h68v-67h-68z" />
    <glyph glyph-name="i" unicode="i" horiz-adv-x="185" 
d="M78 0v530h30v-530h-30zM65 626v55h57v-55h-57z" />
    <glyph glyph-name="dotlessi" unicode="&#x131;" horiz-adv-x="185" 
d="M78 0v530h30v-530h-30z" />
    <glyph glyph-name="iacute" unicode="&#xed;" horiz-adv-x="185" 
d="M78 0v530h30v-530h-30zM68 590l62 101h60l-88 -101h-34z" />
    <glyph glyph-name="ibreve" unicode="&#x12d;" horiz-adv-x="185" 
d="M78 0v530h30v-530h-30zM-6 676h23c7 -39 32 -62 76 -62c43 0 69 23 76 62h22c-3 -57 -39 -96 -98 -96s-96 39 -99 96z" />
    <glyph glyph-name="uni01D0" unicode="&#x1d0;" horiz-adv-x="185" 
d="M78 0v530h30v-530h-30zM162 683l23 -18l-70 -85h-45l-69 85l23 18l69 -83z" />
    <glyph glyph-name="icircumflex" unicode="&#xee;" horiz-adv-x="185" 
d="M78 0v530h30v-530h-30zM185 588l-23 -18l-69 84l-69 -84l-23 18l69 85h45z" />
    <glyph glyph-name="idieresis" unicode="&#xef;" horiz-adv-x="183" 
d="M-13 580v67h68v-67h-68zM129 580v67h68v-67h-68zM78 0v530h30v-530h-30z" />
    <glyph glyph-name="i.locl" horiz-adv-x="185" 
d="M78 0v530h30v-530h-30zM65 626v55h57v-55h-57z" />
    <glyph glyph-name="uni1ECB" unicode="&#x1ecb;" horiz-adv-x="185" 
d="M78 0v530h30v-530h-30zM65 626v55h57v-55h-57zM58 -116v67h68v-67h-68z" />
    <glyph glyph-name="igrave" unicode="&#xec;" horiz-adv-x="185" 
d="M78 0v530h30v-530h-30zM84 590l-87 101h59l63 -101h-35z" />
    <glyph glyph-name="imacron" unicode="&#x12b;" horiz-adv-x="185" 
d="M78 0v530h30v-530h-30zM-23 590v27h231v-27h-231z" />
    <glyph glyph-name="iogonek" unicode="&#x12f;" horiz-adv-x="185" 
d="M78 0v530h30v-530h-30zM-11 -110c0 43 40 88 100 121l17 -11c-59 -34 -88 -70 -88 -107c0 -27 15 -40 45 -40c21 0 39 7 60 22l14 -24c-23 -17 -48 -26 -75 -26c-49 0 -73 22 -73 65zM65 626v55h57v-55h-57z" />
    <glyph glyph-name="itilde" unicode="&#x129;" horiz-adv-x="185" 
d="M78 0v530h30v-530h-30zM88 609c-23 13 -38 21 -55 21c-21 0 -34 -13 -37 -40h-21c3 43 25 68 60 68c20 0 38 -8 63 -23s38 -21 55 -21c22 0 34 13 37 39h21c-3 -43 -24 -68 -59 -68c-21 0 -40 9 -64 24z" />
    <glyph glyph-name="j" unicode="j" horiz-adv-x="196" 
d="M-10 -148v29h38c43 0 61 17 61 60v589h30v-588c0 -64 -27 -90 -90 -90h-39zM75 626v55h57v-55h-57z" />
    <glyph glyph-name="uni0237" unicode="&#x237;" horiz-adv-x="196" 
d="M-10 -148v29h38c43 0 61 17 61 60v589h30v-588c0 -64 -27 -90 -90 -90h-39z" />
    <glyph glyph-name="jcircumflex" unicode="&#x135;" horiz-adv-x="196" 
d="M-10 -148v29h38c43 0 61 17 61 60v589h30v-588c0 -64 -27 -90 -90 -90h-39zM196 588l-23 -18l-69 84l-69 -84l-23 18l69 85h45z" />
    <glyph glyph-name="k" unicode="k" horiz-adv-x="454" 
d="M78 0v730h30v-491h2l269 291h43l-197 -209l205 -321h-37l-188 300h-2l-95 -104v-196h-30z" />
    <glyph glyph-name="uni0137" unicode="&#x137;" horiz-adv-x="454" 
d="M78 0v730h30v-491h2l269 291h43l-197 -209l205 -321h-37l-188 300h-2l-95 -104v-196h-30zM213 -167v24c19 4 25 13 25 34h-26v59h65v-51c0 -41 -21 -63 -64 -66z" />
    <glyph glyph-name="kgreenlandic" unicode="&#x138;" horiz-adv-x="458" 
d="M78 0v530h30v-291h2l273 291h43l-199 -209l207 -321h-37l-190 300h-2l-97 -104v-196h-30z" />
    <glyph glyph-name="l" unicode="l" horiz-adv-x="185" 
d="M78 0v730h30v-730h-30z" />
    <glyph glyph-name="lacute" unicode="&#x13a;" horiz-adv-x="185" 
d="M78 0v730h30v-730h-30zM68 790l62 101h60l-88 -101h-34z" />
    <glyph glyph-name="lcaron" unicode="&#x13e;" horiz-adv-x="203" 
d="M78 0v730h30v-730h-30zM158 612v24c19 4 25 13 25 34h-26v59h65v-51c0 -41 -21 -63 -64 -66z" />
    <glyph glyph-name="uni013C" unicode="&#x13c;" horiz-adv-x="185" 
d="M78 0v730h30v-730h-30zM63 -167v24c19 4 25 13 25 34h-26v59h65v-51c0 -41 -21 -63 -64 -66z" />
    <glyph glyph-name="ldot" unicode="&#x140;" horiz-adv-x="223" 
d="M78 0v730h30v-730h-30zM165 353v73h75v-73h-75z" />
    <glyph glyph-name="uni1E37" unicode="&#x1e37;" horiz-adv-x="185" 
d="M78 0v730h30v-730h-30zM59 -116v67h68v-67h-68z" />
    <glyph glyph-name="lslash" unicode="&#x142;" horiz-adv-x="257" 
d="M114 0v730h30v-730h-30zM127 376l132 127l-15 16l-116 -112v5l-131 -126l16 -15l114 110v-5z" />
    <glyph glyph-name="m" unicode="m" horiz-adv-x="821" 
d="M78 0v530h29v-72h2c27 56 86 87 149 87c72 0 134 -37 157 -100h2c27 64 86 100 162 100c48 0 88 -15 120 -45c33 -30 49 -71 49 -124v-376h-30v371c0 93 -59 146 -140 146c-92 0 -150 -61 -150 -153v-364h-30v373c0 88 -60 144 -143 144c-87 0 -147 -64 -147 -156v-361
h-30z" />
    <glyph glyph-name="n" unicode="n" horiz-adv-x="553" 
d="M78 0v530h29v-87h2c33 64 100 102 179 102c119 0 193 -74 193 -194v-351h-30v346c0 108 -60 171 -164 171c-103 0 -179 -72 -179 -171v-346h-30z" />
    <glyph glyph-name="nacute" unicode="&#x144;" horiz-adv-x="553" 
d="M78 0v530h29v-87h2c33 64 100 102 179 102c119 0 193 -74 193 -194v-351h-30v346c0 108 -60 171 -164 171c-103 0 -179 -72 -179 -171v-346h-30zM255 605l62 101h60l-88 -101h-34z" />
    <glyph glyph-name="ncaron" unicode="&#x148;" horiz-adv-x="553" 
d="M78 0v530h29v-87h2c33 64 100 102 179 102c119 0 193 -74 193 -194v-351h-30v346c0 108 -60 171 -164 171c-103 0 -179 -72 -179 -171v-346h-30zM349 698l23 -18l-70 -85h-45l-69 85l23 18l69 -83z" />
    <glyph glyph-name="uni0146" unicode="&#x146;" horiz-adv-x="553" 
d="M78 0v530h29v-87h2c33 64 100 102 179 102c119 0 193 -74 193 -194v-351h-30v346c0 108 -60 171 -164 171c-103 0 -179 -72 -179 -171v-346h-30zM248 -167v24c19 4 25 13 25 34h-26v59h65v-51c0 -41 -21 -63 -64 -66z" />
    <glyph glyph-name="uni1E45" unicode="&#x1e45;" horiz-adv-x="553" 
d="M78 0v530h29v-87h2c33 64 100 102 179 102c119 0 193 -74 193 -194v-351h-30v346c0 108 -60 171 -164 171c-103 0 -179 -72 -179 -171v-346h-30zM246 605v67h68v-67h-68z" />
    <glyph glyph-name="uni1E47" unicode="&#x1e47;" horiz-adv-x="553" 
d="M78 0v530h29v-87h2c33 64 100 102 179 102c119 0 193 -74 193 -194v-351h-30v346c0 108 -60 171 -164 171c-103 0 -179 -72 -179 -171v-346h-30zM245 -116v67h68v-67h-68z" />
    <glyph glyph-name="eng" unicode="&#x14b;" horiz-adv-x="553" 
d="M481 351v-409c0 -64 -27 -90 -91 -90h-29v29h29c44 0 61 17 61 60v405c0 108 -60 171 -164 171c-103 0 -179 -72 -179 -171v-346h-30v530h29v-87h2c33 64 100 102 179 102c119 0 193 -74 193 -194z" />
    <glyph glyph-name="ntilde" unicode="&#xf1;" horiz-adv-x="553" 
d="M78 0v530h29v-87h2c33 64 100 102 179 102c119 0 193 -74 193 -194v-351h-30v346c0 108 -60 171 -164 171c-103 0 -179 -72 -179 -171v-346h-30zM275 624c-23 13 -38 21 -55 21c-21 0 -34 -13 -37 -40h-21c3 43 25 68 60 68c20 0 38 -8 63 -23s38 -21 55 -21
c22 0 34 13 37 39h21c-3 -43 -24 -68 -59 -68c-21 0 -40 9 -64 24z" />
    <glyph glyph-name="o" unicode="o" horiz-adv-x="597" 
d="M58 265c0 165 99 280 240 280s241 -115 241 -280c0 -164 -100 -280 -241 -280s-240 116 -240 280zM509 265c0 148 -86 252 -211 252c-123 0 -210 -104 -210 -252s87 -252 210 -252c125 0 211 104 211 252z" />
    <glyph glyph-name="oacute" unicode="&#xf3;" horiz-adv-x="597" 
d="M58 265c0 165 99 280 240 280s241 -115 241 -280c0 -164 -100 -280 -241 -280s-240 116 -240 280zM509 265c0 148 -86 252 -211 252c-123 0 -210 -104 -210 -252s87 -252 210 -252c125 0 211 104 211 252zM273 605l62 101h60l-88 -101h-34z" />
    <glyph glyph-name="obreve" unicode="&#x14f;" horiz-adv-x="597" 
d="M58 265c0 165 99 280 240 280s241 -115 241 -280c0 -164 -100 -280 -241 -280s-240 116 -240 280zM509 265c0 148 -86 252 -211 252c-123 0 -210 -104 -210 -252s87 -252 210 -252c125 0 211 104 211 252zM199 691h23c7 -39 32 -62 76 -62c43 0 69 23 76 62h22
c-3 -57 -39 -96 -98 -96s-96 39 -99 96z" />
    <glyph glyph-name="uni01D2" unicode="&#x1d2;" horiz-adv-x="597" 
d="M58 265c0 165 99 280 240 280s241 -115 241 -280c0 -164 -100 -280 -241 -280s-240 116 -240 280zM509 265c0 148 -86 252 -211 252c-123 0 -210 -104 -210 -252s87 -252 210 -252c125 0 211 104 211 252zM367 698l23 -18l-70 -85h-45l-69 85l23 18l69 -83z" />
    <glyph glyph-name="ocircumflex" unicode="&#xf4;" horiz-adv-x="597" 
d="M58 265c0 165 99 280 240 280s241 -115 241 -280c0 -164 -100 -280 -241 -280s-240 116 -240 280zM509 265c0 148 -86 252 -211 252c-123 0 -210 -104 -210 -252s87 -252 210 -252c125 0 211 104 211 252zM390 603l-23 -18l-69 84l-69 -84l-23 18l69 85h45z" />
    <glyph glyph-name="uni1ED9" unicode="&#x1ed9;" horiz-adv-x="597" 
d="M58 265c0 165 99 280 240 280s241 -115 241 -280c0 -164 -100 -280 -241 -280s-240 116 -240 280zM509 265c0 148 -86 252 -211 252c-123 0 -210 -104 -210 -252s87 -252 210 -252c125 0 211 104 211 252zM390 603l-23 -18l-69 84l-69 -84l-23 18l69 85h45zM264 -131v67
h68v-67h-68z" />
    <glyph glyph-name="odieresis" unicode="&#xf6;" horiz-adv-x="597" 
d="M58 265c0 165 99 280 240 280s241 -115 241 -280c0 -164 -100 -280 -241 -280s-240 116 -240 280zM509 265c0 148 -86 252 -211 252c-123 0 -210 -104 -210 -252s87 -252 210 -252c125 0 211 104 211 252zM184 595v67h68v-67h-68zM344 595v67h68v-67h-68z" />
    <glyph glyph-name="uni1ECD" unicode="&#x1ecd;" horiz-adv-x="597" 
d="M58 265c0 165 99 280 240 280s241 -115 241 -280c0 -164 -100 -280 -241 -280s-240 116 -240 280zM509 265c0 148 -86 252 -211 252c-123 0 -210 -104 -210 -252s87 -252 210 -252c125 0 211 104 211 252zM264 -131v67h68v-67h-68z" />
    <glyph glyph-name="ograve" unicode="&#xf2;" horiz-adv-x="597" 
d="M58 265c0 165 99 280 240 280s241 -115 241 -280c0 -164 -100 -280 -241 -280s-240 116 -240 280zM509 265c0 148 -86 252 -211 252c-123 0 -210 -104 -210 -252s87 -252 210 -252c125 0 211 104 211 252zM289 605l-87 101h59l63 -101h-35z" />
    <glyph glyph-name="ohungarumlaut" unicode="&#x151;" horiz-adv-x="597" 
d="M58 265c0 165 99 280 240 280s241 -115 241 -280c0 -164 -100 -280 -241 -280s-240 116 -240 280zM509 265c0 148 -86 252 -211 252c-123 0 -210 -104 -210 -252s87 -252 210 -252c125 0 211 104 211 252zM212 605l62 101h60l-88 -101h-34zM322 605l63 101h59l-88 -101
h-34z" />
    <glyph glyph-name="omacron" unicode="&#x14d;" horiz-adv-x="597" 
d="M58 265c0 165 99 280 240 280s241 -115 241 -280c0 -164 -100 -280 -241 -280s-240 116 -240 280zM509 265c0 148 -86 252 -211 252c-123 0 -210 -104 -210 -252s87 -252 210 -252c125 0 211 104 211 252zM182 605v27h231v-27h-231z" />
    <glyph glyph-name="oslash" unicode="&#xf8;" horiz-adv-x="607" 
d="M545 506l-54 -58c35 -49 53 -110 53 -183c0 -164 -99 -280 -240 -280c-69 0 -130 29 -173 78l-53 -57l-16 15l55 59c-35 49 -54 113 -54 185c0 165 100 280 241 280c71 0 130 -28 174 -79l50 54zM137 101l321 344c-37 47 -91 72 -154 72c-126 0 -212 -104 -212 -252
c0 -65 15 -119 45 -164zM471 427l-321 -343c39 -45 91 -71 154 -71c125 0 211 104 211 252c0 63 -15 117 -44 162z" />
    <glyph glyph-name="oslashacute" unicode="&#x1ff;" horiz-adv-x="607" 
d="M545 506l-54 -58c35 -49 53 -110 53 -183c0 -164 -99 -280 -240 -280c-69 0 -130 29 -173 78l-53 -57l-16 15l55 59c-35 49 -54 113 -54 185c0 165 100 280 241 280c71 0 130 -28 174 -79l50 54zM137 101l321 344c-37 47 -91 72 -154 72c-126 0 -212 -104 -212 -252
c0 -65 15 -119 45 -164zM471 427l-321 -343c39 -45 91 -71 154 -71c125 0 211 104 211 252c0 63 -15 117 -44 162zM279 605l62 101h60l-88 -101h-34z" />
    <glyph glyph-name="otilde" unicode="&#xf5;" horiz-adv-x="597" 
d="M58 265c0 165 99 280 240 280s241 -115 241 -280c0 -164 -100 -280 -241 -280s-240 116 -240 280zM509 265c0 148 -86 252 -211 252c-123 0 -210 -104 -210 -252s87 -252 210 -252c125 0 211 104 211 252zM293 624c-23 13 -38 21 -55 21c-21 0 -34 -13 -37 -40h-21
c3 43 25 68 60 68c20 0 38 -8 63 -23s38 -21 55 -21c22 0 34 13 37 39h21c-3 -43 -24 -68 -59 -68c-21 0 -40 9 -64 24z" />
    <glyph glyph-name="uni1E4D" unicode="&#x1e4d;" horiz-adv-x="597" 
d="M58 265c0 165 99 280 240 280s241 -115 241 -280c0 -164 -100 -280 -241 -280s-240 116 -240 280zM509 265c0 148 -86 252 -211 252c-123 0 -210 -104 -210 -252s87 -252 210 -252c125 0 211 104 211 252zM293 624c-23 13 -38 21 -55 21c-21 0 -34 -13 -37 -40h-21
c3 43 25 68 60 68c20 0 38 -8 63 -23s38 -21 55 -21c22 0 34 13 37 39h21c-3 -43 -24 -68 -59 -68c-21 0 -40 9 -64 24zM273 703l62 101h60l-88 -101h-34z" />
    <glyph glyph-name="oe" unicode="&#x153;" horiz-adv-x="1031" 
d="M973 271v-10h-433c1 -153 77 -248 205 -248c91 0 154 43 189 129l25 -12c-36 -95 -111 -145 -214 -145c-112 0 -191 64 -222 173c-33 -107 -117 -173 -224 -173c-141 0 -241 116 -241 280c0 165 100 280 241 280c108 0 192 -67 225 -175c32 108 110 175 217 175
c141 0 232 -106 232 -274zM509 265c0 148 -87 252 -210 252c-124 0 -212 -104 -212 -252s88 -252 212 -252c123 0 210 104 210 252zM540 287h402c-2 138 -82 230 -201 230c-117 0 -195 -101 -201 -230z" />
    <glyph glyph-name="p" unicode="p" horiz-adv-x="579" 
d="M78 -225v755h30v-83h2c35 60 100 98 179 98c137 0 233 -116 233 -281c0 -162 -97 -279 -231 -279c-79 0 -148 36 -181 96h-2v-306h-30zM492 265c0 150 -83 252 -203 252c-101 0 -181 -74 -181 -164v-178c0 -88 82 -162 182 -162c119 0 202 106 202 252z" />
    <glyph glyph-name="thorn" unicode="&#xfe;" horiz-adv-x="579" 
d="M522 264c0 -162 -97 -279 -231 -279c-79 0 -148 36 -181 96h-2v-306h-30v955h30v-283h2c35 60 100 98 179 98c137 0 233 -116 233 -281zM492 265c0 150 -83 252 -203 252c-101 0 -181 -74 -181 -164v-178c0 -88 82 -162 182 -162c119 0 202 106 202 252z" />
    <glyph glyph-name="q" unicode="q" horiz-adv-x="579" 
d="M501 -225h-30v306h-2c-33 -60 -102 -96 -181 -96c-134 0 -231 117 -231 279c0 165 96 281 233 281c79 0 144 -38 179 -98h2v83h30v-755zM471 175v178c0 90 -80 164 -181 164c-120 0 -203 -102 -203 -252c0 -146 83 -252 202 -252c100 0 182 74 182 162z" />
    <glyph glyph-name="r" unicode="r" horiz-adv-x="277" 
d="M78 0v530h29v-61h2c19 41 56 69 108 69c13 0 25 -1 36 -4l-5 -30c-11 3 -22 4 -33 4c-69 0 -107 -55 -107 -146v-362h-30z" />
    <glyph glyph-name="racute" unicode="&#x155;" horiz-adv-x="277" 
d="M78 0v530h29v-61h2c19 41 56 69 108 69c13 0 25 -1 36 -4l-5 -30c-11 3 -22 4 -33 4c-69 0 -107 -55 -107 -146v-362h-30zM114 590l62 101h60l-88 -101h-34z" />
    <glyph glyph-name="rcaron" unicode="&#x159;" horiz-adv-x="277" 
d="M78 0v530h29v-61h2c19 41 56 69 108 69c13 0 25 -1 36 -4l-5 -30c-11 3 -22 4 -33 4c-69 0 -107 -55 -107 -146v-362h-30zM208 683l23 -18l-70 -85h-45l-69 85l23 18l69 -83z" />
    <glyph glyph-name="uni0157" unicode="&#x157;" horiz-adv-x="277" 
d="M78 0v530h29v-61h2c19 41 56 69 108 69c13 0 25 -1 36 -4l-5 -30c-11 3 -22 4 -33 4c-69 0 -107 -55 -107 -146v-362h-30zM63 -167v24c19 4 25 13 25 34h-26v59h65v-51c0 -41 -21 -63 -64 -66z" />
    <glyph glyph-name="s" unicode="s" horiz-adv-x="489" 
d="M48 182l29 4c12 -116 74 -173 187 -173c91 0 147 44 147 115c0 70 -39 102 -171 136c-132 36 -173 70 -173 141c0 78 71 140 165 140c104 0 176 -59 191 -156l-30 -6c-15 85 -73 134 -161 134c-77 0 -135 -48 -135 -112c0 -56 35 -82 154 -114c143 -38 190 -80 190 -162
c0 -88 -68 -144 -177 -144c-129 0 -205 69 -216 197z" />
    <glyph glyph-name="sacute" unicode="&#x15b;" horiz-adv-x="489" 
d="M48 182l29 4c12 -116 74 -173 187 -173c91 0 147 44 147 115c0 70 -39 102 -171 136c-132 36 -173 70 -173 141c0 78 71 140 165 140c104 0 176 -59 191 -156l-30 -6c-15 85 -73 134 -161 134c-77 0 -135 -48 -135 -112c0 -56 35 -82 154 -114c143 -38 190 -80 190 -162
c0 -88 -68 -144 -177 -144c-129 0 -205 69 -216 197zM207 605l62 101h60l-88 -101h-34z" />
    <glyph glyph-name="scaron" unicode="&#x161;" horiz-adv-x="489" 
d="M48 182l29 4c12 -116 74 -173 187 -173c91 0 147 44 147 115c0 70 -39 102 -171 136c-132 36 -173 70 -173 141c0 78 71 140 165 140c104 0 176 -59 191 -156l-30 -6c-15 85 -73 134 -161 134c-77 0 -135 -48 -135 -112c0 -56 35 -82 154 -114c143 -38 190 -80 190 -162
c0 -88 -68 -144 -177 -144c-129 0 -205 69 -216 197zM301 698l23 -18l-70 -85h-45l-69 85l23 18l69 -83z" />
    <glyph glyph-name="scedilla" unicode="&#x15f;" horiz-adv-x="489" 
d="M48 182l29 4c12 -116 74 -173 187 -173c91 0 147 44 147 115c0 70 -39 102 -171 136c-132 36 -173 70 -173 141c0 78 71 140 165 140c104 0 176 -59 191 -156l-30 -6c-15 85 -73 134 -161 134c-77 0 -135 -48 -135 -112c0 -56 35 -82 154 -114c143 -38 190 -80 190 -162
c0 -88 -68 -144 -177 -144c-129 0 -205 69 -216 197zM374 -134c0 -47 -38 -81 -89 -81c-37 0 -67 14 -90 41l20 18c21 -25 41 -35 70 -35c35 0 63 25 63 57c0 33 -24 54 -59 54c-25 0 -49 -11 -66 -31l-21 10l55 101l21 -12l-35 -59c14 9 30 13 48 13c48 0 83 -31 83 -76z
" />
    <glyph glyph-name="scircumflex" unicode="&#x15d;" horiz-adv-x="489" 
d="M48 182l29 4c12 -116 74 -173 187 -173c91 0 147 44 147 115c0 70 -39 102 -171 136c-132 36 -173 70 -173 141c0 78 71 140 165 140c104 0 176 -59 191 -156l-30 -6c-15 85 -73 134 -161 134c-77 0 -135 -48 -135 -112c0 -56 35 -82 154 -114c143 -38 190 -80 190 -162
c0 -88 -68 -144 -177 -144c-129 0 -205 69 -216 197zM324 603l-23 -18l-69 84l-69 -84l-23 18l69 85h45z" />
    <glyph glyph-name="uni0219" unicode="&#x219;" horiz-adv-x="489" 
d="M48 182l29 4c12 -116 74 -173 187 -173c91 0 147 44 147 115c0 70 -39 102 -171 136c-132 36 -173 70 -173 141c0 78 71 140 165 140c104 0 176 -59 191 -156l-30 -6c-15 85 -73 134 -161 134c-77 0 -135 -48 -135 -112c0 -56 35 -82 154 -114c143 -38 190 -80 190 -162
c0 -88 -68 -144 -177 -144c-129 0 -205 69 -216 197zM233 -182v24c19 4 25 13 25 34h-26v59h65v-51c0 -41 -21 -63 -64 -66z" />
    <glyph glyph-name="uni1E63" unicode="&#x1e63;" horiz-adv-x="489" 
d="M48 182l29 4c12 -116 74 -173 187 -173c91 0 147 44 147 115c0 70 -39 102 -171 136c-132 36 -173 70 -173 141c0 78 71 140 165 140c104 0 176 -59 191 -156l-30 -6c-15 85 -73 134 -161 134c-77 0 -135 -48 -135 -112c0 -56 35 -82 154 -114c143 -38 190 -80 190 -162
c0 -88 -68 -144 -177 -144c-129 0 -205 69 -216 197zM230 -131v67h68v-67h-68z" />
    <glyph glyph-name="germandbls" unicode="&#xdf;" horiz-adv-x="544" 
d="M78 0v507c0 133 76 208 196 208c53 0 97 -16 130 -48c33 -31 50 -73 50 -126c0 -71 -42 -126 -111 -150v-2c89 -19 143 -87 143 -179c0 -136 -79 -210 -223 -210h-61v28h61c125 0 193 65 193 181c0 99 -65 163 -170 163h-84v28h67c45 0 82 13 111 39c29 27 44 60 44 101
c0 91 -58 147 -150 147c-105 0 -166 -65 -166 -184v-503h-30z" />
    <glyph glyph-name="longs" unicode="&#x17f;" horiz-adv-x="233" 
d="M101 0v502h-77v28h77v67c0 61 35 96 98 96h63v-28h-61c-49 0 -70 -22 -70 -71v-594h-30z" />
    <glyph glyph-name="t" unicode="t" horiz-adv-x="284" 
d="M258 503h-129v-420c0 -40 16 -55 57 -55h41v-28h-41c-61 0 -87 24 -87 83v420h-75v27h75v110h30v-110h129v-27z" />
    <glyph glyph-name="tbar" unicode="&#x167;" horiz-adv-x="284" 
d="M258 503h-129v-420c0 -40 16 -55 57 -55h41v-28h-41c-61 0 -87 24 -87 83v420h-75v27h75v110h30v-110h129v-27zM25 271v25h234v-25h-234z" />
    <glyph glyph-name="tcaron" unicode="&#x165;" horiz-adv-x="284" 
d="M258 503h-129v-420c0 -40 16 -55 57 -55h41v-28h-41c-61 0 -87 24 -87 83v420h-75v27h75v110h30v-110h129v-27zM214 585v24c19 4 25 13 25 34h-26v59h65v-51c0 -41 -21 -63 -64 -66z" />
    <glyph glyph-name="uni0163" unicode="&#x163;" horiz-adv-x="284" 
d="M258 503h-129v-420c0 -40 16 -55 57 -55h41v-28h-41c-61 0 -87 24 -87 83v420h-75v27h75v110h30v-110h129v-27zM269 -120c0 -47 -38 -81 -89 -81c-37 0 -67 14 -90 41l20 18c21 -25 41 -35 70 -35c35 0 63 25 63 57c0 33 -24 54 -59 54c-25 0 -49 -11 -66 -31l-21 10
l55 101l21 -12l-35 -59c14 9 30 13 48 13c48 0 83 -31 83 -76z" />
    <glyph glyph-name="uni021B" unicode="&#x21b;" horiz-adv-x="284" 
d="M258 503h-129v-420c0 -40 16 -55 57 -55h41v-28h-41c-61 0 -87 24 -87 83v420h-75v27h75v110h30v-110h129v-27zM128 -167v24c19 4 25 13 25 34h-26v59h65v-51c0 -41 -21 -63 -64 -66z" />
    <glyph glyph-name="uni1E6D" unicode="&#x1e6d;" horiz-adv-x="284" 
d="M258 503h-129v-420c0 -40 16 -55 57 -55h41v-28h-41c-61 0 -87 24 -87 83v420h-75v27h75v110h30v-110h129v-27zM125 -116v67h68v-67h-68z" />
    <glyph glyph-name="u" unicode="u" horiz-adv-x="541" 
d="M68 174v356h30v-346c0 -111 57 -171 161 -171c100 0 174 72 174 171v346h30v-530h-30v87h-2c-32 -64 -97 -102 -176 -102c-117 0 -187 70 -187 189z" />
    <glyph glyph-name="uacute" unicode="&#xfa;" horiz-adv-x="541" 
d="M68 174v356h30v-346c0 -111 57 -171 161 -171c100 0 174 72 174 171v346h30v-530h-30v87h-2c-32 -64 -97 -102 -176 -102c-117 0 -187 70 -187 189zM240 590l62 101h60l-88 -101h-34z" />
    <glyph glyph-name="ubreve" unicode="&#x16d;" horiz-adv-x="541" 
d="M68 174v356h30v-346c0 -111 57 -171 161 -171c100 0 174 72 174 171v346h30v-530h-30v87h-2c-32 -64 -97 -102 -176 -102c-117 0 -187 70 -187 189zM166 676h23c7 -39 32 -62 76 -62c43 0 69 23 76 62h22c-3 -57 -39 -96 -98 -96s-96 39 -99 96z" />
    <glyph glyph-name="uni01D4" unicode="&#x1d4;" horiz-adv-x="541" 
d="M68 174v356h30v-346c0 -111 57 -171 161 -171c100 0 174 72 174 171v346h30v-530h-30v87h-2c-32 -64 -97 -102 -176 -102c-117 0 -187 70 -187 189zM334 683l23 -18l-70 -85h-45l-69 85l23 18l69 -83z" />
    <glyph glyph-name="ucircumflex" unicode="&#xfb;" horiz-adv-x="541" 
d="M68 174v356h30v-346c0 -111 57 -171 161 -171c100 0 174 72 174 171v346h30v-530h-30v87h-2c-32 -64 -97 -102 -176 -102c-117 0 -187 70 -187 189zM357 588l-23 -18l-69 84l-69 -84l-23 18l69 85h45z" />
    <glyph glyph-name="udieresis" unicode="&#xfc;" horiz-adv-x="541" 
d="M68 174v356h30v-346c0 -111 57 -171 161 -171c100 0 174 72 174 171v346h30v-530h-30v87h-2c-32 -64 -97 -102 -176 -102c-117 0 -187 70 -187 189zM151 580v67h68v-67h-68zM311 580v67h68v-67h-68z" />
    <glyph glyph-name="uni01D8" unicode="&#x1d8;" horiz-adv-x="541" 
d="M68 174v356h30v-346c0 -111 57 -171 161 -171c100 0 174 72 174 171v346h30v-530h-30v87h-2c-32 -64 -97 -102 -176 -102c-117 0 -187 70 -187 189zM151 580v67h68v-67h-68zM311 580v67h68v-67h-68zM240 687l62 101h60l-88 -101h-34z" />
    <glyph glyph-name="uni01DA" unicode="&#x1da;" horiz-adv-x="541" 
d="M68 174v356h30v-346c0 -111 57 -171 161 -171c100 0 174 72 174 171v346h30v-530h-30v87h-2c-32 -64 -97 -102 -176 -102c-117 0 -187 70 -187 189zM151 580v67h68v-67h-68zM311 580v67h68v-67h-68zM334 780l23 -18l-70 -85h-45l-69 85l23 18l69 -83z" />
    <glyph glyph-name="uni01DC" unicode="&#x1dc;" horiz-adv-x="541" 
d="M68 174v356h30v-346c0 -111 57 -171 161 -171c100 0 174 72 174 171v346h30v-530h-30v87h-2c-32 -64 -97 -102 -176 -102c-117 0 -187 70 -187 189zM151 580v67h68v-67h-68zM311 580v67h68v-67h-68zM256 687l-87 101h59l63 -101h-35z" />
    <glyph glyph-name="uni01D6" unicode="&#x1d6;" horiz-adv-x="541" 
d="M68 174v356h30v-346c0 -111 57 -171 161 -171c100 0 174 72 174 171v346h30v-530h-30v87h-2c-32 -64 -97 -102 -176 -102c-117 0 -187 70 -187 189zM151 580v67h68v-67h-68zM311 580v67h68v-67h-68zM149 687v27h231v-27h-231z" />
    <glyph glyph-name="uni1EE5" unicode="&#x1ee5;" horiz-adv-x="541" 
d="M68 174v356h30v-346c0 -111 57 -171 161 -171c100 0 174 72 174 171v346h30v-530h-30v87h-2c-32 -64 -97 -102 -176 -102c-117 0 -187 70 -187 189zM221 -131v67h68v-67h-68z" />
    <glyph glyph-name="ugrave" unicode="&#xf9;" horiz-adv-x="541" 
d="M68 174v356h30v-346c0 -111 57 -171 161 -171c100 0 174 72 174 171v346h30v-530h-30v87h-2c-32 -64 -97 -102 -176 -102c-117 0 -187 70 -187 189zM256 590l-87 101h59l63 -101h-35z" />
    <glyph glyph-name="uhungarumlaut" unicode="&#x171;" horiz-adv-x="541" 
d="M68 174v356h30v-346c0 -111 57 -171 161 -171c100 0 174 72 174 171v346h30v-530h-30v87h-2c-32 -64 -97 -102 -176 -102c-117 0 -187 70 -187 189zM179 590l62 101h60l-88 -101h-34zM289 590l63 101h59l-88 -101h-34z" />
    <glyph glyph-name="umacron" unicode="&#x16b;" horiz-adv-x="541" 
d="M68 174v356h30v-346c0 -111 57 -171 161 -171c100 0 174 72 174 171v346h30v-530h-30v87h-2c-32 -64 -97 -102 -176 -102c-117 0 -187 70 -187 189zM149 590v27h231v-27h-231z" />
    <glyph glyph-name="uogonek" unicode="&#x173;" horiz-adv-x="541" 
d="M68 174v356h30v-346c0 -111 57 -171 161 -171c100 0 174 72 174 171v346h30v-530h-30v87h-2c-32 -64 -97 -102 -176 -102c-117 0 -187 70 -187 189zM345 -110c0 43 40 88 100 121l17 -11c-59 -34 -88 -70 -88 -107c0 -27 15 -40 45 -40c21 0 39 7 60 22l14 -24
c-23 -17 -48 -26 -75 -26c-49 0 -73 22 -73 65z" />
    <glyph glyph-name="uring" unicode="&#x16f;" horiz-adv-x="541" 
d="M68 174v356h30v-346c0 -111 57 -171 161 -171c100 0 174 72 174 171v346h30v-530h-30v87h-2c-32 -64 -97 -102 -176 -102c-117 0 -187 70 -187 189zM164 614c0 57 43 99 102 99c60 0 102 -42 102 -99s-42 -99 -102 -99c-59 0 -102 42 -102 99zM342 614
c0 44 -32 76 -76 76s-76 -32 -76 -76s32 -76 76 -76s76 32 76 76z" />
    <glyph glyph-name="utilde" unicode="&#x169;" horiz-adv-x="541" 
d="M68 174v356h30v-346c0 -111 57 -171 161 -171c100 0 174 72 174 171v346h30v-530h-30v87h-2c-32 -64 -97 -102 -176 -102c-117 0 -187 70 -187 189zM260 609c-23 13 -38 21 -55 21c-21 0 -34 -13 -37 -40h-21c3 43 25 68 60 68c20 0 38 -8 63 -23s38 -21 55 -21
c22 0 34 13 37 39h21c-3 -43 -24 -68 -59 -68c-21 0 -40 9 -64 24z" />
    <glyph glyph-name="v" unicode="v" horiz-adv-x="490" 
d="M232 0l-222 530h33l201 -486h2l201 486h33l-223 -530h-25z" />
    <glyph glyph-name="w" unicode="w" horiz-adv-x="691" 
d="M154 0l-125 530h31l112 -481h2l156 481h32l156 -481h2l112 481h30l-124 -530h-31l-160 490h-2l-160 -490h-31z" />
    <glyph glyph-name="wacute" unicode="&#x1e83;" horiz-adv-x="691" 
d="M154 0l-125 530h31l112 -481h2l156 481h32l156 -481h2l112 481h30l-124 -530h-31l-160 490h-2l-160 -490h-31zM321 590l62 101h60l-88 -101h-34z" />
    <glyph glyph-name="wcircumflex" unicode="&#x175;" horiz-adv-x="691" 
d="M154 0l-125 530h31l112 -481h2l156 481h32l156 -481h2l112 481h30l-124 -530h-31l-160 490h-2l-160 -490h-31zM438 588l-23 -18l-69 84l-69 -84l-23 18l69 85h45z" />
    <glyph glyph-name="wdieresis" unicode="&#x1e85;" horiz-adv-x="691" 
d="M154 0l-125 530h31l112 -481h2l156 481h32l156 -481h2l112 481h30l-124 -530h-31l-160 490h-2l-160 -490h-31zM232 580v67h68v-67h-68zM392 580v67h68v-67h-68z" />
    <glyph glyph-name="wgrave" unicode="&#x1e81;" horiz-adv-x="691" 
d="M154 0l-125 530h31l112 -481h2l156 481h32l156 -481h2l112 481h30l-124 -530h-31l-160 490h-2l-160 -490h-31zM337 590l-87 101h59l63 -101h-35z" />
    <glyph glyph-name="x" unicode="x" horiz-adv-x="418" 
d="M9 0l181 270l-175 260h35l157 -238h2l159 238h35l-176 -260l182 -270h-35l-165 248h-2l-163 -248h-35z" />
    <glyph glyph-name="y" unicode="y" horiz-adv-x="466" 
d="M103 -225l115 269l-208 486h33l189 -450h2l189 450h33l-322 -755h-31z" />
    <glyph glyph-name="yacute" unicode="&#xfd;" horiz-adv-x="466" 
d="M103 -225l115 269l-208 486h33l189 -450h2l189 450h33l-322 -755h-31zM208 590l62 101h60l-88 -101h-34z" />
    <glyph glyph-name="ycircumflex" unicode="&#x177;" horiz-adv-x="466" 
d="M103 -225l115 269l-208 486h33l189 -450h2l189 450h33l-322 -755h-31zM325 588l-23 -18l-69 84l-69 -84l-23 18l69 85h45z" />
    <glyph glyph-name="ydieresis" unicode="&#xff;" horiz-adv-x="466" 
d="M103 -225l115 269l-208 486h33l189 -450h2l189 450h33l-322 -755h-31zM119 580v67h68v-67h-68zM279 580v67h68v-67h-68z" />
    <glyph glyph-name="uni1EF5" unicode="&#x1ef5;" horiz-adv-x="466" 
d="M103 -225l115 269l-208 486h33l189 -450h2l189 450h33l-322 -755h-31zM266 -116v67h68v-67h-68z" />
    <glyph glyph-name="ygrave" unicode="&#x1ef3;" horiz-adv-x="466" 
d="M103 -225l115 269l-208 486h33l189 -450h2l189 450h33l-322 -755h-31zM224 590l-87 101h59l63 -101h-35z" />
    <glyph glyph-name="uni1EF9" unicode="&#x1ef9;" horiz-adv-x="466" 
d="M103 -225l115 269l-208 486h33l189 -450h2l189 450h33l-322 -755h-31zM228 609c-23 13 -38 21 -55 21c-21 0 -34 -13 -37 -40h-21c3 43 25 68 60 68c20 0 38 -8 63 -23s38 -21 55 -21c22 0 34 13 37 39h21c-3 -43 -24 -68 -59 -68c-21 0 -40 9 -64 24z" />
    <glyph glyph-name="z" unicode="z" horiz-adv-x="474" 
d="M26 0v25l382 475v2h-358v28h397v-25l-382 -475v-2h379v-28h-418z" />
    <glyph glyph-name="zacute" unicode="&#x17a;" horiz-adv-x="474" 
d="M26 0v25l382 475v2h-358v28h397v-25l-382 -475v-2h379v-28h-418zM213 590l62 101h60l-88 -101h-34z" />
    <glyph glyph-name="zcaron" unicode="&#x17e;" horiz-adv-x="474" 
d="M26 0v25l382 475v2h-358v28h397v-25l-382 -475v-2h379v-28h-418zM307 683l23 -18l-70 -85h-45l-69 85l23 18l69 -83z" />
    <glyph glyph-name="zdotaccent" unicode="&#x17c;" horiz-adv-x="474" 
d="M26 0v25l382 475v2h-358v28h397v-25l-382 -475v-2h379v-28h-418zM210 626v55h57v-55h-57z" />
    <glyph glyph-name="uni1E93" unicode="&#x1e93;" horiz-adv-x="474" 
d="M26 0v25l382 475v2h-358v28h397v-25l-382 -475v-2h379v-28h-418zM201 -116v67h68v-67h-68z" />
    <glyph glyph-name="A.ordn" horiz-adv-x="263" 
d="M20 492c0 47 30 72 107 89c57 13 76 27 76 51c0 35 -25 53 -70 53c-48 0 -80 -28 -85 -73l-25 4c5 55 50 91 110 91c59 0 96 -31 96 -80v-203h-24v38h-1c-16 -27 -54 -45 -95 -45c-55 0 -89 28 -89 75zM204 513v83h-1c-8 -16 -28 -24 -73 -36c-61 -15 -85 -34 -85 -67
s25 -53 66 -53c53 0 93 32 93 73z" />
    <glyph glyph-name="B.ccmp" horiz-adv-x="299" 
d="M280 562c0 -87 -51 -145 -130 -145c-36 0 -72 17 -89 42h-1v-35h-26v380h26v-139h1c20 27 53 42 89 42c79 0 130 -58 130 -145zM254 562c0 75 -42 121 -106 121c-47 0 -88 -35 -88 -71v-100c0 -36 41 -71 88 -71c64 0 106 48 106 121z" />
    <glyph glyph-name="C.ccmp" horiz-adv-x="290" 
d="M19 562c0 85 55 145 130 145c61 0 112 -39 121 -100l-25 -5c-11 53 -47 81 -96 81c-60 0 -104 -52 -104 -121s44 -121 104 -121c49 0 85 28 96 81l25 -5c-9 -61 -60 -100 -121 -100c-75 0 -130 60 -130 145z" />
    <glyph glyph-name="D.ccmp" horiz-adv-x="299" 
d="M238 665h1v139h26v-380h-26v35h-1c-17 -25 -53 -42 -89 -42c-79 0 -130 58 -130 145s51 145 130 145c36 0 69 -15 89 -42zM239 512v100c0 36 -41 71 -88 71c-64 0 -106 -46 -106 -121c0 -73 42 -121 106 -121c47 0 88 35 88 71z" />
    <glyph glyph-name="E.ccmp" horiz-adv-x="294" 
d="M275 566v-12h-229c1 -72 39 -113 102 -113c47 0 76 19 96 63l22 -13c-22 -49 -62 -74 -119 -74c-79 0 -128 56 -128 145c0 84 53 145 128 145c77 0 128 -56 128 -141zM46 576h202c0 65 -40 107 -101 107c-57 0 -97 -43 -101 -107z" />
    <glyph glyph-name="F.ccmp" horiz-adv-x="159" 
d="M52 424v253h-43v23h43v33c0 37 19 55 58 55h35v-22h-34c-24 0 -34 -11 -34 -34v-32h73v-23h-73v-253h-25z" />
    <glyph glyph-name="G.ccmp" horiz-adv-x="299" 
d="M42 371l22 11c17 -41 46 -62 89 -62c53 0 86 36 86 92v47h-1c-17 -25 -52 -42 -91 -42c-76 0 -128 58 -128 145c0 85 53 145 130 145c37 0 73 -15 90 -42h1v35h25v-287c0 -69 -44 -117 -112 -117c-52 0 -92 27 -111 75zM239 508v103c0 40 -39 72 -88 72
c-64 0 -106 -49 -106 -122c0 -72 41 -120 105 -120c48 0 89 31 89 67z" />
    <glyph glyph-name="H.ccmp" horiz-adv-x="290" 
d="M34 424v380h26v-146h1c19 31 53 49 93 49c63 0 107 -41 107 -105v-178h-26v169c0 55 -29 91 -84 91s-91 -38 -91 -90v-170h-26z" />
    <glyph glyph-name="I.ordn" horiz-adv-x="108" 
d="M34 747v38h39v-38h-39zM41 424v276h26v-276h-26z" />
    <glyph glyph-name="J.ordn" horiz-adv-x="108" 
d="M34 747v38h40v-38h-40zM-12 344v23h22c23 0 32 9 32 30v303h25v-304c0 -37 -16 -52 -56 -52h-23z" />
    <glyph glyph-name="K.ccmp" horiz-adv-x="239" 
d="M34 424v380h26v-248h1l133 144h36l-104 -109l108 -167h-30l-94 148h-1l-49 -51v-97h-26z" />
    <glyph glyph-name="L.ccmp" horiz-adv-x="94" 
d="M34 424v380h26v-380h-26z" />
    <glyph glyph-name="M.ccmp" horiz-adv-x="432" 
d="M34 424v276h26v-34h1c16 25 45 41 77 41c40 0 73 -20 84 -51h1c16 31 49 51 86 51c55 0 94 -37 94 -90v-193h-26v189c0 43 -29 70 -70 70c-45 0 -77 -30 -77 -74v-185h-24v189c0 41 -28 70 -71 70c-44 0 -75 -31 -75 -75v-184h-26z" />
    <glyph glyph-name="N.ccmp" horiz-adv-x="290" 
d="M34 424v276h26v-41h1c19 29 54 48 93 48c63 0 107 -41 107 -105v-178h-26v169c0 55 -29 90 -84 90s-91 -37 -91 -89v-170h-26z" />
    <glyph glyph-name="O.ordn" horiz-adv-x="303" 
d="M19 562c0 85 56 145 133 145s132 -60 132 -145s-55 -145 -132 -145s-133 60 -133 145zM258 562c0 72 -43 121 -106 121c-64 0 -107 -49 -107 -121s43 -121 107 -121c63 0 106 49 106 121z" />
    <glyph glyph-name="P.ccmp" horiz-adv-x="300" 
d="M280 562c0 -87 -52 -145 -129 -145c-36 0 -73 16 -90 43h-1v-157h-26v397h26v-36h1c17 27 53 43 90 43c77 0 129 -58 129 -145zM255 562c0 75 -42 121 -106 121c-48 0 -89 -35 -89 -71v-100c0 -36 41 -71 89 -71c64 0 106 48 106 121z" />
    <glyph glyph-name="Q.ccmp" horiz-adv-x="300" 
d="M239 664h1v36h26v-397h-26v157h-1c-17 -27 -54 -43 -90 -43c-77 0 -129 58 -129 145s52 145 129 145c37 0 73 -16 90 -43zM240 512v100c0 36 -41 71 -89 71c-64 0 -106 -46 -106 -121c0 -73 42 -121 106 -121c48 0 89 35 89 71z" />
    <glyph glyph-name="R.ccmp" horiz-adv-x="152" 
d="M148 701l-5 -25c-8 2 -16 3 -25 3c-37 0 -58 -29 -58 -78v-177h-26v276h25v-24h1c11 16 35 28 59 28c11 0 21 -1 29 -3z" />
    <glyph glyph-name="S.ccmp" horiz-adv-x="280" 
d="M29 518l25 5c7 -55 39 -83 95 -83c48 0 76 21 76 58c0 29 -21 43 -86 60c-73 17 -99 37 -99 76c0 43 39 73 94 73c57 0 97 -29 108 -80l-25 -5c-8 40 -37 62 -82 62c-41 0 -69 -21 -69 -50c0 -24 19 -36 80 -53c79 -23 105 -43 105 -82c0 -51 -39 -82 -102 -82
c-69 0 -112 36 -120 101z" />
    <glyph glyph-name="T.ccmp" horiz-adv-x="156" 
d="M147 676h-72v-198c0 -21 8 -29 31 -29h32v-25h-33c-39 0 -56 17 -56 53v199h-40v24h40v59h26v-59h72v-24z" />
    <glyph glyph-name="U.ccmp" horiz-adv-x="282" 
d="M222 700h26v-276h-25v42h-1c-17 -31 -52 -49 -92 -49c-67 0 -101 36 -101 107v176h26v-172c0 -60 25 -87 78 -87s89 37 89 90v169z" />
    <glyph glyph-name="V.ccmp" horiz-adv-x="281" 
d="M130 424l-116 276h29l98 -239h1l97 239h28l-115 -276h-22z" />
    <glyph glyph-name="W.ccmp" horiz-adv-x="393" 
d="M83 424l-69 276h26l59 -234h1l82 234h28l83 -234h1l59 234h26l-69 -276h-26l-87 244h-1l-88 -244h-25z" />
    <glyph glyph-name="X.ccmp" horiz-adv-x="265" 
d="M14 424l103 142l-98 134h31l82 -117h1l82 117h31l-98 -134l103 -142h-32l-86 122h-1l-86 -122h-32z" />
    <glyph glyph-name="Y.ccmp" horiz-adv-x="272" 
d="M229 700h29l-172 -397h-28l66 153l-110 244h30l93 -213h1z" />
    <glyph glyph-name="Z.ccmp" horiz-adv-x="267" 
d="M14 424v22l202 229v1h-194v24h229v-22l-202 -229v-1h204v-24h-239z" />
    <glyph glyph-name="a.salt" horiz-adv-x="568" 
d="M461 530h29v-530h-29v71h-2c-32 -51 -99 -86 -168 -86c-138 0 -233 111 -233 280s95 280 233 280c69 0 136 -35 168 -86h2v71zM460 152v226c0 70 -76 139 -169 139c-120 0 -203 -99 -203 -252s83 -252 203 -252c93 0 169 69 169 139z" />
    <glyph glyph-name="aacute.salt" horiz-adv-x="568" 
d="M461 530h29v-530h-29v71h-2c-32 -51 -99 -86 -168 -86c-138 0 -233 111 -233 280s95 280 233 280c69 0 136 -35 168 -86h2v71zM460 152v226c0 70 -76 139 -169 139c-120 0 -203 -99 -203 -252s83 -252 203 -252c93 0 169 69 169 139zM268 605l62 101h60l-88 -101h-34z
" />
    <glyph glyph-name="abreve.salt" horiz-adv-x="568" 
d="M461 530h29v-530h-29v71h-2c-32 -51 -99 -86 -168 -86c-138 0 -233 111 -233 280s95 280 233 280c69 0 136 -35 168 -86h2v71zM460 152v226c0 70 -76 139 -169 139c-120 0 -203 -99 -203 -252s83 -252 203 -252c93 0 169 69 169 139zM194 691h23c7 -39 32 -62 76 -62
c43 0 69 23 76 62h22c-3 -57 -39 -96 -98 -96s-96 39 -99 96z" />
    <glyph glyph-name="uni01CE.salt" horiz-adv-x="568" 
d="M461 530h29v-530h-29v71h-2c-32 -51 -99 -86 -168 -86c-138 0 -233 111 -233 280s95 280 233 280c69 0 136 -35 168 -86h2v71zM460 152v226c0 70 -76 139 -169 139c-120 0 -203 -99 -203 -252s83 -252 203 -252c93 0 169 69 169 139zM362 698l23 -18l-70 -85h-45l-69 85
l23 18l69 -83z" />
    <glyph glyph-name="acircumflex.salt" horiz-adv-x="568" 
d="M461 530h29v-530h-29v71h-2c-32 -51 -99 -86 -168 -86c-138 0 -233 111 -233 280s95 280 233 280c69 0 136 -35 168 -86h2v71zM460 152v226c0 70 -76 139 -169 139c-120 0 -203 -99 -203 -252s83 -252 203 -252c93 0 169 69 169 139zM385 603l-23 -18l-69 84l-69 -84
l-23 18l69 85h45z" />
    <glyph glyph-name="uni1EAD.salt" horiz-adv-x="568" 
d="M461 530h29v-530h-29v71h-2c-32 -51 -99 -86 -168 -86c-138 0 -233 111 -233 280s95 280 233 280c69 0 136 -35 168 -86h2v71zM460 152v226c0 70 -76 139 -169 139c-120 0 -203 -99 -203 -252s83 -252 203 -252c93 0 169 69 169 139zM385 603l-23 -18l-69 84l-69 -84
l-23 18l69 85h45zM259 -131v67h68v-67h-68z" />
    <glyph glyph-name="adieresis.salt" horiz-adv-x="568" 
d="M461 530h29v-530h-29v71h-2c-32 -51 -99 -86 -168 -86c-138 0 -233 111 -233 280s95 280 233 280c69 0 136 -35 168 -86h2v71zM460 152v226c0 70 -76 139 -169 139c-120 0 -203 -99 -203 -252s83 -252 203 -252c93 0 169 69 169 139zM179 595v67h68v-67h-68zM339 595v67
h68v-67h-68z" />
    <glyph glyph-name="uni01DF.salt" horiz-adv-x="568" 
d="M461 530h29v-530h-29v71h-2c-32 -51 -99 -86 -168 -86c-138 0 -233 111 -233 280s95 280 233 280c69 0 136 -35 168 -86h2v71zM460 152v226c0 70 -76 139 -169 139c-120 0 -203 -99 -203 -252s83 -252 203 -252c93 0 169 69 169 139zM179 595v67h68v-67h-68zM339 595v67
h68v-67h-68zM177 702v27h231v-27h-231z" />
    <glyph glyph-name="uni1EA1.salt" horiz-adv-x="568" 
d="M461 530h29v-530h-29v71h-2c-32 -51 -99 -86 -168 -86c-138 0 -233 111 -233 280s95 280 233 280c69 0 136 -35 168 -86h2v71zM460 152v226c0 70 -76 139 -169 139c-120 0 -203 -99 -203 -252s83 -252 203 -252c93 0 169 69 169 139zM259 -131v67h68v-67h-68z" />
    <glyph glyph-name="agrave.salt" horiz-adv-x="568" 
d="M461 530h29v-530h-29v71h-2c-32 -51 -99 -86 -168 -86c-138 0 -233 111 -233 280s95 280 233 280c69 0 136 -35 168 -86h2v71zM460 152v226c0 70 -76 139 -169 139c-120 0 -203 -99 -203 -252s83 -252 203 -252c93 0 169 69 169 139zM284 605l-87 101h59l63 -101h-35z
" />
    <glyph glyph-name="amacron.salt" horiz-adv-x="568" 
d="M461 530h29v-530h-29v71h-2c-32 -51 -99 -86 -168 -86c-138 0 -233 111 -233 280s95 280 233 280c69 0 136 -35 168 -86h2v71zM460 152v226c0 70 -76 139 -169 139c-120 0 -203 -99 -203 -252s83 -252 203 -252c93 0 169 69 169 139zM177 605v27h231v-27h-231z" />
    <glyph glyph-name="aogonek.salt" horiz-adv-x="568" 
d="M461 530h29v-530h-29v71h-2c-32 -51 -99 -86 -168 -86c-138 0 -233 111 -233 280s95 280 233 280c69 0 136 -35 168 -86h2v71zM460 152v226c0 70 -76 139 -169 139c-120 0 -203 -99 -203 -252s83 -252 203 -252c93 0 169 69 169 139zM372 -110c0 43 40 88 100 121l17 -11
c-59 -34 -88 -70 -88 -107c0 -27 15 -40 45 -40c21 0 39 7 60 22l14 -24c-23 -17 -48 -26 -75 -26c-49 0 -73 22 -73 65z" />
    <glyph glyph-name="aring.salt" horiz-adv-x="576" 
d="M196 674c0 53 40 93 96 93s96 -40 96 -93c0 -55 -40 -94 -96 -94s-96 39 -96 94zM364 674c0 41 -31 71 -72 71s-72 -30 -72 -71s31 -72 72 -72s72 31 72 72zM461 530h29v-530h-29v71h-2c-32 -51 -99 -86 -168 -86c-138 0 -233 111 -233 280s95 280 233 280
c69 0 136 -35 168 -86h2v71zM460 152v226c0 70 -76 139 -169 139c-120 0 -203 -99 -203 -252s83 -252 203 -252c93 0 169 69 169 139z" />
    <glyph glyph-name="aringacute.salt" horiz-adv-x="568" 
d="M196 674c0 47 31 84 78 92l54 87h60l-76 -88c45 -8 76 -44 76 -91c0 -55 -40 -94 -96 -94s-96 39 -96 94zM220 674c0 -41 31 -72 72 -72s72 31 72 72s-31 71 -72 71s-72 -30 -72 -71zM461 530h29v-530h-29v71h-2c-32 -51 -99 -86 -168 -86c-138 0 -233 111 -233 280
s95 280 233 280c69 0 136 -35 168 -86h2v71zM460 152v226c0 70 -76 139 -169 139c-120 0 -203 -99 -203 -252s83 -252 203 -252c93 0 169 69 169 139z" />
    <glyph glyph-name="atilde.salt" horiz-adv-x="568" 
d="M461 530h29v-530h-29v71h-2c-32 -51 -99 -86 -168 -86c-138 0 -233 111 -233 280s95 280 233 280c69 0 136 -35 168 -86h2v71zM460 152v226c0 70 -76 139 -169 139c-120 0 -203 -99 -203 -252s83 -252 203 -252c93 0 169 69 169 139zM288 624c-23 13 -38 21 -55 21
c-21 0 -34 -13 -37 -40h-21c3 43 25 68 60 68c20 0 38 -8 63 -23s38 -21 55 -21c22 0 34 13 37 39h21c-3 -43 -24 -68 -59 -68c-21 0 -40 9 -64 24z" />
    <glyph glyph-name="aring.ss02" horiz-adv-x="508" 
d="M58 128c0 87 53 133 196 169c112 29 150 56 150 108c0 71 -51 112 -140 112c-95 0 -160 -55 -171 -144l-30 5c13 101 91 167 202 167c107 0 171 -54 171 -145v-400h-29v87h-2c-13 -29 -36 -54 -71 -73s-72 -29 -112 -29c-103 0 -164 54 -164 143zM406 166v180h-2
c-16 -33 -53 -51 -142 -74c-127 -33 -174 -72 -174 -144s50 -115 135 -115c101 0 183 69 183 153zM163 621c0 57 43 99 102 99c60 0 102 -42 102 -99s-42 -99 -102 -99c-59 0 -102 42 -102 99zM341 621c0 44 -32 76 -76 76s-76 -32 -76 -76s32 -76 76 -76s76 32 76 76z" />
    <glyph glyph-name="aringacute.ss02" horiz-adv-x="508" 
d="M58 128c0 87 53 133 196 169c112 29 150 56 150 108c0 71 -51 112 -140 112c-95 0 -160 -55 -171 -144l-30 5c13 101 91 167 202 167c107 0 171 -54 171 -145v-400h-29v87h-2c-13 -29 -36 -54 -71 -73s-72 -29 -112 -29c-103 0 -164 54 -164 143zM406 166v180h-2
c-16 -33 -53 -51 -142 -74c-127 -33 -174 -72 -174 -144s50 -115 135 -115c101 0 183 69 183 153zM163 621c0 57 43 99 102 99c60 0 102 -42 102 -99s-42 -99 -102 -99c-59 0 -102 42 -102 99zM341 621c0 44 -32 76 -76 76s-76 -32 -76 -76s32 -76 76 -76s76 32 76 76z
M240 710l62 101h60l-88 -101h-34z" />
    <glyph glyph-name="f.ss03" horiz-adv-x="273" 
d="M111 0v502h-87v28h87v65c0 61 35 96 98 96h63v-28h-61c-49 0 -70 -22 -70 -71v-62h109v-28h-109v-502h-30z" />
    <glyph glyph-name="j.ss03" horiz-adv-x="185" 
d="M64 626v55h57v-55h-57zM79 -225v755h30v-755h-30z" />
    <glyph glyph-name="t.ss03" horiz-adv-x="281" 
d="M255 503h-126v-420c0 -40 16 -55 57 -55h41v-28h-41c-61 0 -87 24 -87 83v420h-75v27h75v110h30v-110h126v-27z" />
    <glyph glyph-name="ordfeminine" unicode="&#xaa;" horiz-adv-x="263" 
d="M20 492c0 47 30 72 107 89c57 13 76 27 76 51c0 35 -25 53 -70 53c-48 0 -80 -28 -85 -73l-25 4c5 55 50 91 110 91c59 0 96 -31 96 -80v-203h-24v38h-1c-16 -27 -54 -45 -95 -45c-55 0 -89 28 -89 75zM204 513v83h-1c-8 -16 -28 -24 -73 -36c-61 -15 -85 -34 -85 -67
s25 -53 66 -53c53 0 93 32 93 73z" />
    <glyph glyph-name="ordmasculine" unicode="&#xba;" horiz-adv-x="303" 
d="M19 562c0 85 56 145 133 145s132 -60 132 -145s-55 -145 -132 -145s-133 60 -133 145zM258 562c0 72 -43 121 -106 121c-64 0 -107 -49 -107 -121s43 -121 107 -121c63 0 106 49 106 121z" />
    <glyph glyph-name="uni0394" unicode="&#x394;" horiz-adv-x="569" 
d="M302 700l262 -700h-559l263 700h34zM50 29h470l-234 630h-2z" />
    <glyph glyph-name="uni03A9" unicode="&#x3a9;" horiz-adv-x="685" 
d="M451 30v-2h180v-28h-241v30c122 23 216 169 214 330c0 194 -105 325 -261 325c-157 0 -262 -131 -262 -325c-2 -161 92 -307 214 -330v-30h-241v28h181v2c-107 38 -186 178 -186 330c0 210 120 355 294 355c173 0 293 -145 293 -355c0 -152 -78 -290 -185 -330z" />
    <glyph glyph-name="uni03BC" unicode="&#x3bc;" horiz-adv-x="551" 
d="M443 530h30v-530h-30v87h-2c-31 -64 -95 -102 -174 -102c-77 0 -129 29 -157 87h-2v-297h-30v755h30v-346c0 -111 57 -171 161 -171c100 0 174 72 174 171v346z" />
    <glyph glyph-name="pi" unicode="&#x3c0;" horiz-adv-x="635" 
d="M548 28h41v-28h-43c-59 0 -85 25 -85 84v418h-302v-502h-30v502h-105v28h562v-28h-95v-418c0 -40 16 -56 57 -56z" />
    <glyph glyph-name="zero" unicode="0" horiz-adv-x="637" 
d="M49 336c0 215 108 350 270 350c161 0 269 -135 269 -350s-108 -350 -269 -350c-162 0 -270 135 -270 350zM558 336c0 198 -97 322 -239 322c-143 0 -240 -124 -240 -322s97 -322 240 -322c142 0 239 124 239 322z" />
    <glyph glyph-name="one" unicode="1" horiz-adv-x="344" 
d="M201 0v638l-166 -107v32l169 109h27v-672h-30z" />
    <glyph glyph-name="two" unicode="2" horiz-adv-x="602" 
d="M105 28h422v-28h-452v34c0 73 10 112 27 143c13 22 33 42 60 60s77 44 148 78c143 68 190 115 190 193c0 91 -74 150 -183 150c-125 0 -210 -75 -215 -192l-30 2c6 131 106 218 245 218c125 0 213 -74 213 -178c0 -89 -51 -144 -206 -216c-145 -68 -171 -87 -195 -127
c-17 -28 -23 -57 -24 -137z" />
    <glyph glyph-name="three" unicode="3" horiz-adv-x="594" 
d="M62 215l30 3c3 -135 76 -204 207 -204c117 0 193 63 193 166c0 116 -73 170 -216 170h-29v27h29c117 0 193 58 193 145c0 83 -65 136 -168 136c-107 0 -177 -56 -192 -153l-30 4c17 109 102 177 222 177c58 0 105 -15 142 -45c37 -29 56 -69 56 -118
c0 -79 -45 -131 -135 -156v-2c99 -19 158 -80 158 -185c0 -119 -87 -194 -223 -194c-148 0 -234 82 -237 229z" />
    <glyph glyph-name="four" unicode="4" horiz-adv-x="564" 
d="M390 0v143h-372v26l355 503h47v-501h98v-28h-98v-143h-30zM52 171h339v477h-2z" />
    <glyph glyph-name="five" unicode="5" horiz-adv-x="574" 
d="M48 171l29 6c17 -104 93 -163 212 -163c126 0 212 85 212 211c0 124 -81 205 -212 205c-81 0 -152 -35 -197 -95l-25 6l69 331h341v-28h-318l-55 -261l2 -1c45 47 111 75 184 75c142 0 241 -92 241 -231c0 -144 -99 -240 -242 -240c-133 0 -221 69 -241 185z" />
    <glyph glyph-name="six" unicode="6" horiz-adv-x="593" 
d="M553 220c0 -145 -93 -234 -231 -234c-171 0 -273 128 -273 338c-3 215 120 364 275 362c112 0 195 -64 216 -172l-29 -6c-23 97 -90 150 -187 150c-140 0 -244 -132 -244 -334c0 -16 1 -35 3 -56h3c20 107 120 180 231 180c141 0 236 -88 236 -228zM523 220
c0 124 -82 201 -207 201c-111 0 -209 -86 -209 -201c0 -121 85 -206 215 -206c121 0 201 77 201 206z" />
    <glyph glyph-name="seven" unicode="7" horiz-adv-x="507" 
d="M114 0l313 642v2h-404v28h437v-27l-314 -645h-32z" />
    <glyph glyph-name="eight" unicode="8" horiz-adv-x="566" 
d="M33 178c0 88 63 156 163 181v2c-82 26 -123 77 -123 153c0 96 89 172 210 172s210 -76 210 -172c0 -75 -41 -126 -123 -153v-2c100 -25 163 -93 163 -181c0 -115 -100 -193 -250 -193s-250 78 -250 193zM463 513c0 82 -75 145 -180 145s-180 -63 -180 -145
c0 -87 69 -140 180 -140s180 55 180 140zM502 179c0 95 -92 166 -219 166c-128 0 -219 -70 -219 -166c0 -100 86 -165 219 -165c132 0 219 65 219 165z" />
    <glyph glyph-name="nine" unicode="9" horiz-adv-x="578" 
d="M529 369c0 -259 -82 -384 -247 -384c-111 0 -190 63 -210 170l29 8c19 -96 84 -149 181 -149c144 0 216 114 216 342c0 28 -1 47 -2 57h-2c-13 -107 -99 -175 -223 -175c-143 0 -232 86 -232 225c0 132 96 223 233 223c164 0 257 -114 257 -317zM476 462
c0 59 -19 106 -56 141c-37 36 -87 54 -148 54c-121 0 -202 -77 -202 -194c0 -121 77 -197 202 -197s204 77 204 196z" />
    <glyph glyph-name="zero.ccmp" horiz-adv-x="637" 
d="M49 350c0 223 110 365 270 365c161 0 269 -142 269 -365s-108 -365 -269 -365c-160 0 -270 142 -270 365zM557 350c0 206 -95 335 -238 335s-238 -129 -238 -335s95 -335 238 -335s238 129 238 335z" />
    <glyph glyph-name="one.ccmp" horiz-adv-x="345" 
d="M201 0v664l-166 -111v33l169 114h29v-700h-32z" />
    <glyph glyph-name="two.ccmp" horiz-adv-x="603" 
d="M107 30h420v-30h-452v35c0 77 9 116 28 149c13 23 33 45 60 64s76 46 146 80c145 71 191 120 191 201c0 93 -74 156 -183 156c-124 0 -207 -78 -214 -199l-31 2c6 137 106 227 245 227c126 0 214 -77 214 -186c0 -93 -51 -150 -206 -226c-145 -70 -171 -89 -195 -131
c-8 -15 -14 -32 -17 -51s-5 -49 -6 -91z" />
    <glyph glyph-name="three.ccmp" horiz-adv-x="595" 
d="M62 224l31 3c4 -140 77 -212 206 -212c117 0 193 65 193 172c0 121 -72 178 -215 178h-30v29h30c116 0 192 59 192 150c0 85 -65 141 -168 141c-105 0 -175 -58 -191 -159l-31 4c17 115 102 185 222 185c59 0 107 -16 144 -47s56 -72 56 -123c0 -82 -45 -136 -134 -163
v-2c97 -19 157 -84 157 -193c0 -124 -89 -202 -225 -202c-148 0 -233 86 -237 239z" />
    <glyph glyph-name="four.ccmp" horiz-adv-x="565" 
d="M390 0v150h-372v26l354 524h50v-522h96v-28h-96v-150h-32zM53 178h338v497h-2z" />
    <glyph glyph-name="five.ccmp" horiz-adv-x="576" 
d="M48 178l31 6c17 -108 94 -170 210 -170c126 0 212 89 212 220c0 65 -19 116 -57 155s-90 59 -155 59c-80 0 -150 -36 -195 -99l-27 6l70 345h340v-29h-316l-56 -271l2 -1c47 48 113 77 185 77c142 0 241 -97 241 -241c0 -150 -99 -250 -244 -250c-132 0 -221 72 -241 193
z" />
    <glyph glyph-name="six.ccmp" horiz-adv-x="594" 
d="M554 229c0 -151 -94 -244 -232 -244c-171 0 -273 132 -273 353c-3 224 120 380 275 377c113 0 196 -67 217 -179l-30 -7c-21 101 -89 156 -186 156c-140 0 -244 -136 -244 -346c0 -24 0 -43 1 -56h3c22 107 123 183 233 183c141 0 236 -91 236 -237zM523 229
c0 128 -81 208 -205 208c-112 0 -210 -89 -210 -208c0 -124 85 -214 214 -214c121 0 201 81 201 214z" />
    <glyph glyph-name="seven.ccmp" horiz-adv-x="507" 
d="M113 0l312 668v2h-402v30h438v-28l-313 -672h-35z" />
    <glyph glyph-name="eight.ccmp" horiz-adv-x="566" 
d="M33 186c0 92 62 162 162 189v2c-81 27 -122 80 -122 159c0 99 89 179 210 179s210 -80 210 -179c0 -80 -40 -133 -121 -159v-2c99 -27 161 -97 161 -189c0 -121 -100 -201 -250 -201s-250 80 -250 201zM462 535c0 84 -76 151 -179 151c-104 0 -178 -67 -178 -151
c0 -91 69 -145 178 -145c111 0 179 54 179 145zM501 187c0 101 -92 173 -218 173s-218 -72 -218 -173c0 -104 86 -172 218 -172s218 68 218 172z" />
    <glyph glyph-name="nine.ccmp" horiz-adv-x="578" 
d="M529 384c0 -269 -80 -399 -247 -399c-111 0 -191 67 -210 178l30 7c19 -100 84 -155 180 -155c144 0 214 118 214 362c0 12 0 22 -1 30h-2c-21 -93 -101 -158 -222 -158c-143 0 -232 90 -232 233c0 139 96 233 233 233c164 0 257 -119 257 -331zM476 481
c0 61 -19 111 -56 148s-87 56 -148 56s-109 -19 -146 -56s-55 -86 -55 -147c0 -125 77 -204 201 -204c125 0 204 79 204 203z" />
    <glyph glyph-name="zero.tnum" 
d="M56 350c0 224 108 365 269 365c160 0 270 -142 270 -365s-110 -365 -270 -365c-161 0 -269 142 -269 365zM563 350c0 206 -95 335 -238 335s-238 -129 -238 -335s95 -335 238 -335s238 129 238 335z" />
    <glyph glyph-name="one.tnum" 
d="M343 29h167v-29h-370v29h171v635l-166 -111v33l169 114h29v-671z" />
    <glyph glyph-name="two.tnum" 
d="M131 30h420v-30h-452v35c0 77 9 116 28 149c13 23 33 45 60 64s76 46 146 80c145 71 191 120 191 201c0 93 -74 156 -183 156c-124 0 -207 -78 -214 -199l-31 2c6 137 106 227 245 227c126 0 214 -77 214 -186c0 -93 -51 -150 -206 -226c-145 -70 -171 -89 -195 -131
c-8 -15 -14 -32 -17 -51s-5 -49 -6 -91z" />
    <glyph glyph-name="three.tnum" 
d="M94 224l31 3c4 -140 77 -212 206 -212c117 0 193 65 193 172c0 121 -72 178 -215 178h-30v29h30c116 0 192 59 192 150c0 85 -65 141 -168 141c-105 0 -175 -58 -191 -159l-31 4c17 115 102 185 222 185c59 0 107 -16 144 -47s56 -72 56 -123c0 -82 -45 -136 -134 -163
v-2c97 -19 157 -84 157 -193c0 -124 -89 -202 -225 -202c-148 0 -233 86 -237 239z" />
    <glyph glyph-name="four.tnum" 
d="M446 0v150h-372v26l354 524h50v-522h96v-28h-96v-150h-32zM109 178h338v497h-2z" />
    <glyph glyph-name="five.tnum" 
d="M82 178l31 6c17 -108 94 -170 210 -170c126 0 212 89 212 220c0 65 -19 116 -57 155s-90 59 -155 59c-80 0 -150 -36 -195 -99l-27 6l70 345h340v-29h-316l-56 -271l2 -1c47 48 113 77 185 77c142 0 241 -97 241 -241c0 -150 -99 -250 -244 -250c-132 0 -221 72 -241 193
z" />
    <glyph glyph-name="six.tnum" 
d="M578 229c0 -151 -94 -244 -232 -244c-171 0 -273 132 -273 353c-3 224 120 380 275 377c113 0 196 -67 217 -179l-30 -7c-21 101 -89 156 -186 156c-140 0 -244 -136 -244 -346c0 -24 0 -43 1 -56h3c22 107 123 183 233 183c141 0 236 -91 236 -237zM547 229
c0 128 -81 208 -205 208c-112 0 -210 -89 -210 -208c0 -124 85 -214 214 -214c121 0 201 81 201 214z" />
    <glyph glyph-name="seven.tnum" 
d="M196 0l312 668v2h-402v30h438v-28l-313 -672h-35z" />
    <glyph glyph-name="eight.tnum" 
d="M75 186c0 92 62 162 162 189v2c-81 27 -122 80 -122 159c0 99 89 179 210 179s210 -80 210 -179c0 -80 -40 -133 -121 -159v-2c99 -27 161 -97 161 -189c0 -121 -100 -201 -250 -201s-250 80 -250 201zM504 535c0 84 -76 151 -179 151c-104 0 -178 -67 -178 -151
c0 -91 69 -145 178 -145c111 0 179 54 179 145zM543 187c0 101 -92 173 -218 173s-218 -72 -218 -173c0 -104 86 -172 218 -172s218 68 218 172z" />
    <glyph glyph-name="nine.tnum" 
d="M571 384c0 -269 -80 -399 -247 -399c-111 0 -191 67 -210 178l30 7c19 -100 84 -155 180 -155c144 0 214 118 214 362c0 12 0 22 -1 30h-2c-21 -93 -101 -158 -222 -158c-143 0 -232 90 -232 233c0 139 96 233 233 233c164 0 257 -119 257 -331zM518 481
c0 61 -19 111 -56 148s-87 56 -148 56s-109 -19 -146 -56s-55 -86 -55 -147c0 -125 77 -204 201 -204c125 0 204 79 204 203z" />
    <glyph glyph-name="zero.zero" horiz-adv-x="637" 
d="M588 336c0 -215 -108 -350 -269 -350c-162 0 -270 135 -270 350s108 350 270 350c161 0 269 -135 269 -350zM174 69l262 555c-35 23 -74 34 -117 34c-143 0 -240 -124 -240 -322c0 -120 34 -212 95 -267zM559 336c0 123 -37 219 -101 272l-263 -556
c35 -25 77 -38 124 -38c143 0 240 124 240 322z" />
    <glyph glyph-name="zero.ordn" horiz-adv-x="637" 
d="M588 350c0 -223 -108 -365 -269 -365c-160 0 -270 142 -270 365s110 365 270 365c161 0 269 -142 269 -365zM173 73l271 572c-37 27 -78 41 -125 41c-142 0 -239 -129 -239 -336c0 -123 34 -218 93 -277zM557 350c0 124 -33 221 -93 278l-270 -573c35 -27 77 -41 125 -41
c143 0 238 130 238 336z" />
    <glyph glyph-name="zero.tnum_zero" 
d="M594 350c0 -223 -108 -365 -269 -365c-160 0 -270 142 -270 365s110 365 270 365c161 0 269 -142 269 -365zM179 73l271 572c-37 27 -78 41 -125 41c-142 0 -239 -129 -239 -336c0 -123 34 -218 93 -277zM563 350c0 124 -33 221 -93 278l-270 -573c35 -27 77 -41 125 -41
c143 0 238 130 238 336z" />
    <glyph glyph-name="zero.subs" horiz-adv-x="395" 
d="M34 61c0 136 62 219 163 219s164 -83 164 -219s-63 -219 -164 -219c-100 0 -163 83 -163 219zM332 61c0 120 -50 192 -135 192c-84 0 -134 -72 -134 -192s50 -192 134 -192c85 0 135 72 135 192z" />
    <glyph glyph-name="one.subs" horiz-adv-x="240" 
d="M133 -149v388l-104 -65v30l106 67h26v-420h-28z" />
    <glyph glyph-name="two.subs" horiz-adv-x="358" 
d="M66 -122h255v-27h-284v27c0 47 6 70 18 90c9 13 22 26 39 37s46 26 87 45c85 41 114 69 114 116c0 53 -42 88 -107 88c-73 0 -121 -43 -125 -114l-29 2c4 83 66 138 154 138c80 0 136 -47 136 -114c0 -56 -32 -92 -127 -137c-42 -20 -70 -35 -85 -44s-25 -19 -32 -30
c-11 -15 -13 -32 -14 -77z" />
    <glyph glyph-name="three.subs" horiz-adv-x="355" 
d="M29 -14l29 3c1 -80 45 -120 122 -120c69 0 113 37 113 97c0 67 -42 98 -125 98h-22v25h21c68 0 112 33 112 85c0 48 -40 79 -99 79c-63 0 -102 -30 -113 -90l-28 4c13 71 65 113 141 113c73 0 127 -42 127 -105c0 -47 -27 -78 -71 -95v-1c51 -15 85 -51 85 -114
c0 -75 -57 -123 -141 -123c-93 0 -148 52 -151 144z" />
    <glyph glyph-name="four.subs" horiz-adv-x="346" 
d="M240 -149v87h-230v26l212 307h46v-306h59v-27h-59v-87h-28zM42 -35h198v284h-1z" />
    <glyph glyph-name="five.subs" horiz-adv-x="374" 
d="M34 -42l27 7c11 -63 56 -96 125 -96c75 0 125 49 125 122s-49 121 -125 121c-45 0 -86 -21 -115 -56l-25 6l42 209h216v-27h-194l-31 -149l1 -1c29 28 66 42 109 42c89 0 151 -57 151 -144c0 -89 -62 -150 -154 -150c-81 0 -139 44 -152 116z" />
    <glyph glyph-name="six.subs" horiz-adv-x="386" 
d="M352 -11c0 -89 -58 -147 -147 -147c-108 0 -171 78 -171 213c0 132 72 225 173 225c71 0 121 -40 136 -108l-27 -6c-14 58 -50 87 -109 87c-87 0 -144 -77 -144 -197c0 -8 0 -15 1 -22h1c17 57 74 97 141 97c87 0 146 -58 146 -142zM323 -11c0 71 -47 118 -118 118
s-125 -51 -125 -118c0 -71 50 -120 125 -120c72 0 118 47 118 120z" />
    <glyph glyph-name="seven.subs" horiz-adv-x="281" 
d="M54 -149l190 392v1h-244v27h276v-25l-189 -395h-33z" />
    <glyph glyph-name="eight.subs" horiz-adv-x="383" 
d="M34 -36c0 55 38 97 94 113v1c-43 16 -69 47 -69 92c0 65 55 110 132 110c79 0 133 -45 133 -110c0 -45 -27 -76 -70 -92v-1c56 -16 95 -58 95 -113c0 -75 -62 -122 -158 -122c-95 0 -157 49 -157 122zM297 169c0 51 -43 86 -106 86c-61 0 -105 -35 -105 -86
c0 -49 41 -81 105 -81c65 0 106 32 106 81zM320 -34c0 57 -53 97 -129 97c-75 0 -128 -40 -128 -97c0 -59 51 -97 128 -97c79 0 129 38 129 97z" />
    <glyph glyph-name="nine.subs" horiz-adv-x="377" 
d="M343 79c0 -158 -52 -237 -155 -237c-72 0 -122 41 -135 108l27 6c12 -56 51 -87 108 -87c84 0 126 65 126 204v8h-1c-19 -51 -67 -82 -132 -82c-91 0 -147 55 -147 140c0 81 60 141 148 141c101 0 161 -73 161 -201zM300 139c0 69 -47 114 -118 114
c-72 0 -119 -47 -119 -114c0 -71 46 -115 119 -115c72 0 118 44 118 115z" />
    <glyph glyph-name="zero.dnom" horiz-adv-x="395" 
d="M34 210c0 136 62 219 163 219s164 -83 164 -219s-63 -219 -164 -219c-100 0 -163 83 -163 219zM332 210c0 120 -50 192 -135 192c-84 0 -134 -72 -134 -192s50 -192 134 -192c85 0 135 72 135 192z" />
    <glyph glyph-name="one.dnom" horiz-adv-x="240" 
d="M133 0v388l-104 -65v30l106 67h26v-420h-28z" />
    <glyph glyph-name="two.dnom" horiz-adv-x="358" 
d="M66 27h255v-27h-284v27c0 47 6 70 18 90c9 13 22 26 39 37s46 26 87 45c85 41 114 69 114 116c0 53 -42 88 -107 88c-73 0 -121 -43 -125 -114l-29 2c4 83 66 138 154 138c80 0 136 -47 136 -114c0 -56 -32 -92 -127 -137c-42 -20 -70 -35 -85 -44s-25 -19 -32 -30
c-11 -15 -13 -32 -14 -77z" />
    <glyph glyph-name="three.dnom" horiz-adv-x="355" 
d="M29 135l29 3c1 -80 45 -120 122 -120c69 0 113 37 113 97c0 67 -42 98 -125 98h-22v25h21c68 0 112 33 112 85c0 48 -40 79 -99 79c-63 0 -102 -30 -113 -90l-28 4c13 71 65 113 141 113c73 0 127 -42 127 -105c0 -47 -27 -78 -71 -95v-1c51 -15 85 -51 85 -114
c0 -75 -57 -123 -141 -123c-93 0 -148 52 -151 144z" />
    <glyph glyph-name="four.dnom" horiz-adv-x="346" 
d="M240 0v87h-230v26l212 307h46v-306h59v-27h-59v-87h-28zM42 114h198v284h-1z" />
    <glyph glyph-name="five.dnom" horiz-adv-x="374" 
d="M34 107l27 7c11 -63 56 -96 125 -96c75 0 125 49 125 122s-49 121 -125 121c-45 0 -86 -21 -115 -56l-25 6l42 209h216v-27h-194l-31 -149l1 -1c29 28 66 42 109 42c89 0 151 -57 151 -144c0 -89 -62 -150 -154 -150c-81 0 -139 44 -152 116z" />
    <glyph glyph-name="six.dnom" horiz-adv-x="386" 
d="M352 138c0 -89 -58 -147 -147 -147c-108 0 -171 78 -171 213c0 132 72 225 173 225c71 0 121 -40 136 -108l-27 -6c-14 58 -50 87 -109 87c-87 0 -144 -77 -144 -197c0 -8 0 -15 1 -22h1c17 57 74 97 141 97c87 0 146 -58 146 -142zM323 138c0 71 -47 118 -118 118
s-125 -51 -125 -118c0 -71 50 -120 125 -120c72 0 118 47 118 120z" />
    <glyph glyph-name="seven.dnom" horiz-adv-x="281" 
d="M54 0l190 392v1h-244v27h276v-25l-189 -395h-33z" />
    <glyph glyph-name="eight.dnom" horiz-adv-x="383" 
d="M34 113c0 55 38 97 94 113v1c-43 16 -69 47 -69 92c0 65 55 110 132 110c79 0 133 -45 133 -110c0 -45 -27 -76 -70 -92v-1c56 -16 95 -58 95 -113c0 -75 -62 -122 -158 -122c-95 0 -157 49 -157 122zM297 318c0 51 -43 86 -106 86c-61 0 -105 -35 -105 -86
c0 -49 41 -81 105 -81c65 0 106 32 106 81zM320 115c0 57 -53 97 -129 97c-75 0 -128 -40 -128 -97c0 -59 51 -97 128 -97c79 0 129 38 129 97z" />
    <glyph glyph-name="nine.dnom" horiz-adv-x="377" 
d="M343 228c0 -158 -52 -237 -155 -237c-72 0 -122 41 -135 108l27 6c12 -56 51 -87 108 -87c84 0 126 65 126 204v8h-1c-19 -51 -67 -82 -132 -82c-91 0 -147 55 -147 140c0 81 60 141 148 141c101 0 161 -73 161 -201zM300 288c0 69 -47 114 -118 114
c-72 0 -119 -47 -119 -114c0 -71 46 -115 119 -115c72 0 118 44 118 115z" />
    <glyph glyph-name="zero.numr" horiz-adv-x="395" 
d="M34 490c0 136 62 219 163 219s164 -83 164 -219s-63 -219 -164 -219c-100 0 -163 83 -163 219zM332 490c0 120 -50 192 -135 192c-84 0 -134 -72 -134 -192s50 -192 134 -192c85 0 135 72 135 192z" />
    <glyph glyph-name="one.numr" horiz-adv-x="240" 
d="M133 280v388l-104 -65v30l106 67h26v-420h-28z" />
    <glyph glyph-name="two.numr" horiz-adv-x="358" 
d="M66 307h255v-27h-284v27c0 47 6 70 18 90c9 13 22 26 39 37s46 26 87 45c85 41 114 69 114 116c0 53 -42 88 -107 88c-73 0 -121 -43 -125 -114l-29 2c4 83 66 138 154 138c80 0 136 -47 136 -114c0 -56 -32 -92 -127 -137c-42 -20 -70 -35 -85 -44s-25 -19 -32 -30
c-11 -15 -13 -32 -14 -77z" />
    <glyph glyph-name="three.numr" horiz-adv-x="355" 
d="M29 415l29 3c1 -80 45 -120 122 -120c69 0 113 37 113 97c0 67 -42 98 -125 98h-22v25h21c68 0 112 33 112 85c0 48 -40 79 -99 79c-63 0 -102 -30 -113 -90l-28 4c13 71 65 113 141 113c73 0 127 -42 127 -105c0 -47 -27 -78 -71 -95v-1c51 -15 85 -51 85 -114
c0 -75 -57 -123 -141 -123c-93 0 -148 52 -151 144z" />
    <glyph glyph-name="four.numr" horiz-adv-x="346" 
d="M240 280v87h-230v26l212 307h46v-306h59v-27h-59v-87h-28zM42 394h198v284h-1z" />
    <glyph glyph-name="five.numr" horiz-adv-x="374" 
d="M34 387l27 7c11 -63 56 -96 125 -96c75 0 125 49 125 122s-49 121 -125 121c-45 0 -86 -21 -115 -56l-25 6l42 209h216v-27h-194l-31 -149l1 -1c29 28 66 42 109 42c89 0 151 -57 151 -144c0 -89 -62 -150 -154 -150c-81 0 -139 44 -152 116z" />
    <glyph glyph-name="six.numr" horiz-adv-x="386" 
d="M352 418c0 -89 -58 -147 -147 -147c-108 0 -171 78 -171 213c0 132 72 225 173 225c71 0 121 -40 136 -108l-27 -6c-14 58 -50 87 -109 87c-87 0 -144 -77 -144 -197c0 -8 0 -15 1 -22h1c17 57 74 97 141 97c87 0 146 -58 146 -142zM323 418c0 71 -47 118 -118 118
s-125 -51 -125 -118c0 -71 50 -120 125 -120c72 0 118 47 118 120z" />
    <glyph glyph-name="seven.numr" horiz-adv-x="281" 
d="M54 280l190 392v1h-244v27h276v-25l-189 -395h-33z" />
    <glyph glyph-name="eight.numr" horiz-adv-x="383" 
d="M34 393c0 55 38 97 94 113v1c-43 16 -69 47 -69 92c0 65 55 110 132 110c79 0 133 -45 133 -110c0 -45 -27 -76 -70 -92v-1c56 -16 95 -58 95 -113c0 -75 -62 -122 -158 -122c-95 0 -157 49 -157 122zM297 598c0 51 -43 86 -106 86c-61 0 -105 -35 -105 -86
c0 -49 41 -81 105 -81c65 0 106 32 106 81zM320 395c0 57 -53 97 -129 97c-75 0 -128 -40 -128 -97c0 -59 51 -97 128 -97c79 0 129 38 129 97z" />
    <glyph glyph-name="nine.numr" horiz-adv-x="377" 
d="M343 508c0 -158 -52 -237 -155 -237c-72 0 -122 41 -135 108l27 6c12 -56 51 -87 108 -87c84 0 126 65 126 204v8h-1c-19 -51 -67 -82 -132 -82c-91 0 -147 55 -147 140c0 81 60 141 148 141c101 0 161 -73 161 -201zM300 568c0 69 -47 114 -118 114
c-72 0 -119 -47 -119 -114c0 -71 46 -115 119 -115c72 0 118 44 118 115z" />
    <glyph glyph-name="zero.sups" horiz-adv-x="395" 
d="M34 590c0 136 62 219 163 219s164 -83 164 -219s-63 -219 -164 -219c-100 0 -163 83 -163 219zM332 590c0 120 -50 192 -135 192c-84 0 -134 -72 -134 -192s50 -192 134 -192c85 0 135 72 135 192z" />
    <glyph glyph-name="one.sups" horiz-adv-x="240" 
d="M133 380v388l-104 -65v30l106 67h26v-420h-28z" />
    <glyph glyph-name="two.sups" horiz-adv-x="358" 
d="M66 407h255v-27h-284v27c0 47 6 70 18 90c9 13 22 26 39 37s46 26 87 45c85 41 114 69 114 116c0 53 -42 88 -107 88c-73 0 -121 -43 -125 -114l-29 2c4 83 66 138 154 138c80 0 136 -47 136 -114c0 -56 -32 -92 -127 -137c-42 -20 -70 -35 -85 -44s-25 -19 -32 -30
c-11 -15 -13 -32 -14 -77z" />
    <glyph glyph-name="three.sups" horiz-adv-x="355" 
d="M29 515l29 3c1 -80 45 -120 122 -120c69 0 113 37 113 97c0 67 -42 98 -125 98h-22v25h21c68 0 112 33 112 85c0 48 -40 79 -99 79c-63 0 -102 -30 -113 -90l-28 4c13 71 65 113 141 113c73 0 127 -42 127 -105c0 -47 -27 -78 -71 -95v-1c51 -15 85 -51 85 -114
c0 -75 -57 -123 -141 -123c-93 0 -148 52 -151 144z" />
    <glyph glyph-name="four.sups" horiz-adv-x="346" 
d="M240 380v87h-230v26l212 307h46v-306h59v-27h-59v-87h-28zM42 494h198v284h-1z" />
    <glyph glyph-name="five.sups" horiz-adv-x="374" 
d="M34 487l27 7c11 -63 56 -96 125 -96c75 0 125 49 125 122s-49 121 -125 121c-45 0 -86 -21 -115 -56l-25 6l42 209h216v-27h-194l-31 -149l1 -1c29 28 66 42 109 42c89 0 151 -57 151 -144c0 -89 -62 -150 -154 -150c-81 0 -139 44 -152 116z" />
    <glyph glyph-name="six.sups" horiz-adv-x="386" 
d="M352 518c0 -89 -58 -147 -147 -147c-108 0 -171 78 -171 213c0 132 72 225 173 225c71 0 121 -40 136 -108l-27 -6c-14 58 -50 87 -109 87c-87 0 -144 -77 -144 -197c0 -8 0 -15 1 -22h1c17 57 74 97 141 97c87 0 146 -58 146 -142zM323 518c0 71 -47 118 -118 118
s-125 -51 -125 -118c0 -71 50 -120 125 -120c72 0 118 47 118 120z" />
    <glyph glyph-name="seven.sups" horiz-adv-x="281" 
d="M54 380l190 392v1h-244v27h276v-25l-189 -395h-33z" />
    <glyph glyph-name="eight.sups" horiz-adv-x="383" 
d="M34 493c0 55 38 97 94 113v1c-43 16 -69 47 -69 92c0 65 55 110 132 110c79 0 133 -45 133 -110c0 -45 -27 -76 -70 -92v-1c56 -16 95 -58 95 -113c0 -75 -62 -122 -158 -122c-95 0 -157 49 -157 122zM297 698c0 51 -43 86 -106 86c-61 0 -105 -35 -105 -86
c0 -49 41 -81 105 -81c65 0 106 32 106 81zM320 495c0 57 -53 97 -129 97c-75 0 -128 -40 -128 -97c0 -59 51 -97 128 -97c79 0 129 38 129 97z" />
    <glyph glyph-name="nine.sups" horiz-adv-x="377" 
d="M343 608c0 -158 -52 -237 -155 -237c-72 0 -122 41 -135 108l27 6c12 -56 51 -87 108 -87c84 0 126 65 126 204v8h-1c-19 -51 -67 -82 -132 -82c-91 0 -147 55 -147 140c0 81 60 141 148 141c101 0 161 -73 161 -201zM300 668c0 69 -47 114 -118 114
c-72 0 -119 -47 -119 -114c0 -71 46 -115 119 -115c72 0 118 44 118 115z" />
    <glyph glyph-name="fraction" unicode="&#x2044;" horiz-adv-x="208" 
d="M-128 -60l-25 13l489 816l25 -14z" />
    <glyph glyph-name="onehalf" unicode="&#xbd;" horiz-adv-x="806" 
d="M133 280v388l-104 -65v30l106 67h26v-420h-28zM112 -60l-25 13l489 816l25 -14zM514 27h255v-27h-284v27c0 47 6 70 18 90c9 13 22 26 39 37s46 26 87 45c85 41 114 69 114 116c0 53 -42 88 -107 88c-73 0 -121 -43 -125 -114l-29 2c4 83 66 138 154 138
c80 0 136 -47 136 -114c0 -56 -32 -92 -127 -137c-42 -20 -70 -35 -85 -44s-25 -19 -32 -30c-11 -15 -13 -32 -14 -77z" />
    <glyph glyph-name="onequarter" unicode="&#xbc;" horiz-adv-x="764" 
d="M133 280v388l-104 -65v30l106 67h26v-420h-28zM112 -60l-25 13l489 816l25 -14zM658 0v87h-230v26l212 307h46v-306h59v-27h-59v-87h-28zM460 114h198v284h-1z" />
    <glyph glyph-name="threequarters" unicode="&#xbe;" horiz-adv-x="879" 
d="M29 415l29 3c1 -80 45 -120 122 -120c69 0 113 37 113 97c0 67 -42 98 -125 98h-22v25h21c68 0 112 33 112 85c0 48 -40 79 -99 79c-63 0 -102 -30 -113 -90l-28 4c13 71 65 113 141 113c73 0 127 -42 127 -105c0 -47 -27 -78 -71 -95v-1c51 -15 85 -51 85 -114
c0 -75 -57 -123 -141 -123c-93 0 -148 52 -151 144zM227 -60l-25 13l489 816l25 -14zM773 0v87h-230v26l212 307h46v-306h59v-27h-59v-87h-28zM575 114h198v284h-1z" />
    <glyph glyph-name="oneeighth" unicode="&#x215b;" horiz-adv-x="831" 
d="M133 280v388l-104 -65v30l106 67h26v-420h-28zM112 -60l-25 13l489 816l25 -14zM482 113c0 55 38 97 94 113v1c-43 16 -69 47 -69 92c0 65 55 110 132 110c79 0 133 -45 133 -110c0 -45 -27 -76 -70 -92v-1c56 -16 95 -58 95 -113c0 -75 -62 -122 -158 -122
c-95 0 -157 49 -157 122zM745 318c0 51 -43 86 -106 86c-61 0 -105 -35 -105 -86c0 -49 41 -81 105 -81c65 0 106 32 106 81zM768 115c0 57 -53 97 -129 97c-75 0 -128 -40 -128 -97c0 -59 51 -97 128 -97c79 0 129 38 129 97z" />
    <glyph glyph-name="threeeighths" unicode="&#x215c;" horiz-adv-x="946" 
d="M29 415l29 3c1 -80 45 -120 122 -120c69 0 113 37 113 97c0 67 -42 98 -125 98h-22v25h21c68 0 112 33 112 85c0 48 -40 79 -99 79c-63 0 -102 -30 -113 -90l-28 4c13 71 65 113 141 113c73 0 127 -42 127 -105c0 -47 -27 -78 -71 -95v-1c51 -15 85 -51 85 -114
c0 -75 -57 -123 -141 -123c-93 0 -148 52 -151 144zM227 -60l-25 13l489 816l25 -14zM597 113c0 55 38 97 94 113v1c-43 16 -69 47 -69 92c0 65 55 110 132 110c79 0 133 -45 133 -110c0 -45 -27 -76 -70 -92v-1c56 -16 95 -58 95 -113c0 -75 -62 -122 -158 -122
c-95 0 -157 49 -157 122zM860 318c0 51 -43 86 -106 86c-61 0 -105 -35 -105 -86c0 -49 41 -81 105 -81c65 0 106 32 106 81zM883 115c0 57 -53 97 -129 97c-75 0 -128 -40 -128 -97c0 -59 51 -97 128 -97c79 0 129 38 129 97z" />
    <glyph glyph-name="fiveeighths" unicode="&#x215d;" horiz-adv-x="965" 
d="M34 387l27 7c11 -63 56 -96 125 -96c75 0 125 49 125 122s-49 121 -125 121c-45 0 -86 -21 -115 -56l-25 6l42 209h216v-27h-194l-31 -149l1 -1c29 28 66 42 109 42c89 0 151 -57 151 -144c0 -89 -62 -150 -154 -150c-81 0 -139 44 -152 116zM246 -60l-25 13l489 816
l25 -14zM616 113c0 55 38 97 94 113v1c-43 16 -69 47 -69 92c0 65 55 110 132 110c79 0 133 -45 133 -110c0 -45 -27 -76 -70 -92v-1c56 -16 95 -58 95 -113c0 -75 -62 -122 -158 -122c-95 0 -157 49 -157 122zM879 318c0 51 -43 86 -106 86c-61 0 -105 -35 -105 -86
c0 -49 41 -81 105 -81c65 0 106 32 106 81zM902 115c0 57 -53 97 -129 97c-75 0 -128 -40 -128 -97c0 -59 51 -97 128 -97c79 0 129 38 129 97z" />
    <glyph glyph-name="seveneighths" unicode="&#x215e;" horiz-adv-x="842" 
d="M54 280l190 392v1h-244v27h276v-25l-189 -395h-33zM123 -60l-25 13l489 816l25 -14zM493 113c0 55 38 97 94 113v1c-43 16 -69 47 -69 92c0 65 55 110 132 110c79 0 133 -45 133 -110c0 -45 -27 -76 -70 -92v-1c56 -16 95 -58 95 -113c0 -75 -62 -122 -158 -122
c-95 0 -157 49 -157 122zM756 318c0 51 -43 86 -106 86c-61 0 -105 -35 -105 -86c0 -49 41 -81 105 -81c65 0 106 32 106 81zM779 115c0 57 -53 97 -129 97c-75 0 -128 -40 -128 -97c0 -59 51 -97 128 -97c79 0 129 38 129 97z" />
    <glyph glyph-name="asterisk" unicode="*" horiz-adv-x="465" 
d="M127 357l-21 17l103 128l-132 79l14 21l129 -76v157h26v-157l128 76l14 -21l-132 -79l103 -128l-21 -17l-105 133z" />
    <glyph glyph-name="backslash" unicode="\" horiz-adv-x="439" 
d="M382 -27l-351 741l26 12l350 -742z" />
    <glyph glyph-name="periodcentered" unicode="&#xb7;" horiz-adv-x="229" 
d="M78 353v73h75v-73h-75z" />
    <glyph glyph-name="bullet" unicode="&#x2022;" horiz-adv-x="315" 
d="M107 388c0 32 19 53 51 53c31 0 50 -21 50 -53c0 -31 -19 -52 -50 -52c-32 0 -51 21 -51 52z" />
    <glyph glyph-name="colon" unicode=":" horiz-adv-x="289" 
d="M107 369v73h75v-73h-75zM107 0v73h75v-73h-75z" />
    <glyph glyph-name="comma" unicode="," horiz-adv-x="290" 
d="M108 -68v28c23 5 30 15 30 40h-31v70h76v-61c0 -47 -25 -73 -75 -77z" />
    <glyph glyph-name="ellipsis" unicode="&#x2026;" horiz-adv-x="678" 
d="M302 0v73h75v-73h-75zM107 0v73h75v-73h-75zM497 0v73h75v-73h-75z" />
    <glyph glyph-name="exclam" unicode="!" horiz-adv-x="370" 
d="M170 176v524h31v-524h-31zM148 0v73h75v-73h-75z" />
    <glyph glyph-name="exclamdown" unicode="&#xa1;" horiz-adv-x="290" 
d="M108 530h75v-73h-75v73zM130 354h31v-524h-31v524z" />
    <glyph glyph-name="numbersign" unicode="#" horiz-adv-x="810" 
d="M730 477h-176l-44 -249h176l-4 -26h-176l-36 -202h-29l36 202h-197l-36 -202h-29l36 202h-174l4 26h174l44 249h-175l4 25h176l35 198h29l-35 -198h197l35 198h29l-35 -198h174zM481 228l44 249h-197l-44 -249h197z" />
    <glyph glyph-name="period" unicode="." horiz-adv-x="289" 
d="M107 0v73h75v-73h-75z" />
    <glyph glyph-name="question" unicode="?" horiz-adv-x="573" 
d="M229 164v75c0 76 17 101 106 162c43 29 71 54 86 75c15 22 23 48 23 79c0 77 -60 130 -152 130c-105 0 -170 -70 -174 -181l-32 2c2 125 86 209 206 209c54 0 98 -15 132 -45c35 -29 52 -68 52 -115c0 -37 -9 -68 -27 -93c-17 -25 -50 -53 -97 -85
c-81 -55 -93 -73 -93 -138v-75h-30zM211 0v73h75v-73h-75z" />
    <glyph glyph-name="questiondown" unicode="&#xbf;" horiz-adv-x="573" 
d="M362 530v-73h-75v73h75zM344 366v-75c0 -76 -17 -101 -106 -162c-43 -29 -72 -54 -87 -76c-15 -21 -22 -47 -22 -78c0 -77 60 -130 152 -130c105 0 170 70 174 181l32 -2c-2 -125 -86 -209 -206 -209c-54 0 -98 15 -133 45c-34 29 -51 68 -51 115c0 37 9 67 26 92
c18 25 51 54 98 86c81 55 93 73 93 138v75h30z" />
    <glyph glyph-name="quotedbl" unicode="&#x22;" horiz-adv-x="351" 
d="M107 500v200h30v-200h-30zM215 500v200h30v-200h-30z" />
    <glyph glyph-name="quotesingle" unicode="'" horiz-adv-x="243" 
d="M107 500v200h30v-200h-30z" />
    <glyph glyph-name="semicolon" unicode=";" horiz-adv-x="290" 
d="M108 -68v28c23 5 30 15 30 40h-31v70h76v-61c0 -47 -25 -73 -75 -77zM108 369v73h75v-73h-75z" />
    <glyph glyph-name="slash" unicode="/" horiz-adv-x="439" 
d="M57 -26l-25 11l350 742l26 -12z" />
    <glyph glyph-name="underscore" unicode="_" horiz-adv-x="619" 
d="M67 -113v25h485v-25h-485z" />
    <glyph glyph-name="braceleft" unicode="{" horiz-adv-x="349" 
d="M158 -68v271c0 49 -13 66 -53 66h-28v32h28c40 0 53 17 53 66v251c0 77 29 112 93 112h61v-29h-60c-44 0 -64 -26 -64 -86v-258c0 -45 -20 -68 -48 -71v-2c28 -4 48 -26 48 -71v-278c0 -60 20 -86 64 -86h60v-29h-61c-64 0 -93 35 -93 112z" />
    <glyph glyph-name="braceright" unicode="}" horiz-adv-x="349" 
d="M98 -180h-61v29h60c44 0 64 26 64 86v278c0 45 20 67 48 71v2c-28 3 -48 26 -48 71v258c0 60 -20 86 -64 86h-60v29h61c64 0 93 -35 93 -112v-251c0 -49 13 -66 53 -66h28v-32h-28c-40 0 -53 -17 -53 -66v-271c0 -77 -29 -112 -93 -112z" />
    <glyph glyph-name="bracketleft" unicode="[" horiz-adv-x="288" 
d="M98 -180v910h154v-28h-124v-854h124v-28h-154z" />
    <glyph glyph-name="bracketright" unicode="]" horiz-adv-x="288" 
d="M190 -180h-154v28h124v854h-124v28h154v-910z" />
    <glyph glyph-name="parenleft" unicode="(" horiz-adv-x="360" 
d="M107 294c0 183 67 347 196 486l21 -18c-123 -135 -185 -291 -185 -468s62 -333 185 -468l-21 -17c-129 137 -196 302 -196 485z" />
    <glyph glyph-name="parenright" unicode=")" horiz-adv-x="360" 
d="M57 -191l-21 17c123 135 185 291 185 468s-62 333 -185 468l21 18c129 -139 196 -303 196 -486s-67 -348 -196 -485z" />
    <glyph glyph-name="braceleft.case" horiz-adv-x="349" 
d="M158 -18v271c0 49 -13 66 -53 66h-28v32h28c40 0 53 17 53 66v251c0 77 29 112 93 112h61v-29h-60c-44 0 -64 -26 -64 -86v-258c0 -45 -20 -68 -48 -71v-2c28 -4 48 -26 48 -71v-278c0 -60 20 -86 64 -86h60v-29h-61c-64 0 -93 35 -93 112z" />
    <glyph glyph-name="braceright.case" horiz-adv-x="349" 
d="M98 -130h-61v29h60c44 0 64 26 64 86v278c0 45 20 67 48 71v2c-28 3 -48 26 -48 71v258c0 60 -20 86 -64 86h-60v29h61c64 0 93 -35 93 -112v-251c0 -49 13 -66 53 -66h28v-32h-28c-40 0 -53 -17 -53 -66v-271c0 -77 -29 -112 -93 -112z" />
    <glyph glyph-name="bracketleft.case" horiz-adv-x="288" 
d="M98 -130v910h154v-28h-124v-854h124v-28h-154z" />
    <glyph glyph-name="bracketright.case" horiz-adv-x="288" 
d="M190 -130h-154v28h124v854h-124v28h154v-910z" />
    <glyph glyph-name="parenleft.case" horiz-adv-x="360" 
d="M107 344c0 183 67 347 196 486l21 -18c-123 -135 -185 -291 -185 -468s62 -333 185 -468l-21 -17c-129 137 -196 302 -196 485z" />
    <glyph glyph-name="parenright.case" horiz-adv-x="360" 
d="M57 -141l-21 17c123 135 185 291 185 468s-62 333 -185 468l21 18c129 -139 196 -303 196 -486s-67 -348 -196 -485z" />
    <glyph glyph-name="emdash" unicode="&#x2014;" horiz-adv-x="852" 
d="M67 284v29h718v-29h-718z" />
    <glyph glyph-name="endash" unicode="&#x2013;" horiz-adv-x="567" 
d="M67 284v29h433v-29h-433z" />
    <glyph glyph-name="hyphen" unicode="-" horiz-adv-x="361" 
d="M67 284v29h228v-29h-228z" />
    <glyph glyph-name="uni00AD" unicode="&#xad;" horiz-adv-x="361" 
d="M67 284v29h228v-29h-228z" />
    <glyph glyph-name="emdash.ccmp" horiz-adv-x="852" 
d="M67 349v29h718v-29h-718z" />
    <glyph glyph-name="endash.ccmp" horiz-adv-x="567" 
d="M67 349v29h433v-29h-433z" />
    <glyph glyph-name="hyphen.ccmp" horiz-adv-x="361" 
d="M67 349v29h228v-29h-228z" />
    <glyph glyph-name="uni00AD.ccmp" horiz-adv-x="361" 
d="M67 349v29h228v-29h-228z" />
    <glyph glyph-name="guillemotleft" unicode="&#xab;" horiz-adv-x="437" 
d="M327 99l-107 185l107 184h33l-109 -184l109 -185h-33zM194 99l-107 185l107 184h33l-109 -184l109 -185h-33z" />
    <glyph glyph-name="guillemotright" unicode="&#xbb;" horiz-adv-x="437" 
d="M110 99h-33l109 185l-109 184h33l107 -184zM243 99h-33l109 185l-109 184h33l107 -184z" />
    <glyph glyph-name="guilsinglleft" unicode="&#x2039;" horiz-adv-x="304" 
d="M194 99l-107 185l107 184h33l-109 -184l109 -185h-33z" />
    <glyph glyph-name="guilsinglright" unicode="&#x203a;" horiz-adv-x="304" 
d="M110 99h-33l109 185l-109 184h33l107 -184z" />
    <glyph glyph-name="quotedblbase" unicode="&#x201e;" horiz-adv-x="403" 
d="M108 -68v28c23 5 30 15 30 40h-31v70h76v-61c0 -47 -25 -73 -75 -77zM221 -68v28c23 5 30 15 30 40h-31v70h76v-61c0 -47 -25 -73 -75 -77z" />
    <glyph glyph-name="quotedblleft" unicode="&#x201c;" horiz-adv-x="403" 
d="M182 700v-28c-23 -5 -30 -15 -30 -40h31v-70h-76v61c0 47 25 73 75 77zM295 700v-28c-23 -5 -30 -15 -30 -40h31v-70h-76v61c0 47 25 73 75 77z" />
    <glyph glyph-name="quotedblright" unicode="&#x201d;" horiz-adv-x="403" 
d="M108 562v28c23 5 30 15 30 40h-31v70h76v-61c0 -47 -25 -73 -75 -77zM221 562v28c23 5 30 15 30 40h-31v70h76v-61c0 -47 -25 -73 -75 -77z" />
    <glyph glyph-name="quoteleft" unicode="&#x2018;" horiz-adv-x="250" 
d="M162 700v-28c-23 -5 -30 -15 -30 -40h31v-70h-76v61c0 47 25 73 75 77z" />
    <glyph glyph-name="quoteright" unicode="&#x2019;" horiz-adv-x="250" 
d="M88 562v28c23 5 30 15 30 40h-31v70h76v-61c0 -47 -25 -73 -75 -77z" />
    <glyph glyph-name="quotesinglbase" unicode="&#x201a;" horiz-adv-x="290" 
d="M108 -68v28c23 5 30 15 30 40h-31v70h76v-61c0 -47 -25 -73 -75 -77z" />
    <glyph glyph-name="guillemotleft.case" horiz-adv-x="437" 
d="M327 149l-107 185l107 184h33l-109 -184l109 -185h-33zM194 149l-107 185l107 184h33l-109 -184l109 -185h-33z" />
    <glyph glyph-name="guillemotright.case" horiz-adv-x="437" 
d="M110 149h-33l109 185l-109 184h33l107 -184zM243 149h-33l109 185l-109 184h33l107 -184z" />
    <glyph glyph-name="guilsinglleft.case" horiz-adv-x="304" 
d="M194 149l-107 185l107 184h33l-109 -184l109 -185h-33z" />
    <glyph glyph-name="guilsinglright.case" horiz-adv-x="304" 
d="M110 149h-33l109 185l-109 184h33l107 -184z" />
    <glyph glyph-name="uni2003" unicode="&#x2003;" horiz-adv-x="1000" 
 />
    <glyph glyph-name="uni2002" unicode="&#x2002;" horiz-adv-x="750" 
 />
    <glyph glyph-name="uni2007" unicode="&#x2007;" 
 />
    <glyph glyph-name="uni2005" unicode="&#x2005;" horiz-adv-x="250" 
 />
    <glyph glyph-name="uni200A" unicode="&#x200a;" horiz-adv-x="75" 
 />
    <glyph glyph-name="uni2008" unicode="&#x2008;" horiz-adv-x="289" 
 />
    <glyph glyph-name="uni00A0" unicode="&#xa0;" horiz-adv-x="278" 
 />
    <glyph glyph-name="uni2009" unicode="&#x2009;" horiz-adv-x="150" 
 />
    <glyph glyph-name="uni2004" unicode="&#x2004;" horiz-adv-x="350" 
 />
    <glyph glyph-name="uni200B" unicode="&#x200b;" horiz-adv-x="0" 
 />
    <glyph glyph-name="uniFEFF" unicode="&#xfeff;" horiz-adv-x="0" 
 />
    <glyph glyph-name="uni0E3F" unicode="&#xe3f;" horiz-adv-x="633" 
d="M574 198c0 -131 -80 -198 -237 -198h-4v-110h-24v110h-201v700h201v101h24v-101h7c135 0 208 -61 208 -170c0 -81 -47 -139 -123 -155v-2c92 -13 149 -78 149 -175zM139 670v-286h170v286h-170zM339 670h-6v-286c117 1 183 53 183 146c0 92 -61 140 -177 140zM139 30h170
v326h-170v-326zM542 198c0 107 -64 158 -197 158h-12v-326h3c137 0 206 56 206 168z" />
    <glyph glyph-name="cent" unicode="&#xa2;" horiz-adv-x="627" 
d="M535 176l29 -5c-21 -109 -109 -181 -225 -186v-95h-24v95c-144 6 -247 122 -247 280s103 274 247 280v86h24v-86c116 -5 204 -77 225 -185l-29 -6c-20 99 -96 158 -196 162v-502c100 4 176 63 196 162zM315 14v502c-127 -6 -217 -110 -217 -251s90 -245 217 -251z" />
    <glyph glyph-name="currency" unicode="&#xa4;" horiz-adv-x="604" 
d="M547 102l-20 -18l-65 66c-41 -40 -97 -63 -160 -63s-119 22 -160 62l-64 -65l-20 18l66 66c-37 46 -56 100 -56 163c0 64 18 118 55 162l-65 66l19 18l64 -64c41 40 98 63 161 63s119 -23 160 -63l65 64l19 -18l-66 -66c36 -43 56 -99 56 -162s-20 -119 -56 -162z
M504 331c0 124 -85 216 -202 216s-203 -93 -203 -216c0 -125 85 -215 203 -215c119 0 202 90 202 215z" />
    <glyph glyph-name="dollar" unicode="$" horiz-adv-x="638" 
d="M589 165c0 -107 -98 -180 -251 -180h-4v-95h-24v96c-153 9 -254 92 -261 236l32 3c7 -129 93 -201 229 -209v334c-51 14 -93 27 -124 40c-63 25 -111 71 -111 146c0 106 97 179 229 179h6v86h24v-87c64 -5 117 -26 159 -62s67 -80 74 -133l-32 -4
c-15 92 -90 158 -201 169v-311c55 -15 99 -29 133 -43c69 -28 122 -80 122 -165zM310 380v305h-6c-114 0 -198 -60 -198 -148c6 -95 76 -121 204 -157zM557 164c0 35 -10 64 -30 87c-40 45 -97 65 -193 92v-328h5c135 0 218 60 218 149z" />
    <glyph glyph-name="Euro" unicode="&#x20ac;" horiz-adv-x="785" 
d="M704 237l32 -6c-13 -77 -45 -137 -98 -181c-53 -43 -119 -65 -198 -65c-82 0 -151 25 -207 75s-92 118 -107 204h-101v27h97c-2 19 -3 39 -3 60c0 11 1 28 2 49h-96v27h100c26 174 147 288 316 288c156 0 265 -88 293 -235l-31 -5c-27 133 -122 210 -263 210
c-75 0 -138 -23 -189 -70c-50 -46 -82 -109 -95 -188h354v-27h-358c-1 -21 -2 -38 -2 -49c0 -23 1 -43 4 -60h278v-27h-274c28 -153 134 -249 282 -249c144 0 239 79 264 222z" />
    <glyph glyph-name="florin" unicode="&#x192;" horiz-adv-x="387" 
d="M211 593l-11 -63h137v-28h-142l-86 -489l-12 -66c-10 -63 -48 -95 -114 -95h-50v29h51c51 0 75 20 84 72l97 549h-126v28h131l12 69c10 63 48 94 114 94h61v-28h-62c-49 0 -75 -21 -84 -72z" />
    <glyph glyph-name="lira" unicode="&#x20a4;" horiz-adv-x="528" 
d="M458 365h31c0 -218 -118 -365 -293 -365h-32v383l-106 -38l-10 25l116 42v108l-106 -38l-10 25l116 42v151h32v-139l167 61l10 -26l-177 -64v-108l167 61l10 -26l-177 -64v-365c157 0 262 134 262 335z" />
    <glyph glyph-name="uni20BD" unicode="&#x20bd;" horiz-adv-x="692" 
d="M188 287v-118h221v-27h-221v-142h-31v142h-109v27h109v118h-109v27h109v386h238c144 0 229 -75 229 -207s-82 -206 -229 -206h-207zM188 670v-353h206c128 0 199 63 199 176c0 115 -70 177 -199 177h-206z" />
    <glyph glyph-name="uni20A8" unicode="&#x20a8;" horiz-adv-x="613" 
d="M564 673h-163v-2c65 -26 100 -77 103 -152h60v-28h-60c-5 -104 -75 -168 -188 -179v-2l162 -310h-36l-160 310h-204v30h203c117 0 186 54 191 151h-394v28h394c-5 99 -71 151 -191 151h-203v30h486v-27z" />
    <glyph glyph-name="sterling" unicode="&#xa3;" horiz-adv-x="587" 
d="M198 32v-2h331v-30h-451v30h33c81 0 146 71 146 153c0 49 -21 92 -57 145h-122v27h104l-47 69c-20 33 -39 77 -39 120c0 104 85 171 217 171c135 0 217 -67 230 -186l-31 -4c-13 107 -79 160 -199 160c-115 0 -184 -54 -184 -141c0 -53 25 -94 74 -167l15 -22h213v-27
h-195c32 -49 50 -94 50 -145c0 -64 -37 -126 -88 -151z" />
    <glyph glyph-name="uni20A9" unicode="&#x20a9;" horiz-adv-x="885" 
d="M865 456h-83l-25 -121h108v-26h-113l-62 -309h-32l-101 309h-227l-102 -309h-33l-62 309h-113v26h108l-25 121h-83v25h78l-44 219h31l43 -219h229l72 219h28l72 -219h229l43 219h30l-44 -219h78v-25zM443 653l-57 -172h115l-56 172h-2zM133 456l24 -121h152l40 121h-216z
M338 335h211l-40 121h-131zM729 335l24 121h-216l39 -121h153zM215 48l86 261h-139l51 -261h2zM672 48l52 261h-139l85 -261h2z" />
    <glyph glyph-name="yen" unicode="&#xa5;" horiz-adv-x="560" 
d="M550 700l-240 -391h213v-28h-227v-108h227v-28h-227v-145h-32v145h-229v28h229v108h-229v28h215l-240 391h36l233 -382h2l233 382h36z" />
    <glyph glyph-name="uni0E3F.tnum" 
d="M582 198c0 -132 -79 -198 -236 -198h-21v-110h-24v110h-203v700h203v101h24v-101h23c135 0 208 -61 208 -170c0 -81 -47 -139 -123 -155v-2c92 -13 149 -78 149 -175zM130 670v-286h171v286h-171zM347 670h-22v-286h13c120 0 186 51 186 146c0 92 -61 140 -177 140z
M130 30h171v326h-171v-326zM550 198c0 107 -64 158 -197 158h-28v-326h20c137 0 205 56 205 168z" />
    <glyph glyph-name="cent.tnum" 
d="M544 176l29 -5c-21 -109 -109 -181 -225 -186v-95h-24v95c-144 6 -247 122 -247 280s103 274 247 280v86h24v-86c116 -5 204 -77 225 -185l-29 -6c-20 99 -96 158 -196 162v-502c100 4 176 63 196 162zM324 14v502c-127 -6 -217 -110 -217 -251s90 -245 217 -251z" />
    <glyph glyph-name="currency.tnum" 
d="M569 102l-19 -18l-66 66c-41 -40 -97 -63 -160 -63c-61 0 -119 22 -160 61l-64 -64l-19 18l66 66c-36 43 -57 100 -57 163s18 118 55 163l-65 65l19 18l64 -64c44 42 98 63 161 63c62 0 116 -21 161 -63l64 64l19 -18l-65 -66c37 -45 55 -99 55 -162s-20 -119 -56 -162z
M527 331c0 124 -86 216 -203 216c-116 0 -203 -93 -203 -216c0 -125 86 -215 203 -215c118 0 203 90 203 215z" />
    <glyph glyph-name="dollar.tnum" 
d="M595 165c0 -107 -98 -180 -250 -180h-5v-95h-24v96c-155 9 -254 92 -261 236l32 3c7 -129 93 -201 229 -209v334c-51 14 -93 27 -124 40c-63 25 -111 71 -111 146c0 106 97 179 229 179h6v86h24v-87c65 -5 118 -26 159 -62c42 -36 67 -80 74 -133l-32 -4
c-15 92 -90 158 -201 169v-311c55 -15 99 -29 133 -43c69 -28 122 -80 122 -165zM316 380v305h-6c-114 0 -198 -60 -198 -148c6 -95 76 -121 204 -157zM563 164c0 35 -10 64 -30 87c-40 45 -97 65 -193 92v-328h5c135 0 218 60 218 149z" />
    <glyph glyph-name="Euro.tnum" 
d="M580 236l31 -4c-21 -153 -112 -247 -240 -247c-70 0 -129 25 -177 75c-47 50 -77 118 -90 204h-81v27h78c-2 19 -3 39 -3 60c0 11 1 28 2 49h-77v27h80c22 174 125 288 268 288c125 0 216 -90 239 -235l-31 -5c-21 133 -99 210 -208 210c-127 0 -217 -99 -238 -258h296
v-27h-299c-1 -21 -2 -38 -2 -49c0 -21 1 -41 3 -60h220v-27h-217c24 -153 113 -249 237 -249c112 0 188 80 209 221z" />
    <glyph glyph-name="florin.tnum" 
d="M391 593l-11 -63h136v-28h-141l-98 -555c-11 -63 -50 -95 -115 -95h-49v29h51c51 0 75 20 83 72l11 62l87 487h-126v28h131l11 69c11 63 50 94 115 94h60v-28h-62c-49 0 -74 -21 -83 -72z" />
    <glyph glyph-name="lira.tnum" 
d="M513 365h32c0 -218 -118 -365 -293 -365h-32v383l-106 -38l-10 25l116 42v108l-106 -38l-10 25l116 42v151h32v-139l167 61l10 -26l-177 -64v-108l167 61l10 -26l-177 -64v-365c156 0 261 133 261 335z" />
    <glyph glyph-name="uni20BD.tnum" 
d="M183 287v-118h193v-27h-193v-142h-31v142h-104v27h104v118h-104v27h104v386h210c144 0 230 -76 230 -207c0 -132 -83 -206 -230 -206h-179zM183 670v-353h178c128 0 199 63 199 176c0 115 -70 177 -199 177h-178z" />
    <glyph glyph-name="uni20A8.tnum" 
d="M568 673h-163v-2c66 -27 100 -77 102 -152h61v-27h-60c-7 -105 -74 -169 -189 -180v-2l163 -310h-37l-159 310h-205v30h203c117 0 185 53 192 152h-395v27h395c-5 99 -72 151 -192 151h-203v30h487v-27z" />
    <glyph glyph-name="sterling.tnum" 
d="M213 32v-2h331v-30h-451v30h33c79 0 145 71 145 153c0 49 -21 94 -57 145h-121v27h103c-29 42 -50 76 -64 103s-21 55 -21 86c0 104 84 171 216 171c133 0 216 -67 231 -186l-32 -4c-13 107 -79 160 -199 160c-113 0 -184 -54 -184 -141c0 -55 25 -98 77 -170l13 -19h212
v-27h-195c32 -48 50 -94 50 -145c0 -64 -38 -126 -87 -151z" />
    <glyph glyph-name="uni20A9.tnum" 
d="M641 430h-66l-14 -84h80v-26h-85l-54 -320h-33l-95 320h-99l-95 -320h-32l-54 320h-85v26h80l-14 84h-66v26h61l-41 244h31l40 -244h189l22 74h27l22 -74h190l40 244h31l-41 -244h61v-26zM324 483l-8 -27h18l-8 27h-2zM104 430l14 -84h139l25 84h-178zM283 346h84l-25 84
h-34zM532 346l14 84h-178l25 -84h139zM169 48l80 272h-127l45 -272h2zM483 48l45 272h-128l81 -272h2z" />
    <glyph glyph-name="yen.tnum" 
d="M621 700l-265 -391h214v-28h-229v-108h229v-28h-229v-145h-32v145h-228v28h228v108h-228v28h213l-265 391h36l259 -384h2l259 384h36z" />
    <glyph glyph-name="uni207B" unicode="&#x207b;" horiz-adv-x="412" 
d="M77 199v26h258v-26h-258z" />
    <glyph glyph-name="plus" unicode="+" horiz-adv-x="592" 
d="M515 383v-28h-204v-212h-29v212h-205v28h205v201h29v-201h204z" />
    <glyph glyph-name="minus" unicode="&#x2212;" horiz-adv-x="542" 
d="M77 355v28h388v-28h-388z" />
    <glyph glyph-name="multiply" unicode="&#xd7;" horiz-adv-x="514" 
d="M98 181l-21 21l160 159l-160 160l21 20l159 -160l160 160l20 -20l-159 -160l159 -159l-20 -21l-160 160z" />
    <glyph glyph-name="divide" unicode="&#xf7;" horiz-adv-x="542" 
d="M226 553c0 27 19 47 46 47c25 0 45 -20 45 -47c0 -28 -20 -46 -45 -46c-27 0 -46 18 -46 46zM77 355v28h388v-28h-388zM226 181c0 27 19 47 46 47c25 0 45 -20 45 -47c0 -28 -20 -46 -45 -46c-27 0 -46 18 -46 46z" />
    <glyph glyph-name="equal" unicode="=" horiz-adv-x="564" 
d="M77 433v29h410v-29h-410zM77 253v29h410v-29h-410z" />
    <glyph glyph-name="notequal" unicode="&#x2260;" horiz-adv-x="564" 
d="M487 433h-148l-84 -151h232v-29h-248l-62 -111l-21 11l55 100h-134v29h150l84 151h-234v29h250l61 110l22 -11l-55 -99h132v-29z" />
    <glyph glyph-name="greater" unicode="&#x3e;" horiz-adv-x="554" 
d="M93 104l-16 25l370 223l-370 223l16 25l384 -231v-34z" />
    <glyph glyph-name="less" unicode="&#x3c;" horiz-adv-x="554" 
d="M461 104l-384 231v34l384 231l16 -25l-370 -223l370 -223z" />
    <glyph glyph-name="greaterequal" unicode="&#x2265;" horiz-adv-x="568" 
d="M107 139l-16 24l370 224l-371 224l17 24l384 -231v-34zM77 0v29h414v-29h-414z" />
    <glyph glyph-name="lessequal" unicode="&#x2264;" horiz-adv-x="568" 
d="M461 139l-384 231v34l384 231l17 -24l-371 -224l370 -224zM491 0h-414v29h414v-29z" />
    <glyph glyph-name="plusminus" unicode="&#xb1;" horiz-adv-x="592" 
d="M311 418h204v-28h-204v-208h-29v208h-205v28h205v198h29v-198zM77 96v27h438v-27h-438z" />
    <glyph glyph-name="approxequal" unicode="&#x2248;" horiz-adv-x="603" 
d="M104 378l-27 6c11 71 52 114 112 114c41 0 68 -15 121 -48c44 -29 69 -44 104 -44c47 0 77 31 86 92l27 -6c-11 -69 -53 -114 -112 -114c-41 0 -68 15 -121 48c-44 29 -69 44 -104 44c-47 0 -76 -31 -86 -92zM104 227l-27 6c11 71 52 114 112 114c41 0 68 -15 121 -48
c44 -29 69 -44 104 -44c47 0 77 31 86 92l27 -6c-11 -69 -53 -114 -112 -114c-41 0 -68 15 -121 48c-44 29 -69 44 -104 44c-47 0 -76 -31 -86 -92z" />
    <glyph glyph-name="asciitilde" unicode="~" horiz-adv-x="626" 
d="M105 296l-28 6c11 75 54 120 117 120c44 0 76 -18 127 -51c47 -31 75 -45 110 -45c49 0 79 32 90 96l28 -6c-11 -73 -54 -120 -117 -120c-44 0 -76 18 -127 51c-45 31 -75 46 -110 46c-48 0 -81 -33 -90 -97z" />
    <glyph glyph-name="logicalnot" unicode="&#xac;" horiz-adv-x="602" 
d="M494 194v190h-417v30h448v-220h-31z" />
    <glyph glyph-name="infinity" unicode="&#x221e;" horiz-adv-x="750" 
d="M77 304c0 109 61 182 150 182c68 0 117 -45 148 -136c31 91 81 136 150 136c88 0 149 -74 149 -182s-61 -182 -149 -182c-69 0 -119 45 -150 136c-31 -91 -80 -136 -148 -136c-89 0 -150 73 -150 182zM363 304c-24 100 -73 155 -136 155c-72 0 -122 -64 -122 -155
s50 -156 122 -156c63 0 112 56 136 156zM646 304c0 91 -51 155 -122 155c-63 0 -112 -55 -136 -155c24 -100 73 -156 136 -156c71 0 122 65 122 156z" />
    <glyph glyph-name="emptyset" unicode="&#x2205;" horiz-adv-x="860" 
d="M793 350c3 -203 -160 -369 -363 -365c-84 0 -161 26 -222 73l-87 -105l-23 18l87 106c-75 67 -118 164 -118 273c-4 203 160 369 363 365c83 0 160 -25 221 -72l88 106l23 -20l-87 -106c75 -67 118 -164 118 -273zM205 101l427 518c-56 41 -126 65 -202 65
c-187 3 -333 -147 -330 -334c0 -100 38 -188 105 -249zM760 350c0 100 -38 188 -105 249l-428 -517c56 -43 126 -66 203 -66c185 -3 333 147 330 334z" />
    <glyph glyph-name="integral" unicode="&#x222b;" horiz-adv-x="488" 
d="M77 -240v30c118 0 151 38 151 172v581c0 152 45 201 183 201v-30c-120 0 -151 -38 -151 -172v-581c0 -151 -45 -201 -183 -201z" />
    <glyph glyph-name="product" unicode="&#x220f;" horiz-adv-x="731" 
d="M158 -141v811h-123v30h661v-30h-124v-811h-30v811h-353v-811h-31z" />
    <glyph glyph-name="summation" unicode="&#x2211;" horiz-adv-x="611" 
d="M87 -100v30l285 370l-285 370v30h462v-29h-424l286 -371l-286 -371h424v-29h-462z" />
    <glyph glyph-name="radical" unicode="&#x221a;" horiz-adv-x="651" 
d="M596 700h37l-284 -700h-28l-148 369h-136v30h158l139 -353h2z" />
    <glyph glyph-name="partialdiff" unicode="&#x2202;" horiz-adv-x="579" 
d="M530 390c0 -271 -83 -404 -250 -404c-141 0 -222 91 -222 248c0 165 82 265 219 265c74 0 147 -22 220 -66c-7 217 -63 323 -175 323c-44 0 -80 -19 -113 -56l-22 21c38 43 83 64 135 64c139 0 208 -132 208 -395zM498 390v10c-80 49 -148 70 -219 70
c-119 0 -190 -87 -190 -236c0 -139 70 -218 191 -218c147 0 218 121 218 374z" />
    <glyph glyph-name="percent" unicode="%" horiz-adv-x="983" 
d="M269 -60l-28 13l490 816l26 -15zM77 490c0 136 62 219 163 219s164 -83 164 -219s-63 -219 -164 -219c-100 0 -163 83 -163 219zM374 490c0 120 -50 191 -134 191c-83 0 -133 -72 -133 -191s50 -191 133 -191c84 0 134 71 134 191zM579 210c0 136 63 219 164 219
s164 -83 164 -219s-63 -219 -164 -219s-164 83 -164 219zM876 210c0 119 -50 191 -133 191c-84 0 -134 -72 -134 -191s50 -191 134 -191c83 0 133 72 133 191z" />
    <glyph glyph-name="perthousand" unicode="&#x2030;" horiz-adv-x="1377" 
d="M269 -60l-28 13l490 816l26 -15zM77 490c0 136 62 219 163 219s164 -83 164 -219s-63 -219 -164 -219c-100 0 -163 83 -163 219zM374 490c0 120 -50 191 -134 191c-83 0 -133 -72 -133 -191s50 -191 133 -191c84 0 134 71 134 191zM579 210c0 136 63 219 164 219
s164 -83 164 -219s-63 -219 -164 -219s-164 83 -164 219zM973 210c0 136 63 219 164 219s163 -83 163 -219s-62 -219 -163 -219s-164 83 -164 219zM876 210c0 119 -50 191 -133 191c-84 0 -134 -72 -134 -191s50 -191 134 -191c83 0 133 72 133 191zM1270 210
c0 120 -49 191 -133 191s-134 -72 -134 -191s50 -191 134 -191s133 71 133 191z" />
    <glyph glyph-name="uni207A" unicode="&#x207a;" horiz-adv-x="442" 
d="M365 225v-26h-130v-131h-28v131h-130v26h130v127h28v-127h130z" />
    <glyph glyph-name="plus.tnum" 
d="M544 383v-28h-204v-212h-29v212h-205v28h205v201h29v-201h204z" />
    <glyph glyph-name="minus.tnum" 
d="M131 355v28h388v-28h-388z" />
    <glyph glyph-name="multiply.tnum" 
d="M168 181l-21 21l160 159l-160 160l21 20l159 -160l160 160l20 -20l-159 -160l159 -159l-20 -21l-160 160z" />
    <glyph glyph-name="divide.tnum" 
d="M280 553c0 27 19 47 46 47c25 0 45 -20 45 -47c0 -28 -20 -46 -45 -46c-27 0 -46 18 -46 46zM131 355v28h388v-28h-388zM280 181c0 27 19 47 46 47c25 0 45 -20 45 -47c0 -28 -20 -46 -45 -46c-27 0 -46 18 -46 46z" />
    <glyph glyph-name="equal.tnum" 
d="M120 433v29h410v-29h-410zM120 253v29h410v-29h-410z" />
    <glyph glyph-name="notequal.tnum" 
d="M530 433h-148l-84 -151h232v-29h-248l-62 -111l-21 11l55 100h-134v29h150l84 151h-234v29h250l61 110l22 -11l-55 -99h132v-29z" />
    <glyph glyph-name="greater.tnum" 
d="M141 104l-16 25l370 223l-370 223l16 25l384 -231v-34z" />
    <glyph glyph-name="less.tnum" 
d="M509 104l-384 231v34l384 231l16 -25l-370 -223l370 -223z" />
    <glyph glyph-name="greaterequal.tnum" 
d="M148 139l-16 24l370 224l-371 224l17 24l384 -231v-34zM118 0v29h414v-29h-414z" />
    <glyph glyph-name="lessequal.tnum" 
d="M502 139l-384 231v34l384 231l17 -24l-371 -224l370 -224zM532 0h-414v29h414v-29z" />
    <glyph glyph-name="plusminus.tnum" 
d="M340 418h204v-28h-204v-208h-29v208h-205v28h205v198h29v-198zM106 96v27h438v-27h-438z" />
    <glyph glyph-name="approxequal.tnum" 
d="M127 378l-27 6c11 71 52 114 112 114c41 0 68 -15 121 -48c44 -29 69 -44 104 -44c47 0 77 31 86 92l27 -6c-11 -69 -53 -114 -112 -114c-41 0 -68 15 -121 48c-44 29 -69 44 -104 44c-47 0 -76 -31 -86 -92zM127 227l-27 6c11 71 52 114 112 114c41 0 68 -15 121 -48
c44 -29 69 -44 104 -44c47 0 77 31 86 92l27 -6c-11 -69 -53 -114 -112 -114c-41 0 -68 15 -121 48c-44 29 -69 44 -104 44c-47 0 -76 -31 -86 -92z" />
    <glyph glyph-name="percent.tnum" 
d="M38 660c0 136 63 219 164 219s164 -83 164 -219s-63 -219 -164 -219s-164 83 -164 219zM336 660c0 119 -50 191 -134 191c-83 0 -133 -72 -133 -191s50 -191 133 -191c84 0 134 72 134 191zM149 231l-14 26l375 217l15 -25zM285 40c0 136 62 219 163 219
s164 -83 164 -219s-63 -219 -164 -219s-163 83 -163 219zM582 40c0 119 -50 191 -134 191s-133 -71 -133 -191s49 -191 133 -191s134 72 134 191z" />
    <glyph glyph-name="perthousand.tnum" 
d="M34 682c0 136 63 219 164 219s163 -83 163 -219s-62 -219 -163 -219s-164 83 -164 219zM332 682c0 119 -50 191 -134 191s-134 -72 -134 -191s50 -191 134 -191s134 72 134 191zM73 281l-9 27l435 158l10 -26zM15 8c0 136 62 219 163 219c62 0 107 -29 134 -88
c9 120 68 188 160 188c101 0 163 -83 163 -219c0 -135 -62 -219 -163 -219c-61 0 -106 30 -134 89c-8 -120 -67 -189 -160 -189c-100 0 -163 83 -163 219zM605 108c0 119 -50 191 -134 191s-134 -72 -134 -191s50 -191 134 -191s134 72 134 191zM313 8
c0 119 -50 191 -134 191s-134 -72 -134 -191s50 -191 134 -191s134 72 134 191z" />
    <glyph glyph-name="arrowup" unicode="&#x2191;" horiz-adv-x="568" 
d="M501 419l-22 -22l-180 188v-526h-30v526l-180 -188l-22 22l217 223z" />
    <glyph glyph-name="uni2197" unicode="&#x2197;" horiz-adv-x="555" 
d="M66 160l374 374l-262 -6l-1 29l311 5l-4 -312h-30l6 263l-374 -374z" />
    <glyph glyph-name="arrowright" unicode="&#x2192;" horiz-adv-x="716" 
d="M426 563l223 -217l-223 -217l-21 22l189 181h-527v29h526l-188 180z" />
    <glyph glyph-name="uni2198" unicode="&#x2198;" horiz-adv-x="555" 
d="M66 540l20 21l374 -374l-6 263h30l4 -312l-311 5l1 29l262 -6z" />
    <glyph glyph-name="arrowdown" unicode="&#x2193;" horiz-adv-x="568" 
d="M479 304l22 -22l-217 -223l-217 223l22 22l180 -188v526h30v-526z" />
    <glyph glyph-name="uni2199" unicode="&#x2199;" horiz-adv-x="555" 
d="M489 541l-374 -374l262 6l1 -29l-311 -5l4 312h30l-6 -263l374 374z" />
    <glyph glyph-name="arrowleft" unicode="&#x2190;" horiz-adv-x="716" 
d="M649 361v-29h-527l189 -181l-21 -22l-223 217l223 217l21 -22l-188 -180h526z" />
    <glyph glyph-name="uni2196" unicode="&#x2196;" horiz-adv-x="555" 
d="M489 160l-20 -21l-374 374l6 -263h-30l-4 312l311 -5l-1 -29l-262 6z" />
    <glyph glyph-name="arrowboth" unicode="&#x2194;" horiz-adv-x="792" 
d="M502 563l224 -217l-224 -217l-21 22l192 182h-554l192 -182l-20 -22l-224 217l224 217l20 -21l-191 -182h552l-191 182z" />
    <glyph glyph-name="arrowupdn" unicode="&#x2195;" horiz-adv-x="568" 
d="M298 83l181 191l22 -22l-217 -224l-217 224l22 22l181 -191v532l-181 -190l-22 21l217 224l217 -224l-22 -21l-181 190v-532z" />
    <glyph glyph-name="uni21B3" unicode="&#x21b3;" horiz-adv-x="710" 
d="M420 563l223 -217l-223 -217l-21 22l189 181h-471v368h30v-339h440l-188 180z" />
    <glyph glyph-name="lozenge" unicode="&#x25ca;" horiz-adv-x="629" 
d="M294 0l-217 350l217 350h41l217 -350l-217 -350h-41zM314 23l204 327l-204 328l-204 -328z" />
    <glyph glyph-name="uniF8FF" unicode="&#xf8ff;" horiz-adv-x="686" 
d="M50 0v423c-4 154 139 295 292 292c155 3 298 -138 294 -292v-423h-28l-65 65l-68 -65l-63 65l-71 -65l-69 65l-63 -65l-67 65l-66 -65h-26zM287 377c0 40 -31 72 -71 72c-39 0 -71 -32 -71 -72c0 -39 32 -70 71 -70s71 31 71 70zM542 377c0 40 -32 72 -72 72
c-39 0 -70 -32 -70 -72c0 -37 33 -70 70 -70c39 0 72 33 72 70z" />
    <glyph glyph-name="at" unicode="@" horiz-adv-x="811" 
d="M77 292c-3 205 146 367 331 364c196 0 327 -139 327 -343c0 -153 -41 -222 -132 -222c-48 0 -78 24 -86 67h-2c-19 -43 -71 -71 -128 -71c-71 0 -116 41 -116 105c0 59 29 91 108 116c95 31 124 51 124 87c0 45 -34 74 -89 74c-61 0 -100 -37 -109 -102l-29 5
c11 77 62 124 138 124c73 0 120 -45 120 -116v-164c0 -72 20 -100 69 -100c73 0 104 60 104 197c0 190 -119 317 -299 317c-167 4 -308 -149 -304 -338c0 -217 109 -340 300 -340c81 0 150 21 206 64l14 -23c-63 -45 -136 -67 -220 -67c-207 0 -327 134 -327 366zM506 216
v133h-1c-8 -21 -44 -41 -120 -66c-63 -21 -84 -44 -84 -89c0 -49 32 -80 87 -80c71 0 118 41 118 102z" />
    <glyph glyph-name="ampersand" unicode="&#x26;" horiz-adv-x="679" 
d="M637 80l-19 -21l-86 78c-20 -91 -106 -152 -229 -152c-140 0 -226 73 -226 193c0 93 54 168 161 223l-5 4c-69 63 -96 109 -96 162c0 43 15 79 46 106c31 28 70 42 119 42c97 0 161 -57 170 -152l-29 -4c-11 84 -61 128 -141 128c-79 0 -135 -47 -135 -120
c0 -45 23 -86 80 -137l262 -235v194h29v-220zM507 158l-248 224c-104 -52 -152 -116 -152 -204c0 -100 76 -165 196 -165c115 0 192 57 204 145z" />
    <glyph glyph-name="paragraph" unicode="&#xb6;" horiz-adv-x="497" 
d="M185 -136v547c-77 3 -138 61 -138 145c0 89 61 144 144 144h208v-836h-32v807h-150v-807h-32z" />
    <glyph glyph-name="section" unicode="&#xa7;" horiz-adv-x="638" 
d="M507 -22c0 -91 -75 -155 -180 -155c-111 0 -189 69 -200 173l32 3c11 -91 75 -147 168 -147c88 0 148 51 148 126c0 56 -33 94 -108 126l-132 56c-101 43 -138 82 -138 143c0 49 33 95 100 138c-44 32 -66 72 -66 120c0 91 75 154 180 154c111 0 189 -69 200 -173l-32 -3
c-11 91 -75 147 -168 147c-88 0 -148 -50 -148 -125c0 -56 33 -95 108 -126l132 -56c101 -43 138 -82 138 -143c0 -49 -34 -95 -101 -139c45 -31 67 -70 67 -119zM246 188l136 -59c14 -6 25 -11 33 -16c63 40 95 81 95 123c0 49 -29 76 -118 115l-136 58
c-13 5 -25 11 -34 16c-63 -39 -94 -79 -94 -122c0 -49 29 -76 118 -115z" />
    <glyph glyph-name="copyright" unicode="&#xa9;" horiz-adv-x="736" 
d="M67 323c-3 180 136 310 301 307c165 3 304 -127 301 -307c3 -180 -136 -310 -301 -307c-165 -3 -304 127 -301 307zM643 323c0 171 -121 283 -275 283c-153 0 -275 -112 -275 -283s122 -282 275 -282c154 0 275 111 275 282zM219 323c0 112 59 186 150 186
c73 0 125 -48 137 -125l-28 -4c-9 65 -50 103 -109 103c-75 0 -122 -63 -122 -160s47 -160 122 -160c59 0 100 38 109 103l28 -4c-12 -77 -64 -125 -137 -125c-91 0 -150 74 -150 186z" />
    <glyph glyph-name="registered" unicode="&#xae;" horiz-adv-x="736" 
d="M669 323c3 -180 -136 -310 -301 -307c-165 -3 -304 127 -301 307c-3 180 136 310 301 307c165 3 304 -127 301 -307zM643 323c0 171 -121 283 -275 283c-153 0 -275 -112 -275 -283s122 -282 275 -282c154 0 275 111 275 282zM421 298l81 -153h-31l-78 151h-98v-151h-28
v356h131c73 0 117 -37 117 -101c0 -57 -35 -95 -94 -102zM486 400c0 49 -32 75 -89 75h-102v-153h102c56 0 89 29 89 78z" />
    <glyph glyph-name="uni2117" unicode="&#x2117;" horiz-adv-x="736" 
d="M67 323c-3 180 136 310 301 307c165 3 304 -127 301 -307c3 -180 -136 -310 -301 -307c-165 -3 -304 127 -301 307zM643 323c0 171 -121 283 -275 283c-153 0 -275 -112 -275 -283s122 -282 275 -282c154 0 275 111 275 282zM276 144v356h128c75 0 117 -39 117 -108
c0 -67 -43 -106 -116 -106h-101v-142h-28zM304 312h98c59 0 91 29 91 81c0 53 -32 82 -92 82h-97v-163z" />
    <glyph glyph-name="trademark" unicode="&#x2122;" horiz-adv-x="756" 
d="M171 361v315h-109v24h244v-24h-109v-315h-26zM374 361v339h34l123 -298h1l123 298h34v-339h-25v294h-1l-123 -294h-17l-123 294h-1v-294h-25z" />
    <glyph glyph-name="degree" unicode="&#xb0;" horiz-adv-x="423" 
d="M57 550c0 91 63 155 154 155c92 0 155 -64 155 -155s-63 -155 -155 -155c-91 0 -154 64 -154 155zM339 550c0 77 -52 129 -128 129c-75 0 -127 -52 -127 -129s52 -129 127 -129c76 0 128 52 128 129z" />
    <glyph glyph-name="bar" unicode="|" horiz-adv-x="261" 
d="M117 -300v1075h27v-1075h-27z" />
    <glyph glyph-name="brokenbar" unicode="&#xa6;" horiz-adv-x="261" 
d="M117 350v425h27v-425h-27zM117 -300v425h27v-425h-27z" />
    <glyph glyph-name="dagger" unicode="&#x2020;" horiz-adv-x="611" 
d="M290 -190v691h-223v29h223v243h31v-243h223v-29h-223v-691h-31z" />
    <glyph glyph-name="daggerdbl" unicode="&#x2021;" horiz-adv-x="611" 
d="M290 -190v219h-223v30h223v442h-223v29h223v228h31v-228h223v-29h-223v-442h223v-30h-223v-219h-31z" />
    <glyph glyph-name="uni2116" unicode="&#x2116;" horiz-adv-x="1053" 
d="M672 490c0 136 62 219 163 219s164 -83 164 -219s-63 -219 -164 -219c-100 0 -163 83 -163 219zM97 0v700h40l391 -653h2v653h31v-700h-40l-391 653h-2v-653h-31zM969 490c0 119 -50 191 -134 191s-133 -71 -133 -191s49 -191 133 -191s134 72 134 191zM672 175v26h327
v-26h-327z" />
    <glyph glyph-name="asciicircum" unicode="^" horiz-adv-x="543" 
d="M457 331h-35l-150 325l-151 -325h-34l174 369h22z" />
    <glyph glyph-name="at.case" horiz-adv-x="811" 
d="M77 351c-3 205 146 367 331 364c196 0 327 -139 327 -343c0 -153 -41 -222 -132 -222c-48 0 -78 24 -86 67h-2c-19 -43 -71 -71 -128 -71c-71 0 -116 41 -116 105c0 59 29 91 108 116c95 31 124 51 124 87c0 45 -34 74 -89 74c-61 0 -100 -37 -109 -102l-29 5
c11 77 62 124 138 124c73 0 120 -45 120 -116v-164c0 -72 20 -100 69 -100c73 0 104 60 104 197c0 190 -119 317 -299 317c-167 4 -308 -149 -304 -338c0 -217 109 -340 300 -340c81 0 150 21 206 64l14 -23c-63 -45 -136 -67 -220 -67c-207 0 -327 134 -327 366zM506 275
v133h-1c-8 -21 -44 -41 -120 -66c-63 -21 -84 -44 -84 -89c0 -49 32 -80 87 -80c71 0 118 41 118 102z" />
    <glyph glyph-name="uni0308" unicode="&#x308;" horiz-adv-x="0" 
d="M-228 580v67h68v-67h-68zM-68 580v67h68v-67h-68z" />
    <glyph glyph-name="uni0307" unicode="&#x307;" horiz-adv-x="0" 
d="M-68 590v67h68v-67h-68z" />
    <glyph glyph-name="gravecomb" unicode="&#x300;" horiz-adv-x="0" 
d="M-35 590l-87 101h59l63 -101h-35z" />
    <glyph glyph-name="acutecomb" unicode="&#x301;" horiz-adv-x="0" 
d="M-122 590l62 101h60l-88 -101h-34z" />
    <glyph glyph-name="uni030B" unicode="&#x30b;" horiz-adv-x="0" 
d="M-232 590l62 101h60l-88 -101h-34zM-122 590l63 101h59l-88 -101h-34z" />
    <glyph glyph-name="uni0302" unicode="&#x302;" horiz-adv-x="0" 
d="M0 588l-23 -18l-69 84l-69 -84l-23 18l69 85h45z" />
    <glyph glyph-name="uni030C" unicode="&#x30c;" horiz-adv-x="0" 
d="M-23 683l23 -18l-70 -85h-45l-69 85l23 18l69 -83z" />
    <glyph glyph-name="uni0306" unicode="&#x306;" horiz-adv-x="0" 
d="M-197 676h23c7 -39 32 -62 76 -62c43 0 69 23 76 62h22c-3 -57 -39 -96 -98 -96s-96 39 -99 96z" />
    <glyph glyph-name="uni030A" unicode="&#x30a;" horiz-adv-x="0" 
d="M-204 606c0 57 43 99 102 99c60 0 102 -42 102 -99s-42 -99 -102 -99c-59 0 -102 42 -102 99zM-26 606c0 44 -32 76 -76 76s-76 -32 -76 -76s32 -76 76 -76s76 32 76 76z" />
    <glyph glyph-name="tildecomb" unicode="&#x303;" horiz-adv-x="0" 
d="M-123 609c-23 13 -38 21 -55 21c-21 0 -34 -13 -37 -40h-21c3 43 25 68 60 68c20 0 38 -8 63 -23s38 -21 55 -21c22 0 34 13 37 39h21c-3 -43 -24 -68 -59 -68c-21 0 -40 9 -64 24z" />
    <glyph glyph-name="uni0304" unicode="&#x304;" horiz-adv-x="0" 
d="M-231 590v27h231v-27h-231z" />
    <glyph glyph-name="uni0312" unicode="&#x312;" horiz-adv-x="0" 
d="M-1 708v-24c-20 -4 -27 -13 -27 -34h28v-60h-69v52c0 40 23 62 68 66z" />
    <glyph glyph-name="dotbelowcomb" unicode="&#x323;" horiz-adv-x="0" 
d="M-68 -116v67h68v-67h-68z" />
    <glyph glyph-name="uni0326" unicode="&#x326;" horiz-adv-x="0" 
d="M-63 -168v24c19 4 25 13 25 34h-26v60h65v-52c0 -39 -23 -62 -64 -66z" />
    <glyph glyph-name="uni0327" unicode="&#x327;" horiz-adv-x="0" 
d="M0 -120c0 -47 -38 -81 -89 -81c-37 0 -67 14 -90 41l20 18c21 -25 41 -35 70 -35c35 0 63 25 63 57c0 33 -24 54 -59 54c-25 0 -49 -11 -66 -31l-21 10l55 101l21 -12l-35 -59c14 9 30 13 48 13c48 0 83 -31 83 -76z" />
    <glyph glyph-name="uni0328" unicode="&#x328;" horiz-adv-x="0" 
d="M-148 -110c0 43 40 88 100 121l17 -11c-59 -34 -88 -70 -88 -107c0 -27 15 -40 45 -40c21 0 39 7 60 22l14 -24c-23 -17 -48 -26 -75 -26c-49 0 -73 22 -73 65z" />
    <glyph glyph-name="uni0335" unicode="&#x335;" horiz-adv-x="0" 
d="M-331 348v27h331v-27h-331z" />
    <glyph glyph-name="uni0336" unicode="&#x336;" horiz-adv-x="0" 
d="M-648 348v27h648v-27h-648z" />
    <glyph glyph-name="uni0337" unicode="&#x337;" horiz-adv-x="0" 
d="M-404 3l-17 12l404 512l17 -12z" />
    <glyph glyph-name="_646" horiz-adv-x="0" 
d="M0 370l-132 -127v5l-114 -110l-16 15l131 126v-5l116 112z" />
    <glyph glyph-name="uni0338" unicode="&#x338;" horiz-adv-x="0" 
d="M-410 -15l-22 12l410 719l22 -12z" />
    <glyph glyph-name="_648" horiz-adv-x="0" 
d="M0 422l-198 -184v5l-150 -146l-16 16l176 170v-4l172 159z" />
    <glyph glyph-name="_649" horiz-adv-x="0" 
d="M-57 626v55h57v-55h-57z" />
    <glyph glyph-name="_650" horiz-adv-x="0" 
d="M-234 350v25h234v-25h-234z" />
    <glyph glyph-name="acute" unicode="&#xb4;" horiz-adv-x="275" 
d="M77 590l62 101h60l-88 -101h-34z" />
    <glyph glyph-name="breve" unicode="&#x2d8;" horiz-adv-x="345" 
d="M77 676h23c7 -39 32 -62 76 -62c43 0 69 23 76 62h22c-3 -57 -39 -96 -98 -96s-96 39 -99 96z" />
    <glyph glyph-name="caron" unicode="&#x2c7;" horiz-adv-x="337" 
d="M238 683l23 -18l-70 -85h-45l-69 85l23 18l69 -83z" />
    <glyph glyph-name="cedilla" unicode="&#xb8;" horiz-adv-x="332" 
d="M256 -120c0 -47 -38 -81 -89 -81c-37 0 -67 14 -90 41l20 18c21 -25 41 -35 70 -35c35 0 63 25 63 57c0 33 -24 54 -59 54c-25 0 -49 -11 -66 -31l-21 10l55 101l21 -12l-35 -59c14 9 30 13 48 13c48 0 83 -31 83 -76z" />
    <glyph glyph-name="circumflex" unicode="&#x2c6;" horiz-adv-x="337" 
d="M261 588l-23 -18l-69 84l-69 -84l-23 18l69 85h45z" />
    <glyph glyph-name="dieresis" unicode="&#xa8;" horiz-adv-x="381" 
d="M77 580v67h68v-67h-68zM237 580v67h68v-67h-68z" />
    <glyph glyph-name="dotaccent" unicode="&#x2d9;" horiz-adv-x="221" 
d="M77 590v67h68v-67h-68z" />
    <glyph glyph-name="grave" unicode="`" horiz-adv-x="275" 
d="M164 590l-87 101h59l63 -101h-35z" />
    <glyph glyph-name="hungarumlaut" unicode="&#x2dd;" horiz-adv-x="385" 
d="M77 590l62 101h60l-88 -101h-34zM187 590l63 101h59l-88 -101h-34z" />
    <glyph glyph-name="macron" unicode="&#xaf;" horiz-adv-x="385" 
d="M77 590v27h231v-27h-231z" />
    <glyph glyph-name="ogonek" unicode="&#x2db;" horiz-adv-x="302" 
d="M77 -110c0 43 40 88 100 121l17 -11c-59 -34 -88 -70 -88 -107c0 -27 15 -40 45 -40c21 0 39 7 60 22l14 -24c-23 -17 -48 -26 -75 -26c-49 0 -73 22 -73 65z" />
    <glyph glyph-name="ring" unicode="&#x2da;" horiz-adv-x="358" 
d="M77 606c0 57 43 99 102 99c60 0 102 -42 102 -99s-42 -99 -102 -99c-59 0 -102 42 -102 99zM255 606c0 44 -32 76 -76 76s-76 -32 -76 -76s32 -76 76 -76s76 32 76 76z" />
    <glyph glyph-name="tilde" unicode="&#x2dc;" horiz-adv-x="390" 
d="M190 609c-23 13 -38 21 -55 21c-21 0 -34 -13 -37 -40h-21c3 43 25 68 60 68c20 0 38 -8 63 -23s38 -21 55 -21c22 0 34 13 37 39h21c-3 -43 -24 -68 -59 -68c-21 0 -40 9 -64 24z" />
    </font>
</defs>
</svg>
